Jost-Semi.ufo
<glyph name="numbersign" format="1">
  <advance width="648"/>
  <unicode hex="0023"/>
  <outline>
    <contour>
      <point x="370" y="280" type="line"/>
      <point x="405" y="424" type="line"/>
      <point x="279" y="424" type="line"/>
      <point x="243" y="280" type="line"/>
    </contour>
    <contour>
      <point x="236" y="700" type="line"/>
      <point x="351" y="700" type="line"/>
      <point x="307" y="524" type="line"/>
      <point x="426" y="524" type="line"/>
      <point x="468" y="700" type="line"/>
      <point x="582" y="700" type="line"/>
      <point x="539" y="524" type="line"/>
      <point x="614" y="524" type="line"/>
      <point x="614" y="420" type="line"/>
      <point x="514" y="420" type="line"/>
      <point x="481" y="284" type="line"/>
      <point x="574" y="284" type="line"/>
      <point x="574" y="180" type="line"/>
      <point x="456" y="180" type="line"/>
      <point x="412" y="0" type="line"/>
      <point x="298" y="0" type="line"/>
      <point x="341" y="180" type="line"/>
      <point x="224" y="180" type="line"/>
      <point x="181" y="0" type="line"/>
      <point x="66" y="0" type="line"/>
      <point x="110" y="180" type="line"/>
      <point x="35" y="180" type="line"/>
      <point x="35" y="284" type="line"/>
      <point x="135" y="284" type="line"/>
      <point x="168" y="420" type="line"/>
      <point x="75" y="420" type="line"/>
      <point x="75" y="524" type="line"/>
      <point x="193" y="524" type="line"/>
    </contour>
  </outline>
</glyph>
<glyph name="dollar" format="1">
  <advance width="608"/>
  <unicode hex="0024"/>
  <outline>
    <contour>
      <point x="446" y="496" type="line"/>
      <point x="416" y="554"/>
      <point x="376" y="599"/>
      <point x="316" y="599" type="curve" smooth="yes"/>
      <point x="254" y="599"/>
      <point x="227" y="570"/>
      <point x="227" y="526" type="curve" smooth="yes"/>
      <point x="227" y="462"/>
      <point x="303" y="440"/>
      <point x="388" y="408" type="curve" smooth="yes"/>
      <point x="476" y="376"/>
      <point x="566" y="316"/>
      <point x="566" y="194" type="curve" smooth="yes"/>
      <point x="566" y="81"/>
      <point x="492" y="9"/>
      <point x="368" y="-7" type="curve"/>
      <point x="370" y="-112" type="line"/>
      <point x="261" y="-112" type="line"/>
      <point x="264" y="-6" type="line"/>
      <point x="162" y="12"/>
      <point x="78" y="84"/>
      <point x="40" y="172" type="curve"/>
      <point x="144" y="244" type="line"/>
      <point x="190" y="156"/>
      <point x="240" y="108"/>
      <point x="318" y="108" type="curve" smooth="yes"/>
      <point x="384" y="108"/>
      <point x="414" y="139"/>
      <point x="414" y="191" type="curve" smooth="yes"/>
      <point x="414" y="257"/>
      <point x="346" y="282"/>
      <point x="264" y="313" type="curve" smooth="yes"/>
      <point x="194" y="339"/>
      <point x="79" y="393"/>
      <point x="79" y="526" type="curve" smooth="yes"/>
      <point x="79" y="614"/>
      <point x="154" y="689"/>
      <point x="264" y="706" type="curve"/>
      <point x="261" y="818" type="line"/>
      <point x="370" y="818" type="line"/>
      <point x="367" y="705" type="line"/>
      <point x="467" y="688"/>
      <point x="524" y="625"/>
      <point x="556" y="562" type="curve"/>
    </contour>
  </outline>
</glyph>
<glyph name="ampersand" format="1">
  <advance width="729"/>
  <unicode hex="0026"/>
  <outline>
    <contour>
      <point x="315" y="439" type="curve"/>
      <point x="368" y="472"/>
      <point x="397" y="508"/>
      <point x="397" y="540" type="curve" smooth="yes"/>
      <point x="397" y="578"/>
      <point x="368" y="609"/>
      <point x="324" y="609" type="curve" smooth="yes"/>
      <point x="276" y="609"/>
      <point x="252" y="578"/>
      <point x="252" y="540" type="curve" smooth="yes"/>
      <point x="252" y="506"/>
      <point x="280" y="478"/>
    </contour>
    <contour>
      <point x="378" y="368" type="curve"/>
      <point x="515" y="218" type="line"/>
      <point x="548" y="253"/>
      <point x="578" y="292"/>
      <point x="606" y="334" type="curve"/>
      <point x="696" y="268" type="line"/>
      <point x="665" y="224"/>
      <point x="630" y="178"/>
      <point x="589" y="136" type="curve"/>
      <point x="712" y="0" type="line"/>
      <point x="561" y="0" type="line"/>
      <point x="504" y="63" type="line"/>
      <point x="439" y="18"/>
      <point x="365" y="-12"/>
      <point x="278" y="-12" type="curve" smooth="yes"/>
      <point x="150" y="-12"/>
      <point x="40" y="62"/>
      <point x="40" y="186" type="curve" smooth="yes"/>
      <point x="40" y="302"/>
      <point x="134" y="355"/>
      <point x="211" y="389" type="curve"/>
      <point x="171" y="434"/>
      <point x="124" y="483"/>
      <point x="124" y="548" type="curve" smooth="yes"/>
      <point x="124" y="638"/>
      <point x="202" y="716"/>
      <point x="326" y="716" type="curve" smooth="yes"/>
      <point x="448" y="716"/>
      <point x="518" y="634"/>
      <point x="518" y="550" type="curve" smooth="yes"/>
      <point x="518" y="473"/>
      <point x="468" y="428"/>
    </contour>
    <contour>
      <point x="279" y="313" type="line"/>
      <point x="225" y="286"/>
      <point x="176" y="256"/>
      <point x="176" y="197" type="curve" smooth="yes"/>
      <point x="176" y="141"/>
      <point x="222" y="99"/>
      <point x="294" y="99" type="curve" smooth="yes"/>
      <point x="341" y="99"/>
      <point x="387" y="116"/>
      <point x="430" y="145" type="curve"/>
    </contour>
  </outline>
</glyph>
<glyph name="asterisk" format="1">
  <advance width="592"/>
  <unicode hex="002A"/>
  <outline>
    <contour>
      <point x="236" y="700" type="line"/>
      <point x="356" y="700" type="line"/>
      <point x="337" y="532" type="line"/>
      <point x="490" y="602" type="line"/>
      <point x="527" y="490" type="line"/>
      <point x="361" y="455" type="line"/>
      <point x="476" y="331" type="line"/>
      <point x="379" y="262" type="line"/>
      <point x="296" y="408" type="line"/>
      <point x="213" y="262" type="line"/>
      <point x="116" y="331" type="line"/>
      <point x="231" y="455" type="line"/>
      <point x="65" y="490" type="line"/>
      <point x="102" y="602" type="line"/>
      <point x="255" y="532" type="line"/>
    </contour>
  </outline>
</glyph>
<glyph name="plus" format="1">
  <advance width="656"/>
  <unicode hex="002B"/>
  <outline>
    <contour>
      <point x="260" y="528" type="line"/>
      <point x="396" y="528" type="line"/>
      <point x="396" y="328" type="line"/>
      <point x="592" y="328" type="line"/>
      <point x="592" y="202" type="line"/>
      <point x="396" y="202" type="line"/>
      <point x="396" y="2" type="line"/>
      <point x="260" y="2" type="line"/>
      <point x="260" y="202" type="line"/>
      <point x="65" y="202" type="line"/>
      <point x="65" y="328" type="line"/>
      <point x="260" y="328" type="line"/>
    </contour>
  </outline>
</glyph>
<glyph name="three" format="1">
  <advance width="598"/>
  <unicode hex="0033"/>
  <outline>
    <contour>
      <point x="308" y="-14" type="curve" smooth="yes"/>
      <point x="148" y="-14"/>
      <point x="52" y="91"/>
      <point x="52" y="211" type="curve"/>
      <point x="194" y="211" type="line"/>
      <point x="194" y="143"/>
      <point x="248" y="105"/>
      <point x="312" y="105" type="curve" smooth="yes"/>
      <point x="376" y="105"/>
      <point x="421" y="139"/>
      <point x="421" y="204" type="curve" smooth="yes"/>
      <point x="421" y="270"/>
      <point x="366" y="312"/>
      <point x="268" y="312" type="curve"/>
      <point x="268" y="340" type="line"/>
      <point x="268" y="388" type="line"/>
      <point x="268" y="410" type="line"/>
      <point x="350" y="410"/>
      <point x="401" y="457"/>
      <point x="401" y="512" type="curve" smooth="yes"/>
      <point x="401" y="560"/>
      <point x="372" y="594"/>
      <point x="314" y="594" type="curve" smooth="yes"/>
      <point x="258" y="594"/>
      <point x="215" y="556"/>
      <point x="215" y="504" type="curve"/>
      <point x="82" y="504" type="line"/>
      <point x="82" y="624"/>
      <point x="174" y="712"/>
      <point x="314" y="712" type="curve" smooth="yes"/>
      <point x="460" y="712"/>
      <point x="544" y="626"/>
      <point x="544" y="520" type="curve" smooth="yes"/>
      <point x="544" y="449"/>
      <point x="497" y="396"/>
      <point x="424" y="367" type="curve"/>
      <point x="510" y="339"/>
      <point x="564" y="283"/>
      <point x="564" y="190" type="curve" smooth="yes"/>
      <point x="564" y="69"/>
      <point x="466" y="-14"/>
    </contour>
  </outline>
</glyph>
<glyph name="four" format="1">
  <advance width="663"/>
  <unicode hex="0034"/>
  <outline>
    <contour>
      <point x="380" y="237" type="line"/>
      <point x="380" y="471" type="line"/>
      <point x="214" y="237" type="line"/>
    </contour>
    <contour>
      <point x="515" y="129" type="line"/>
      <point x="515" y="0" type="line"/>
      <point x="366" y="0" type="line"/>
      <point x="366" y="129" type="line"/>
      <point x="16" y="129" type="line"/>
      <point x="416" y="700" type="line"/>
      <point x="515" y="700" type="line"/>
      <point x="515" y="252" type="line"/>
      <point x="625" y="252" type="line"/>
      <point x="625" y="129" type="line"/>
    </contour>
  </outline>
</glyph>
<glyph name="five" format="1">
  <advance width="620"/>
  <unicode hex="0035"/>
  <outline>
    <contour>
      <point x="580" y="226" type="curve" smooth="yes"/>
      <point x="580" y="62"/>
      <point x="444" y="-12"/>
      <point x="309" y="-12" type="curve" smooth="yes"/>
      <point x="180" y="-12"/>
      <point x="98" y="38"/>
      <point x="38" y="96" type="curve"/>
      <point x="106" y="208" type="line"/>
      <point x="154" y="156"/>
      <point x="224" y="120"/>
      <point x="284" y="120" type="curve" smooth="yes"/>
      <point x="373" y="120"/>
      <point x="425" y="162"/>
      <point x="425" y="238" type="curve" smooth="yes"/>
      <point x="425" y="314"/>
      <point x="358" y="355"/>
      <point x="284" y="355" type="curve" smooth="yes"/>
      <point x="226" y="355"/>
      <point x="163" y="345"/>
      <point x="92" y="305" type="curve"/>
      <point x="188" y="700" type="line"/>
      <point x="570" y="700" type="line"/>
      <point x="570" y="574" type="line"/>
      <point x="290" y="574" type="line"/>
      <point x="256" y="440" type="line"/>
      <point x="291" y="454"/>
      <point x="329" y="457"/>
      <point x="369" y="457" type="curve" smooth="yes"/>
      <point x="482" y="457"/>
      <point x="580" y="370"/>
    </contour>
  </outline>
</glyph>
<glyph name="eight" format="1">
  <advance width="602"/>
  <unicode hex="0038"/>
  <outline>
    <contour>
      <point x="78" y="531" type="curve" smooth="yes"/>
      <point x="78" y="643"/>
      <point x="178" y="714"/>
      <point x="302" y="714" type="curve" smooth="yes"/>
      <point x="426" y="714"/>
      <point x="525" y="643"/>
      <point x="525" y="531" type="curve" smooth="yes"/>
      <point x="525" y="454"/>
      <point x="482" y="400"/>
      <point x="421" y="371" type="curve"/>
      <point x="493" y="342"/>
      <point x="550" y="283"/>
      <point x="550" y="190" type="curve" smooth="yes"/>
      <point x="550" y="68"/>
      <point x="436" y="-14"/>
      <point x="302" y="-14" type="curve" smooth="yes"/>
      <point x="168" y="-14"/>
      <point x="53" y="68"/>
      <point x="53" y="190" type="curve" smooth="yes"/>
      <point x="53" y="283"/>
      <point x="111" y="342"/>
      <point x="183" y="371" type="curve"/>
      <point x="122" y="400"/>
      <point x="78" y="454"/>
    </contour>
    <contour>
      <point x="214" y="516" type="curve" smooth="yes"/>
      <point x="214" y="464"/>
      <point x="253" y="428"/>
      <point x="302" y="428" type="curve" smooth="yes"/>
      <point x="351" y="428"/>
      <point x="390" y="464"/>
      <point x="390" y="516" type="curve" smooth="yes"/>
      <point x="390" y="568"/>
      <point x="354" y="606"/>
      <point x="302" y="606" type="curve" smooth="yes"/>
      <point x="250" y="606"/>
      <point x="214" y="568"/>
    </contour>
    <contour>
      <point x="195" y="211" type="curve" smooth="yes"/>
      <point x="195" y="143"/>
      <point x="246" y="105"/>
      <point x="302" y="105" type="curve" smooth="yes"/>
      <point x="358" y="105"/>
      <point x="408" y="143"/>
      <point x="408" y="211" type="curve" smooth="yes"/>
      <point x="408" y="269"/>
      <point x="358" y="316"/>
      <point x="302" y="316" type="curve" smooth="yes"/>
      <point x="246" y="316"/>
      <point x="195" y="269"/>
    </contour>
  </outline>
</glyph>
<glyph name="A" format="1">
  <advance width="712"/>
  <unicode hex="0041"/>
  <outline>
    <contour>
      <point x="270" y="272" type="line"/>
      <point x="442" y="272" type="line"/>
      <point x="356" y="472" type="line"/>
    </contour>
    <contour>
      <point x="236" y="158" type="line"/>
      <point x="163" y="0" type="line"/>
      <point x="0" y="0" type="line"/>
      <point x="356" y="742" type="line"/>
      <point x="712" y="0" type="line"/>
      <point x="549" y="0" type="line"/>
      <point x="476" y="158" type="line"/>
    </contour>
  </outline>
</glyph>
<glyph name="B" format="1">
  <advance width="632"/>
  <unicode hex="0042"/>
  <outline>
    <contour>
      <point x="220" y="316" type="line"/>
      <point x="220" y="115" type="line"/>
      <point x="312" y="115" type="line" smooth="yes"/>
      <point x="384" y="115"/>
      <point x="438" y="145"/>
      <point x="438" y="217" type="curve" smooth="yes"/>
      <point x="438" y="285"/>
      <point x="384" y="316"/>
      <point x="312" y="316" type="curve" smooth="yes"/>
    </contour>
    <contour>
      <point x="220" y="585" type="line"/>
      <point x="220" y="420" type="line"/>
      <point x="297" y="420" type="line" smooth="yes"/>
      <point x="359" y="420"/>
      <point x="398" y="452"/>
      <point x="398" y="504" type="curve" smooth="yes"/>
      <point x="398" y="556"/>
      <point x="359" y="585"/>
      <point x="297" y="585" type="curve" smooth="yes"/>
    </contour>
    <contour>
      <point x="220" y="700" type="line"/>
      <point x="310" y="700" type="line" smooth="yes"/>
      <point x="448" y="700"/>
      <point x="546" y="642"/>
      <point x="546" y="523" type="curve" smooth="yes"/>
      <point x="546" y="454"/>
      <point x="506" y="405"/>
      <point x="442" y="378" type="curve"/>
      <point x="525" y="353"/>
      <point x="586" y="296"/>
      <point x="586" y="200" type="curve" smooth="yes"/>
      <point x="586" y="61"/>
      <point x="481" y="0"/>
      <point x="324" y="0" type="curve" smooth="yes"/>
      <point x="220" y="0" type="line"/>
      <point x="172" y="0" type="line"/>
      <point x="76" y="0" type="line"/>
      <point x="76" y="700" type="line"/>
      <point x="172" y="700" type="line"/>
    </contour>
  </outline>
</glyph>
<glyph name="E" format="1">
  <advance width="587"/>
  <unicode hex="0045"/>
  <outline>
    <contour>
      <point x="216" y="312" type="line"/>
      <point x="216" y="122" type="line"/>
      <point x="522" y="122" type="line"/>
      <point x="522" y="0" type="line"/>
      <point x="216" y="0" type="line"/>
      <point x="168" y="0" type="line"/>
      <point x="76" y="0" type="line"/>
      <point x="76" y="700" type="line"/>
      <point x="168" y="700" type="line"/>
      <point x="216" y="700" type="line"/>
      <point x="522" y="700" type="line"/>
      <point x="522" y="578" type="line"/>
      <point x="216" y="578" type="line"/>
      <point x="216" y="431" type="line"/>
      <point x="502" y="431" type="line"/>
      <point x="502" y="312" type="line"/>
    </contour>
  </outline>
</glyph>
<glyph name="K" format="1">
  <advance width="659"/>
  <unicode hex="004B"/>
  <outline>
    <contour>
      <point x="473" y="700" type="line"/>
      <point x="644" y="700" type="line"/>
      <point x="354" y="372" type="line"/>
      <point x="658" y="0" type="line"/>
      <point x="484" y="0" type="line"/>
      <point x="224" y="317" type="line"/>
      <point x="224" y="0" type="line"/>
      <point x="76" y="0" type="line"/>
      <point x="76" y="700" type="line"/>
      <point x="224" y="700" type="line"/>
      <point x="224" y="416" type="line"/>
    </contour>
  </outline>
</glyph>
<glyph name="M" format="1">
  <advance width="866"/>
  <unicode hex="004D"/>
  <outline>
    <contour>
      <point x="231" y="386" type="line"/>
      <point x="186" y="0" type="line"/>
      <point x="36" y="0" type="line"/>
      <point x="140" y="735" type="line"/>
      <point x="434" y="284" type="line"/>
      <point x="726" y="735" type="line"/>
      <point x="832" y="0" type="line"/>
      <point x="680" y="0" type="line"/>
      <point x="635" y="386" type="line"/>
      <point x="434" y="65" type="line"/>
    </contour>
  </outline>
</glyph>
<glyph name="Q" format="1">
  <advance width="841"/>
  <unicode hex="0051"/>
  <outline>
    <contour>
      <point x="36" y="350" type="curve" smooth="yes"/>
      <point x="36" y="562"/>
      <point x="197" y="714"/>
      <point x="408" y="714" type="curve" smooth="yes"/>
      <point x="620" y="714"/>
      <point x="776" y="562"/>
      <point x="776" y="350" type="curve" smooth="yes"/>
      <point x="776" y="263"/>
      <point x="750" y="186"/>
      <point x="705" y="125" type="curve"/>
      <point x="846" y="-8" type="line"/>
      <point x="685" y="-8" type="line"/>
      <point x="627" y="48" type="line"/>
      <point x="567" y="6"/>
      <point x="492" y="-18"/>
      <point x="408" y="-18" type="curve" smooth="yes"/>
      <point x="193" y="-18"/>
      <point x="36" y="138"/>
    </contour>
    <contour>
      <point x="363" y="300" type="line"/>
      <point x="519" y="300" type="line"/>
      <point x="607" y="217" type="line"/>
      <point x="626" y="251"/>
      <point x="637" y="291"/>
      <point x="637" y="336" type="curve" smooth="yes"/>
      <point x="637" y="470"/>
      <point x="548" y="580"/>
      <point x="408" y="580" type="curve" smooth="yes"/>
      <point x="280" y="580"/>
      <point x="188" y="484"/>
      <point x="188" y="350" type="curve" smooth="yes"/>
      <point x="188" y="208"/>
      <point x="289" y="112"/>
      <point x="417" y="112" type="curve" smooth="yes"/>
      <point x="459" y="112"/>
      <point x="498" y="122"/>
      <point x="530" y="140" type="curve"/>
    </contour>
  </outline>
</glyph>
<glyph name="Z" format="1">
  <advance width="597"/>
  <unicode hex="005A"/>
  <outline>
    <contour>
      <point x="50" y="570" type="line"/>
      <point x="50" y="700" type="line"/>
      <point x="582" y="700" type="line"/>
      <point x="238" y="126" type="line"/>
      <point x="550" y="126" type="line"/>
      <point x="550" y="0" type="line"/>
      <point x="10" y="0" type="line"/>
      <point x="352" y="570" type="line"/>
    </contour>
  </outline>
</glyph>
<glyph name="backslash" format="1">
  <advance width="536"/>
  <unicode hex="005C"/>
  <outline>
    <contour>
      <point x="15" y="700" type="line"/>
      <point x="144" y="700" type="line"/>
      <point x="522" y="0" type="line"/>
      <point x="393" y="0" type="line"/>
    </contour>
  </outline>
</glyph>
<glyph name="bracketright" format="1">
  <advance width="343"/>
  <unicode hex="005D"/>
  <outline>
    <contour>
      <point x="121" y="-105" type="line"/>
      <point x="121" y="665" type="line"/>
      <point x="20" y="665" type="line"/>
      <point x="20" y="780" type="line"/>
      <point x="250" y="780" type="line"/>
      <point x="250" y="-220" type="line"/>
      <point x="20" y="-220" type="line"/>
      <point x="20" y="-105" type="line"/>
    </contour>
  </outline>
</glyph>
<glyph name="b" format="1">
  <advance width="602"/>
  <unicode hex="0062"/>
  <outline>
    <contour>
      <point x="570" y="230" type="curve" smooth="yes"/>
      <point x="570" y="76"/>
      <point x="464" y="-10"/>
      <point x="348" y="-10" type="curve" smooth="yes"/>
      <point x="282" y="-10"/>
      <point x="227" y="19"/>
      <point x="192" y="73" type="curve"/>
      <point x="192" y="0" type="line"/>
      <point x="62" y="0" type="line"/>
      <point x="62" y="780" type="line"/>
      <point x="192" y="780" type="line"/>
      <point x="192" y="387" type="line"/>
      <point x="227" y="441"/>
      <point x="282" y="470"/>
      <point x="348" y="470" type="curve" smooth="yes"/>
      <point x="464" y="470"/>
      <point x="570" y="384"/>
    </contour>
    <contour>
      <point x="434" y="230" type="curve" smooth="yes"/>
      <point x="434" y="312"/>
      <point x="378" y="362"/>
      <point x="310" y="362" type="curve" smooth="yes"/>
      <point x="254" y="362"/>
      <point x="192" y="314"/>
      <point x="192" y="230" type="curve" smooth="yes"/>
      <point x="192" y="146"/>
      <point x="254" y="98"/>
      <point x="310" y="98" type="curve" smooth="yes"/>
      <point x="378" y="98"/>
      <point x="434" y="148"/>
    </contour>
  </outline>
</glyph>
<glyph name="e" format="1">
  <advance width="550"/>
  <unicode hex="0065"/>
  <outline>
    <contour>
      <point x="387" y="284" type="line"/>
      <point x="377" y="340"/>
      <point x="342" y="374"/>
      <point x="280" y="374" type="curve" smooth="yes"/>
      <point x="220" y="374"/>
      <point x="176" y="341"/>
      <point x="165" y="284" type="curve"/>
    </contour>
    <contour>
      <point x="162" y="202" type="line"/>
      <point x="173" y="129"/>
      <point x="226" y="92"/>
      <point x="292" y="92" type="curve" smooth="yes"/>
      <point x="345" y="92"/>
      <point x="376" y="114"/>
      <point x="398" y="155" type="curve"/>
      <point x="508" y="115" type="line"/>
      <point x="467" y="41"/>
      <point x="414" y="-10"/>
      <point x="286" y="-10" type="curve" smooth="yes"/>
      <point x="141" y="-10"/>
      <point x="36" y="91"/>
      <point x="36" y="230" type="curve" smooth="yes"/>
      <point x="36" y="247"/>
      <point x="37" y="264"/>
      <point x="40" y="280" type="curve" smooth="yes"/>
      <point x="59" y="393"/>
      <point x="151" y="470"/>
      <point x="282" y="470" type="curve" smooth="yes"/>
      <point x="418" y="470"/>
      <point x="514" y="381"/>
      <point x="514" y="236" type="curve" smooth="yes"/>
      <point x="514" y="228"/>
      <point x="514" y="216"/>
      <point x="512" y="202" type="curve"/>
    </contour>
  </outline>
</glyph>
<glyph name="f" format="1">
  <advance width="326"/>
  <unicode hex="0066"/>
  <outline>
    <contour>
      <point x="300" y="649" type="line"/>
      <point x="286" y="669"/>
      <point x="271" y="675"/>
      <point x="253" y="675" type="curve" smooth="yes"/>
      <point x="223" y="675"/>
      <point x="205" y="652"/>
      <point x="205" y="600" type="curve" smooth="yes"/>
      <point x="205" y="460" type="line"/>
      <point x="314" y="460" type="line"/>
      <point x="314" y="350" type="line"/>
      <point x="205" y="350" type="line"/>
      <point x="205" y="0" type="line"/>
      <point x="78" y="0" type="line"/>
      <point x="78" y="350" type="line"/>
      <point x="24" y="350" type="line"/>
      <point x="24" y="460" type="line"/>
      <point x="78" y="460" type="line"/>
      <point x="78" y="630" type="line" smooth="yes"/>
      <point x="78" y="734"/>
      <point x="134" y="794"/>
      <point x="240" y="794" type="curve" smooth="yes"/>
      <point x="300" y="794"/>
      <point x="335" y="767"/>
      <point x="355" y="747" type="curve"/>
    </contour>
  </outline>
</glyph>
<glyph name="h" format="1">
  <advance width="555"/>
  <unicode hex="0068"/>
  <outline>
    <contour>
      <point x="362" y="280" type="line" smooth="yes"/>
      <point x="362" y="340"/>
      <point x="340" y="374"/>
      <point x="286" y="374" type="curve" smooth="yes"/>
      <point x="232" y="374"/>
      <point x="195" y="338"/>
      <point x="195" y="280" type="curve" smooth="yes"/>
      <point x="195" y="0" type="line"/>
      <point x="64" y="0" type="line"/>
      <point x="64" y="780" type="line"/>
      <point x="195" y="780" type="line"/>
      <point x="195" y="394" type="line"/>
      <point x="222" y="443"/>
      <point x="268" y="475"/>
      <point x="334" y="475" type="curve" smooth="yes"/>
      <point x="442" y="475"/>
      <point x="492" y="412"/>
      <point x="492" y="298" type="curve" smooth="yes"/>
      <point x="492" y="0" type="line"/>
      <point x="362" y="0" type="line"/>
    </contour>
  </outline>
</glyph>
<glyph name="j" format="1">
  <advance width="264"/>
  <unicode hex="006A"/>
  <outline>
    <contour>
      <point x="52" y="638" type="curve" smooth="yes"/>
      <point x="52" y="680"/>
      <point x="86" y="712"/>
      <point x="130" y="712" type="curve" smooth="yes"/>
      <point x="174" y="712"/>
      <point x="208" y="680"/>
      <point x="208" y="638" type="curve" smooth="yes"/>
      <point x="208" y="596"/>
      <point x="174" y="564"/>
      <point x="130" y="564" type="curve" smooth="yes"/>
      <point x="86" y="564"/>
      <point x="52" y="596"/>
    </contour>
    <contour>
      <point x="-29" y="-88" type="line"/>
      <point x="-15" y="-108"/>
      <point x="0" y="-114"/>
      <point x="18" y="-114" type="curve" smooth="yes"/>
      <point x="48" y="-114"/>
      <point x="66" y="-91"/>
      <point x="66" y="-39" type="curve" smooth="yes"/>
      <point x="66" y="460" type="line"/>
      <point x="193" y="460" type="line"/>
      <point x="193" y="-68" type="line" smooth="yes"/>
      <point x="193" y="-172"/>
      <point x="138" y="-234"/>
      <point x="32" y="-234" type="curve" smooth="yes"/>
      <point x="-28" y="-234"/>
      <point x="-64" y="-206"/>
      <point x="-84" y="-186" type="curve"/>
    </contour>
  </outline>
</glyph>
<glyph name="k" format="1">
  <advance width="536"/>
  <unicode hex="006B"/>
  <outline>
    <contour>
      <point x="355" y="460" type="line"/>
      <point x="512" y="460" type="line"/>
      <point x="314" y="270" type="line"/>
      <point x="532" y="0" type="line"/>
      <point x="377" y="0" type="line"/>
      <point x="187" y="234" type="line"/>
      <point x="187" y="0" type="line"/>
      <point x="62" y="0" type="line"/>
      <point x="62" y="780" type="line"/>
      <point x="187" y="780" type="line"/>
      <point x="187" y="298" type="line"/>
    </contour>
  </outline>
</glyph>
<glyph name="m" format="1">
  <advance width="808"/>
  <unicode hex="006D"/>
  <outline>
    <contour>
      <point x="745" y="294" type="curve" smooth="yes"/>
      <point x="745" y="0" type="line"/>
      <point x="614" y="0" type="line"/>
      <point x="614" y="280" type="line" smooth="yes"/>
      <point x="614" y="340"/>
      <point x="596" y="374"/>
      <point x="546" y="374" type="curve" smooth="yes"/>
      <point x="496" y="374"/>
      <point x="467" y="338"/>
      <point x="467" y="280" type="curve" smooth="yes"/>
      <point x="467" y="0" type="line"/>
      <point x="336" y="0" type="line"/>
      <point x="336" y="280" type="line" smooth="yes"/>
      <point x="336" y="340"/>
      <point x="319" y="374"/>
      <point x="269" y="374" type="curve" smooth="yes"/>
      <point x="219" y="374"/>
      <point x="190" y="338"/>
      <point x="190" y="280" type="curve" smooth="yes"/>
      <point x="190" y="0" type="line"/>
      <point x="64" y="0" type="line"/>
      <point x="64" y="460" type="line"/>
      <point x="190" y="460" type="line"/>
      <point x="190" y="393" type="line"/>
      <point x="215" y="440"/>
      <point x="259" y="470"/>
      <point x="321" y="470" type="curve" smooth="yes"/>
      <point x="391" y="470"/>
      <point x="433" y="444"/>
      <point x="453" y="392" type="curve"/>
      <point x="485" y="440"/>
      <point x="536" y="470"/>
      <point x="598" y="470" type="curve" smooth="yes"/>
      <point x="702" y="470"/>
      <point x="745" y="408"/>
    </contour>
  </outline>
</glyph>
<glyph name="p" format="1">
  <advance width="602"/>
  <unicode hex="0070"/>
  <outline>
    <contour>
      <point x="570" y="230" type="curve" smooth="yes"/>
      <point x="570" y="72"/>
      <point x="464" y="-14"/>
      <point x="348" y="-14" type="curve" smooth="yes"/>
      <point x="278" y="-14"/>
      <point x="225" y="18"/>
      <point x="192" y="74" type="curve"/>
      <point x="192" y="-220" type="line"/>
      <point x="62" y="-220" type="line"/>
      <point x="62" y="460" type="line"/>
      <point x="192" y="460" type="line"/>
      <point x="192" y="386" type="line"/>
      <point x="225" y="442"/>
      <point x="278" y="474"/>
      <point x="348" y="474" type="curve" smooth="yes"/>
      <point x="464" y="474"/>
      <point x="570" y="388"/>
    </contour>
    <contour>
      <point x="434" y="230" type="curve" smooth="yes"/>
      <point x="434" y="312"/>
      <point x="378" y="358"/>
      <point x="310" y="358" type="curve" smooth="yes"/>
      <point x="254" y="358"/>
      <point x="192" y="314"/>
      <point x="192" y="230" type="curve" smooth="yes"/>
      <point x="192" y="146"/>
      <point x="254" y="102"/>
      <point x="310" y="102" type="curve" smooth="yes"/>
      <point x="378" y="102"/>
      <point x="434" y="148"/>
    </contour>
  </outline>
</glyph>
<glyph name="r" format="1">
  <advance width="390"/>
  <unicode hex="0072"/>
  <outline>
    <contour>
      <point x="327" y="324" type="line"/>
      <point x="309" y="340"/>
      <point x="293" y="350"/>
      <point x="267" y="350" type="curve" smooth="yes"/>
      <point x="218" y="350"/>
      <point x="192" y="309"/>
      <point x="192" y="243" type="curve" smooth="yes"/>
      <point x="192" y="0" type="line"/>
      <point x="64" y="0" type="line"/>
      <point x="64" y="460" type="line"/>
      <point x="192" y="460" type="line"/>
      <point x="192" y="403" type="line"/>
      <point x="220" y="444"/>
      <point x="261" y="470"/>
      <point x="302" y="470" type="curve" smooth="yes"/>
      <point x="335" y="470"/>
      <point x="368" y="458"/>
      <point x="386" y="434" type="curve"/>
    </contour>
  </outline>
</glyph>
<glyph name="s" format="1">
  <advance width="436"/>
  <unicode hex="0073"/>
  <outline>
    <contour>
      <point x="85" y="170" type="line"/>
      <point x="139" y="122"/>
      <point x="193" y="88"/>
      <point x="230" y="88" type="curve" smooth="yes"/>
      <point x="264" y="88"/>
      <point x="284" y="100"/>
      <point x="284" y="126" type="curve" smooth="yes"/>
      <point x="284" y="160"/>
      <point x="236" y="178"/>
      <point x="184" y="198" type="curve" smooth="yes"/>
      <point x="120" y="222"/>
      <point x="54" y="256"/>
      <point x="54" y="342" type="curve" smooth="yes"/>
      <point x="54" y="418"/>
      <point x="127" y="470"/>
      <point x="217" y="470" type="curve" smooth="yes"/>
      <point x="294" y="470"/>
      <point x="362" y="438"/>
      <point x="402" y="394" type="curve"/>
      <point x="345" y="316" type="line"/>
      <point x="307" y="350"/>
      <point x="263" y="372"/>
      <point x="226" y="372" type="curve" smooth="yes"/>
      <point x="191" y="372"/>
      <point x="172" y="360"/>
      <point x="172" y="338" type="curve" smooth="yes"/>
      <point x="172" y="305"/>
      <point x="229" y="294"/>
      <point x="284" y="272" type="curve" smooth="yes"/>
      <point x="349" y="246"/>
      <point x="411" y="214"/>
      <point x="411" y="130" type="curve" smooth="yes"/>
      <point x="411" y="34"/>
      <point x="344" y="-16"/>
      <point x="240" y="-16" type="curve" smooth="yes"/>
      <point x="148" y="-16"/>
      <point x="69" y="29"/>
      <point x="21" y="92" type="curve"/>
    </contour>
  </outline>
</glyph>
<glyph name="u" format="1">
  <advance width="560"/>
  <unicode hex="0075"/>
  <outline>
    <contour>
      <point x="199" y="180" type="line" smooth="yes"/>
      <point x="199" y="120"/>
      <point x="221" y="86"/>
      <point x="275" y="86" type="curve" smooth="yes"/>
      <point x="329" y="86"/>
      <point x="366" y="122"/>
      <point x="366" y="180" type="curve" smooth="yes"/>
      <point x="366" y="460" type="line"/>
      <point x="496" y="460" type="line"/>
      <point x="496" y="0" type="line"/>
      <point x="366" y="0" type="line"/>
      <point x="366" y="71" type="line"/>
      <point x="339" y="22"/>
      <point x="292" y="-10"/>
      <point x="226" y="-10" type="curve" smooth="yes"/>
      <point x="118" y="-10"/>
      <point x="64" y="52"/>
      <point x="64" y="166" type="curve" smooth="yes"/>
      <point x="64" y="460" type="line"/>
      <point x="199" y="460" type="line"/>
    </contour>
  </outline>
</glyph>
<glyph name="w" format="1">
  <advance width="736"/>
  <unicode hex="0077"/>
  <outline>
    <contour>
      <point x="-4" y="460" type="line"/>
      <point x="135" y="460" type="line"/>
      <point x="235" y="206" type="line"/>
      <point x="365" y="495" type="line"/>
      <point x="501" y="205" type="line"/>
      <point x="602" y="460" type="line"/>
      <point x="740" y="460" type="line"/>
      <point x="515" y="-30" type="line"/>
      <point x="366" y="262" type="line"/>
      <point x="222" y="-30" type="line"/>
    </contour>
  </outline>
</glyph>
<glyph name="braceright" format="1">
  <advance width="372"/>
  <unicode hex="007D"/>
  <outline>
    <contour>
      <point x="138" y="-45" type="curve" smooth="yes"/>
      <point x="138" y="90" type="line" smooth="yes"/>
      <point x="138" y="164"/>
      <point x="140" y="259"/>
      <point x="215" y="290" type="curve"/>
      <point x="140" y="321"/>
      <point x="138" y="416"/>
      <point x="138" y="490" type="curve" smooth="yes"/>
      <point x="138" y="625" type="line" smooth="yes"/>
      <point x="138" y="651"/>
      <point x="120" y="675"/>
      <point x="90" y="675" type="curve" smooth="yes"/>
      <point x="56" y="675" type="line"/>
      <point x="56" y="780" type="line"/>
      <point x="136" y="780" type="line" smooth="yes"/>
      <point x="206" y="780"/>
      <point x="280" y="739"/>
      <point x="280" y="640" type="curve" smooth="yes"/>
      <point x="280" y="448" type="line" smooth="yes"/>
      <point x="280" y="372"/>
      <point x="298" y="348"/>
      <point x="336" y="338" type="curve"/>
      <point x="336" y="242" type="line"/>
      <point x="298" y="232"/>
      <point x="280" y="208"/>
      <point x="280" y="132" type="curve" smooth="yes"/>
      <point x="280" y="-60" type="line" smooth="yes"/>
      <point x="280" y="-159"/>
      <point x="206" y="-200"/>
      <point x="136" y="-200" type="curve" smooth="yes"/>
      <point x="56" y="-200" type="line"/>
      <point x="56" y="-95" type="line"/>
      <point x="90" y="-95" type="line" smooth="yes"/>
      <point x="120" y="-95"/>
      <point x="138" y="-71"/>
    </contour>
  </outline>
</glyph>
<glyph name="asciitilde" format="1">
  <advance width="575"/>
  <unicode hex="007E"/>
  <outline>
    <contour>
      <point x="152" y="168" type="curve"/>
      <point x="46" y="172" type="line"/>
      <point x="44" y="179"/>
      <point x="43" y="187"/>
      <point x="43" y="196" type="curve" smooth="yes"/>
      <point x="43" y="226"/>
      <point x="51" y="256"/>
      <point x="73" y="284" type="curve" smooth="yes"/>
      <point x="99" y="318"/>
      <point x="134" y="340"/>
      <point x="194" y="340" type="curve" smooth="yes"/>
      <point x="238" y="340"/>
      <point x="272" y="324"/>
      <point x="318" y="292" type="curve" smooth="yes"/>
      <point x="348" y="270"/>
      <point x="372" y="258"/>
      <point x="390" y="258" type="curve" smooth="yes"/>
      <point x="414" y="258"/>
      <point x="425" y="275"/>
      <point x="425" y="300" type="curve" smooth="yes"/>
      <point x="425" y="310"/>
      <point x="423" y="322"/>
      <point x="419" y="332" type="curve"/>
      <point x="528" y="326" type="line"/>
      <point x="530" y="318"/>
      <point x="532" y="308"/>
      <point x="532" y="298" type="curve" smooth="yes"/>
      <point x="532" y="270"/>
      <point x="527" y="238"/>
      <point x="505" y="210" type="curve" smooth="yes"/>
      <point x="479" y="176"/>
      <point x="448" y="158"/>
      <point x="398" y="158" type="curve" smooth="yes"/>
      <point x="360" y="158"/>
      <point x="325" y="176"/>
      <point x="277" y="208" type="curve" smooth="yes"/>
      <point x="247" y="230"/>
      <point x="218" y="242"/>
      <point x="193" y="242" type="curve" smooth="yes"/>
      <point x="160" y="242"/>
      <point x="146" y="220"/>
      <point x="146" y="194" type="curve" smooth="yes"/>
      <point x="146" y="182"/>
      <point x="149" y="176"/>
    </contour>
  </outline>
</glyph>
<glyph name="exclamdown" format="1">
  <advance width="330"/>
  <unicode hex="00A1"/>
  <outline>
    <contour>
      <point x="246" y="-234" type="line"/>
      <point x="84" y="-234" type="line"/>
      <point x="113" y="244" type="line"/>
      <point x="217" y="244" type="line"/>
    </contour>
    <contour>
      <point x="248" y="410" type="curve" smooth="yes"/>
      <point x="248" y="366"/>
      <point x="214" y="334"/>
      <point x="166" y="334" type="curve" smooth="yes"/>
      <point x="118" y="334"/>
      <point x="83" y="366"/>
      <point x="83" y="410" type="curve" smooth="yes"/>
      <point x="83" y="454"/>
      <point x="118" y="488"/>
      <point x="166" y="488" type="curve" smooth="yes"/>
      <point x="214" y="488"/>
      <point x="248" y="454"/>
    </contour>
  </outline>
</glyph>
<glyph name="cent" format="1">
  <advance width="580"/>
  <unicode hex="00A2"/>
  <outline>
    <contour>
      <point x="243" y="578" type="line"/>
      <point x="352" y="578" type="line"/>
      <point x="348" y="469" type="line"/>
      <point x="398" y="464"/>
      <point x="441" y="447"/>
      <point x="468" y="424" type="curve"/>
      <point x="468" y="289" type="line"/>
      <point x="442" y="329"/>
      <point x="392" y="364"/>
      <point x="326" y="364" type="curve" smooth="yes"/>
      <point x="254" y="364"/>
      <point x="192" y="308"/>
      <point x="192" y="230" type="curve" smooth="yes"/>
      <point x="192" y="148"/>
      <point x="254" y="96"/>
      <point x="326" y="96" type="curve" smooth="yes"/>
      <point x="392" y="96"/>
      <point x="442" y="131"/>
      <point x="468" y="171" type="curve"/>
      <point x="468" y="36" type="line"/>
      <point x="441" y="11"/>
      <point x="398" y="-5"/>
      <point x="348" y="-9" type="curve"/>
      <point x="352" y="-112" type="line"/>
      <point x="243" y="-112" type="line"/>
      <point x="247" y="-2" type="line"/>
      <point x="135" y="23"/>
      <point x="59" y="110"/>
      <point x="59" y="230" type="curve" smooth="yes"/>
      <point x="59" y="350"/>
      <point x="136" y="437"/>
      <point x="248" y="462" type="curve"/>
    </contour>
  </outline>
</glyph>
<glyph name="sterling" format="1">
  <advance width="601"/>
  <unicode hex="00A3"/>
  <outline>
    <contour>
      <point x="439" y="470" type="line"/>
      <point x="435" y="530"/>
      <point x="408" y="591"/>
      <point x="330" y="591" type="curve" smooth="yes"/>
      <point x="278" y="591"/>
      <point x="232" y="564"/>
      <point x="232" y="502" type="curve" smooth="yes"/>
      <point x="232" y="445"/>
      <point x="266" y="412"/>
      <point x="293" y="370" type="curve"/>
      <point x="440" y="370" type="line"/>
      <point x="440" y="278" type="line"/>
      <point x="324" y="278" type="line" smooth="yes"/>
      <point x="324" y="275"/>
      <point x="324" y="271"/>
      <point x="324" y="268" type="curve" smooth="yes"/>
      <point x="324" y="213"/>
      <point x="295" y="161"/>
      <point x="257" y="122" type="curve"/>
      <point x="532" y="122" type="line"/>
      <point x="532" y="0" type="line"/>
      <point x="56" y="0" type="line"/>
      <point x="154" y="102"/>
      <point x="198" y="179"/>
      <point x="198" y="275" type="curve" smooth="yes"/>
      <point x="198" y="276"/>
      <point x="198" y="277"/>
      <point x="198" y="278" type="curve" smooth="yes"/>
      <point x="67" y="278" type="line"/>
      <point x="67" y="370" type="line"/>
      <point x="159" y="370" type="line"/>
      <point x="129" y="409"/>
      <point x="94" y="449"/>
      <point x="94" y="520" type="curve" smooth="yes"/>
      <point x="94" y="639"/>
      <point x="198" y="710"/>
      <point x="326" y="710" type="curve" smooth="yes"/>
      <point x="472" y="710"/>
      <point x="551" y="599"/>
      <point x="556" y="515" type="curve"/>
    </contour>
  </outline>
</glyph>
<glyph name="currency" format="1">
  <advance width="577"/>
  <unicode hex="00A4"/>
  <outline>
    <contour>
      <point x="86" y="38" type="line"/>
      <point x="28" y="97" type="line"/>
      <point x="93" y="161" type="line"/>
      <point x="67" y="199"/>
      <point x="52" y="247"/>
      <point x="52" y="300" type="curve" smooth="yes"/>
      <point x="52" y="353"/>
      <point x="67" y="401"/>
      <point x="93" y="439" type="curve"/>
      <point x="28" y="503" type="line"/>
      <point x="86" y="562" type="line"/>
      <point x="151" y="497" type="line"/>
      <point x="190" y="524"/>
      <point x="237" y="540"/>
      <point x="290" y="540" type="curve" smooth="yes"/>
      <point x="342" y="540"/>
      <point x="389" y="525"/>
      <point x="428" y="498" type="curve"/>
      <point x="492" y="562" type="line"/>
      <point x="550" y="503" type="line"/>
      <point x="486" y="440" type="line"/>
      <point x="512" y="401"/>
      <point x="528" y="353"/>
      <point x="528" y="300" type="curve" smooth="yes"/>
      <point x="528" y="247"/>
      <point x="512" y="199"/>
      <point x="486" y="160" type="curve"/>
      <point x="550" y="97" type="line"/>
      <point x="492" y="38" type="line"/>
      <point x="428" y="102" type="line"/>
      <point x="389" y="75"/>
      <point x="342" y="60"/>
      <point x="290" y="60" type="curve" smooth="yes"/>
      <point x="237" y="60"/>
      <point x="190" y="76"/>
      <point x="151" y="103" type="curve"/>
    </contour>
    <contour>
      <point x="172" y="300" type="curve" smooth="yes"/>
      <point x="172" y="228"/>
      <point x="222" y="179"/>
      <point x="290" y="179" type="curve" smooth="yes"/>
      <point x="358" y="179"/>
      <point x="407" y="228"/>
      <point x="407" y="300" type="curve" smooth="yes"/>
      <point x="407" y="372"/>
      <point x="358" y="421"/>
      <point x="290" y="421" type="curve" smooth="yes"/>
      <point x="222" y="421"/>
      <point x="172" y="372"/>
    </contour>
  </outline>
</glyph>
<glyph name="section" format="1">
  <advance width="526"/>
  <unicode hex="00A7"/>
  <outline>
    <contour>
      <point x="243" y="430" type="curve"/>
      <point x="217" y="416"/>
      <point x="200" y="398"/>
      <point x="200" y="369" type="curve" smooth="yes"/>
      <point x="200" y="320"/>
      <point x="246" y="303"/>
      <point x="291" y="287" type="curve"/>
      <point x="313" y="301"/>
      <point x="328" y="324"/>
      <point x="328" y="350" type="curve" smooth="yes"/>
      <point x="328" y="393"/>
      <point x="286" y="413"/>
    </contour>
    <contour>
      <point x="118" y="170" type="line"/>
      <point x="156" y="118"/>
      <point x="215" y="91"/>
      <point x="259" y="91" type="curve" smooth="yes"/>
      <point x="301" y="91"/>
      <point x="322" y="106"/>
      <point x="322" y="132" type="curve" smooth="yes"/>
      <point x="322" y="168"/>
      <point x="276" y="182"/>
      <point x="222" y="200" type="curve" smooth="yes"/>
      <point x="150" y="222"/>
      <point x="76" y="265"/>
      <point x="76" y="342" type="curve" smooth="yes"/>
      <point x="76" y="399"/>
      <point x="113" y="439"/>
      <point x="169" y="461" type="curve"/>
      <point x="125" y="484"/>
      <point x="87" y="520"/>
      <point x="87" y="582" type="curve" smooth="yes"/>
      <point x="87" y="672"/>
      <point x="177" y="720"/>
      <point x="262" y="720" type="curve" smooth="yes"/>
      <point x="340" y="720"/>
      <point x="417" y="684"/>
      <point x="442" y="640" type="curve"/>
      <point x="373" y="558" type="line"/>
      <point x="347" y="590"/>
      <point x="300" y="609"/>
      <point x="268" y="609" type="curve" smooth="yes"/>
      <point x="232" y="609"/>
      <point x="212" y="597"/>
      <point x="212" y="575" type="curve" smooth="yes"/>
      <point x="212" y="546"/>
      <point x="263" y="533"/>
      <point x="316" y="515" type="curve" smooth="yes"/>
      <point x="389" y="491"/>
      <point x="450" y="448"/>
      <point x="450" y="376" type="curve" smooth="yes"/>
      <point x="450" y="315"/>
      <point x="417" y="276"/>
      <point x="368" y="254" type="curve"/>
      <point x="415" y="227"/>
      <point x="453" y="189"/>
      <point x="453" y="130" type="curve" smooth="yes"/>
      <point x="453" y="26"/>
      <point x="362" y="-18"/>
      <point x="263" y="-18" type="curve" smooth="yes"/>
      <point x="161" y="-18"/>
      <point x="84" y="28"/>
      <point x="48" y="90" type="curve"/>
    </contour>
  </outline>
</glyph>
<glyph name="dieresis" format="1">
  <advance width="498"/>
  <unicode hex="00A8"/>
  <outline>
    <contour>
      <point x="282" y="640" type="curve" smooth="yes"/>
      <point x="282" y="684"/>
      <point x="317" y="722"/>
      <point x="365" y="722" type="curve" smooth="yes"/>
      <point x="413" y="722"/>
      <point x="448" y="684"/>
      <point x="448" y="640" type="curve" smooth="yes"/>
      <point x="448" y="596"/>
      <point x="413" y="560"/>
      <point x="365" y="560" type="curve" smooth="yes"/>
      <point x="317" y="560"/>
      <point x="282" y="596"/>
    </contour>
    <contour>
      <point x="52" y="640" type="curve" smooth="yes"/>
      <point x="52" y="684"/>
      <point x="86" y="722"/>
      <point x="134" y="722" type="curve" smooth="yes"/>
      <point x="182" y="722"/>
      <point x="216" y="684"/>
      <point x="216" y="640" type="curve" smooth="yes"/>
      <point x="216" y="596"/>
      <point x="182" y="560"/>
      <point x="134" y="560" type="curve" smooth="yes"/>
      <point x="86" y="560"/>
      <point x="52" y="596"/>
    </contour>
  </outline>
</glyph>
<glyph name="copyright" format="1">
  <advance width="800"/>
  <unicode hex="00A9"/>
  <outline>
    <contour>
      <point x="274" y="350" type="curve" smooth="yes"/>
      <point x="274" y="266"/>
      <point x="333" y="214"/>
      <point x="409" y="214" type="curve" smooth="yes"/>
      <point x="468" y="214"/>
      <point x="509" y="240"/>
      <point x="537" y="272" type="curve"/>
      <point x="537" y="174" type="line"/>
      <point x="503" y="146"/>
      <point x="465" y="131"/>
      <point x="404" y="131" type="curve" smooth="yes"/>
      <point x="274" y="131"/>
      <point x="180" y="222"/>
      <point x="180" y="350" type="curve" smooth="yes"/>
      <point x="180" y="478"/>
      <point x="274" y="569"/>
      <point x="404" y="569" type="curve" smooth="yes"/>
      <point x="465" y="569"/>
      <point x="503" y="554"/>
      <point x="537" y="526" type="curve"/>
      <point x="537" y="428" type="line"/>
      <point x="509" y="460"/>
      <point x="468" y="486"/>
      <point x="409" y="486" type="curve" smooth="yes"/>
      <point x="333" y="486"/>
      <point x="274" y="434"/>
    </contour>
    <contour>
      <point x="95" y="350" type="curve" smooth="yes"/>
      <point x="95" y="172"/>
      <point x="227" y="40"/>
      <point x="400" y="40" type="curve" smooth="yes"/>
      <point x="573" y="40"/>
      <point x="705" y="172"/>
      <point x="705" y="350" type="curve" smooth="yes"/>
      <point x="705" y="528"/>
      <point x="573" y="660"/>
      <point x="400" y="660" type="curve" smooth="yes"/>
      <point x="227" y="660"/>
      <point x="95" y="528"/>
    </contour>
    <contour>
      <point x="40" y="350" type="curve" smooth="yes"/>
      <point x="40" y="559"/>
      <point x="196" y="710"/>
      <point x="400" y="710" type="curve" smooth="yes"/>
      <point x="604" y="710"/>
      <point x="760" y="559"/>
      <point x="760" y="350" type="curve" smooth="yes"/>
      <point x="760" y="141"/>
      <point x="604" y="-10"/>
      <point x="400" y="-10" type="curve" smooth="yes"/>
      <point x="196" y="-10"/>
      <point x="40" y="141"/>
    </contour>
  </outline>
</glyph>
<glyph name="ordfeminine" format="1">
  <advance width="260"/>
  <unicode hex="00AA"/>
  <outline>
    <contour>
      <point x="84" y="530" type="curve" smooth="yes"/>
      <point x="84" y="512"/>
      <point x="96" y="500"/>
      <point x="122" y="500" type="curve" smooth="yes"/>
      <point x="150" y="500"/>
      <point x="178" y="514"/>
      <point x="178" y="552" type="curve" smooth="yes"/>
      <point x="178" y="557" type="line"/>
      <point x="164" y="564"/>
      <point x="149" y="568"/>
      <point x="130" y="568" type="curve" smooth="yes"/>
      <point x="102" y="568"/>
      <point x="84" y="551"/>
    </contour>
    <contour>
      <point x="63" y="632" type="curve"/>
      <point x="39" y="678" type="line"/>
      <point x="63" y="690"/>
      <point x="98" y="705"/>
      <point x="140" y="705" type="curve" smooth="yes"/>
      <point x="199" y="705"/>
      <point x="240" y="679"/>
      <point x="240" y="632" type="curve" smooth="yes"/>
      <point x="240" y="460" type="line"/>
      <point x="178" y="460" type="line"/>
      <point x="178" y="493" type="line"/>
      <point x="164" y="469"/>
      <point x="135" y="455"/>
      <point x="100" y="455" type="curve" smooth="yes"/>
      <point x="54" y="455"/>
      <point x="18" y="482"/>
      <point x="18" y="529" type="curve" smooth="yes"/>
      <point x="18" y="575"/>
      <point x="64" y="606"/>
      <point x="118" y="606" type="curve" smooth="yes"/>
      <point x="142" y="606"/>
      <point x="164" y="599"/>
      <point x="178" y="592" type="curve"/>
      <point x="178" y="618" type="line" smooth="yes"/>
      <point x="178" y="639"/>
      <point x="161" y="652"/>
      <point x="136" y="652" type="curve" smooth="yes"/>
      <point x="103" y="652"/>
      <point x="74" y="640"/>
    </contour>
  </outline>
</glyph>
<glyph name="guillemotleft" format="1">
  <advance width="531"/>
  <unicode hex="00AB"/>
  <outline>
    <contour>
      <point x="144" y="259" type="line"/>
      <point x="294" y="65" type="line"/>
      <point x="212" y="6" type="line"/>
      <point x="32" y="255" type="line"/>
      <point x="212" y="504" type="line"/>
      <point x="294" y="445" type="line"/>
    </contour>
    <contour>
      <point x="334" y="259" type="line"/>
      <point x="484" y="65" type="line"/>
      <point x="404" y="6" type="line"/>
      <point x="222" y="255" type="line"/>
      <point x="404" y="504" type="line"/>
      <point x="484" y="445" type="line"/>
    </contour>
  </outline>
</glyph>
<glyph name="uni00B3" format="1">
  <advance width="349"/>
  <unicode hex="00B3"/>
  <outline>
    <contour>
      <point x="174" y="271" type="curve" smooth="yes"/>
      <point x="78" y="271"/>
      <point x="20" y="335"/>
      <point x="20" y="407" type="curve"/>
      <point x="106" y="407" type="line"/>
      <point x="106" y="365"/>
      <point x="137" y="343"/>
      <point x="176" y="343" type="curve" smooth="yes"/>
      <point x="215" y="343"/>
      <point x="242" y="363"/>
      <point x="242" y="402" type="curve" smooth="yes"/>
      <point x="242" y="442"/>
      <point x="210" y="467"/>
      <point x="150" y="467" type="curve"/>
      <point x="150" y="485" type="line"/>
      <point x="150" y="513" type="line"/>
      <point x="150" y="526" type="line"/>
      <point x="198" y="526"/>
      <point x="230" y="555"/>
      <point x="230" y="588" type="curve" smooth="yes"/>
      <point x="230" y="618"/>
      <point x="213" y="637"/>
      <point x="178" y="637" type="curve" smooth="yes"/>
      <point x="144" y="637"/>
      <point x="118" y="614"/>
      <point x="118" y="582" type="curve"/>
      <point x="38" y="582" type="line"/>
      <point x="38" y="654"/>
      <point x="94" y="708"/>
      <point x="178" y="708" type="curve" smooth="yes"/>
      <point x="266" y="708"/>
      <point x="316" y="654"/>
      <point x="316" y="592" type="curve" smooth="yes"/>
      <point x="316" y="549"/>
      <point x="287" y="517"/>
      <point x="242" y="500" type="curve"/>
      <point x="294" y="483"/>
      <point x="328" y="449"/>
      <point x="328" y="393" type="curve" smooth="yes"/>
      <point x="328" y="321"/>
      <point x="268" y="271"/>
    </contour>
  </outline>
</glyph>
<glyph name="mu" format="1">
  <advance width="560"/>
  <unicode hex="00B5"/>
  <outline>
    <contour>
      <point x="199" y="180" type="line" smooth="yes"/>
      <point x="199" y="120"/>
      <point x="221" y="86"/>
      <point x="275" y="86" type="curve" smooth="yes"/>
      <point x="329" y="86"/>
      <point x="366" y="122"/>
      <point x="366" y="180" type="curve" smooth="yes"/>
      <point x="366" y="460" type="line"/>
      <point x="496" y="460" type="line"/>
      <point x="496" y="0" type="line"/>
      <point x="366" y="0" type="line"/>
      <point x="366" y="64" type="line"/>
      <point x="337" y="18"/>
      <point x="289" y="-10"/>
      <point x="226" y="-10" type="curve" smooth="yes"/>
      <point x="213" y="-10"/>
      <point x="201" y="-9"/>
      <point x="190" y="-7" type="curve"/>
      <point x="190" y="-320" type="line"/>
      <point x="64" y="-320" type="line"/>
      <point x="64" y="166" type="line"/>
      <point x="64" y="460" type="line"/>
      <point x="190" y="460" type="line"/>
      <point x="199" y="460" type="line"/>
    </contour>
  </outline>
</glyph>
<glyph name="cedilla" format="1">
  <advance width="380"/>
  <unicode hex="00B8"/>
  <outline>
    <contour>
      <point x="188" y="68" type="line"/>
      <point x="283" y="66" type="line"/>
      <point x="201" y="-54" type="line"/>
      <point x="211" y="-52"/>
      <point x="221" y="-52"/>
      <point x="232" y="-52" type="curve" smooth="yes"/>
      <point x="270" y="-52"/>
      <point x="318" y="-81"/>
      <point x="318" y="-142" type="curve" smooth="yes"/>
      <point x="318" y="-211"/>
      <point x="253" y="-246"/>
      <point x="193" y="-246" type="curve" smooth="yes"/>
      <point x="143" y="-246"/>
      <point x="108" y="-237"/>
      <point x="66" y="-207" type="curve"/>
      <point x="108" y="-148" type="line"/>
      <point x="132" y="-166"/>
      <point x="157" y="-172"/>
      <point x="179" y="-172" type="curve" smooth="yes"/>
      <point x="213" y="-172"/>
      <point x="232" y="-160"/>
      <point x="232" y="-136" type="curve" smooth="yes"/>
      <point x="232" y="-110"/>
      <point x="207" y="-102"/>
      <point x="175" y="-102" type="curve" smooth="yes"/>
      <point x="165" y="-102"/>
      <point x="132" y="-103"/>
      <point x="100" y="-119" type="curve"/>
    </contour>
  </outline>
</glyph>
<glyph name="uni00B9" format="1">
  <advance width="478"/>
  <unicode hex="00B9"/>
  <outline>
    <contour>
      <point x="138" y="584" type="line"/>
      <point x="138" y="662" type="line"/>
      <point x="324" y="702" type="line"/>
      <point x="324" y="274" type="line"/>
      <point x="240" y="274" type="line"/>
      <point x="240" y="610" type="line"/>
    </contour>
  </outline>
</glyph>
<glyph name="ordmasculine" format="1">
  <advance width="278"/>
  <unicode hex="00BA"/>
  <outline>
    <contour>
      <point x="20" y="580" type="curve" smooth="yes"/>
      <point x="20" y="652"/>
      <point x="72" y="700"/>
      <point x="146" y="700" type="curve" smooth="yes"/>
      <point x="220" y="700"/>
      <point x="275" y="652"/>
      <point x="275" y="580" type="curve" smooth="yes"/>
      <point x="275" y="508"/>
      <point x="220" y="460"/>
      <point x="146" y="460" type="curve" smooth="yes"/>
      <point x="72" y="460"/>
      <point x="20" y="508"/>
    </contour>
    <contour>
      <point x="85" y="580" type="curve" smooth="yes"/>
      <point x="85" y="540"/>
      <point x="112" y="516"/>
      <point x="146" y="516" type="curve" smooth="yes"/>
      <point x="180" y="516"/>
      <point x="208" y="540"/>
      <point x="208" y="580" type="curve" smooth="yes"/>
      <point x="208" y="620"/>
      <point x="180" y="645"/>
      <point x="146" y="645" type="curve" smooth="yes"/>
      <point x="112" y="645"/>
      <point x="85" y="620"/>
    </contour>
  </outline>
</glyph>
<glyph name="onequarter" format="1">
  <advance width="801"/>
  <unicode hex="00BC"/>
  <outline>
    <contour>
      <point x="623" y="142" type="line"/>
      <point x="623" y="284" type="line"/>
      <point x="523" y="142" type="line"/>
    </contour>
    <contour>
      <point x="704" y="77" type="line"/>
      <point x="704" y="0" type="line"/>
      <point x="615" y="0" type="line"/>
      <point x="615" y="77" type="line"/>
      <point x="404" y="77" type="line"/>
      <point x="645" y="420" type="line"/>
      <point x="704" y="420" type="line"/>
      <point x="704" y="152" type="line"/>
      <point x="770" y="152" type="line"/>
      <point x="770" y="77" type="line"/>
    </contour>
    <contour>
      <point x="626" y="700" type="line"/>
      <point x="713" y="700" type="line"/>
      <point x="193" y="0" type="line"/>
      <point x="106" y="0" type="line"/>
    </contour>
    <contour>
      <point x="26" y="584" type="line"/>
      <point x="26" y="662" type="line"/>
      <point x="210" y="702" type="line"/>
      <point x="210" y="274" type="line"/>
      <point x="126" y="274" type="line"/>
      <point x="126" y="610" type="line"/>
    </contour>
  </outline>
</glyph>
<glyph name="threequarters" format="1">
  <advance width="861"/>
  <unicode hex="00BE"/>
  <outline>
    <contour>
      <point x="684" y="142" type="line"/>
      <point x="684" y="284" type="line"/>
      <point x="583" y="142" type="line"/>
    </contour>
    <contour>
      <point x="764" y="77" type="line"/>
      <point x="764" y="0" type="line"/>
      <point x="675" y="0" type="line"/>
      <point x="675" y="77" type="line"/>
      <point x="464" y="77" type="line"/>
      <point x="705" y="420" type="line"/>
      <point x="764" y="420" type="line"/>
      <point x="764" y="152" type="line"/>
      <point x="830" y="152" type="line"/>
      <point x="830" y="77" type="line"/>
    </contour>
    <contour>
      <point x="692" y="700" type="line"/>
      <point x="778" y="700" type="line"/>
      <point x="258" y="0" type="line"/>
      <point x="172" y="0" type="line"/>
    </contour>
    <contour>
      <point x="181" y="271" type="curve" smooth="yes"/>
      <point x="85" y="271"/>
      <point x="27" y="335"/>
      <point x="27" y="407" type="curve"/>
      <point x="113" y="407" type="line"/>
      <point x="113" y="365"/>
      <point x="145" y="343"/>
      <point x="184" y="343" type="curve" smooth="yes"/>
      <point x="223" y="343"/>
      <point x="249" y="363"/>
      <point x="249" y="402" type="curve" smooth="yes"/>
      <point x="249" y="442"/>
      <point x="217" y="467"/>
      <point x="157" y="467" type="curve"/>
      <point x="157" y="485" type="line"/>
      <point x="157" y="513" type="line"/>
      <point x="157" y="526" type="line"/>
      <point x="205" y="526"/>
      <point x="237" y="555"/>
      <point x="237" y="588" type="curve" smooth="yes"/>
      <point x="237" y="618"/>
      <point x="219" y="637"/>
      <point x="184" y="637" type="curve" smooth="yes"/>
      <point x="150" y="637"/>
      <point x="126" y="614"/>
      <point x="126" y="582" type="curve"/>
      <point x="45" y="582" type="line"/>
      <point x="45" y="654"/>
      <point x="100" y="708"/>
      <point x="184" y="708" type="curve" smooth="yes"/>
      <point x="272" y="708"/>
      <point x="323" y="654"/>
      <point x="323" y="592" type="curve" smooth="yes"/>
      <point x="323" y="549"/>
      <point x="294" y="517"/>
      <point x="249" y="500" type="curve"/>
      <point x="301" y="483"/>
      <point x="335" y="449"/>
      <point x="335" y="393" type="curve" smooth="yes"/>
      <point x="335" y="321"/>
      <point x="275" y="271"/>
    </contour>
  </outline>
</glyph>
<glyph name="questiondown" format="1">
  <advance width="606"/>
  <unicode hex="00BF"/>
  <outline>
    <contour>
      <point x="408" y="646" type="curve" smooth="yes"/>
      <point x="408" y="606"/>
      <point x="374" y="572"/>
      <point x="326" y="572" type="curve" smooth="yes"/>
      <point x="278" y="572"/>
      <point x="243" y="606"/>
      <point x="243" y="646" type="curve" smooth="yes"/>
      <point x="243" y="686"/>
      <point x="278" y="722"/>
      <point x="326" y="722" type="curve" smooth="yes"/>
      <point x="374" y="722"/>
      <point x="408" y="686"/>
    </contour>
    <contour>
      <point x="186" y="200" type="curve" smooth="yes"/>
      <point x="186" y="134"/>
      <point x="234" y="95"/>
      <point x="310" y="95" type="curve" smooth="yes"/>
      <point x="372" y="95"/>
      <point x="428" y="128"/>
      <point x="464" y="182" type="curve"/>
      <point x="555" y="109" type="line"/>
      <point x="491" y="31"/>
      <point x="419" y="-17"/>
      <point x="300" y="-17" type="curve" smooth="yes"/>
      <point x="170" y="-17"/>
      <point x="56" y="68"/>
      <point x="56" y="200" type="curve" smooth="yes"/>
      <point x="56" y="321"/>
      <point x="165" y="396"/>
      <point x="269" y="414" type="curve"/>
      <point x="274" y="508" type="line"/>
      <point x="379" y="508" type="line"/>
      <point x="399" y="330" type="line"/>
      <point x="368" y="330" type="line" smooth="yes"/>
      <point x="248" y="330"/>
      <point x="186" y="258"/>
    </contour>
  </outline>
</glyph>
<glyph name="Agrave" format="1">
  <advance width="712"/>
  <unicode hex="00C0"/>
  <outline>
    <contour>
      <point x="270" y="272" type="line"/>
      <point x="442" y="272" type="line"/>
      <point x="356" y="472" type="line"/>
    </contour>
    <contour>
      <point x="236" y="158" type="line"/>
      <point x="163" y="0" type="line"/>
      <point x="0" y="0" type="line"/>
      <point x="356" y="742" type="line"/>
      <point x="712" y="0" type="line"/>
      <point x="549" y="0" type="line"/>
      <point x="476" y="158" type="line"/>
    </contour>
    <contour>
      <point x="204" y="952" type="line"/>
      <point x="308" y="1000" type="line"/>
      <point x="458" y="840" type="line"/>
      <point x="384" y="802" type="line"/>
    </contour>
  </outline>
</glyph>
<glyph name="Acircumflex" format="1">
  <advance width="712"/>
  <unicode hex="00C2"/>
  <outline>
    <contour>
      <point x="270" y="272" type="line"/>
      <point x="442" y="272" type="line"/>
      <point x="356" y="472" type="line"/>
    </contour>
    <contour>
      <point x="236" y="158" type="line"/>
      <point x="163" y="0" type="line"/>
      <point x="0" y="0" type="line"/>
      <point x="356" y="742" type="line"/>
      <point x="712" y="0" type="line"/>
      <point x="549" y="0" type="line"/>
      <point x="476" y="158" type="line"/>
    </contour>
    <contour>
      <point x="356" y="868" type="line"/>
      <point x="259" y="780" type="line"/>
      <point x="170" y="840" type="line"/>
      <point x="356" y="980" type="line"/>
      <point x="542" y="840" type="line"/>
      <point x="454" y="780" type="line"/>
    </contour>
  </outline>
</glyph>
<glyph name="Atilde" format="1">
  <advance width="712"/>
  <unicode hex="00C3"/>
  <outline>
    <contour>
      <point x="270" y="272" type="line"/>
      <point x="442" y="272" type="line"/>
      <point x="356" y="472" type="line"/>
    </contour>
    <contour>
      <point x="236" y="158" type="line"/>
      <point x="163" y="0" type="line"/>
      <point x="0" y="0" type="line"/>
      <point x="356" y="742" type="line"/>
      <point x="712" y="0" type="line"/>
      <point x="549" y="0" type="line"/>
      <point x="476" y="158" type="line"/>
    </contour>
    <contour>
      <point x="170" y="847" type="line"/>
      <point x="180" y="896"/>
      <point x="226" y="938"/>
      <point x="284" y="938" type="curve" smooth="yes"/>
      <point x="350" y="938"/>
      <point x="362" y="888"/>
      <point x="418" y="888" type="curve" smooth="yes"/>
      <point x="442" y="888"/>
      <point x="459" y="907"/>
      <point x="479" y="939" type="curve"/>
      <point x="543" y="874" type="line"/>
      <point x="527" y="837"/>
      <point x="476" y="792"/>
      <point x="418" y="792" type="curve" smooth="yes"/>
      <point x="363" y="792"/>
      <point x="332" y="844"/>
      <point x="284" y="844" type="curve" smooth="yes"/>
      <point x="245" y="844"/>
      <point x="236" y="807"/>
      <point x="236" y="792" type="curve"/>
    </contour>
  </outline>
</glyph>
<glyph name="Adieresis" format="1">
  <advance width="712"/>
  <unicode hex="00C4"/>
  <outline>
    <contour>
      <point x="270" y="272" type="line"/>
      <point x="442" y="272" type="line"/>
      <point x="356" y="472" type="line"/>
    </contour>
    <contour>
      <point x="236" y="158" type="line"/>
      <point x="163" y="0" type="line"/>
      <point x="0" y="0" type="line"/>
      <point x="356" y="742" type="line"/>
      <point x="712" y="0" type="line"/>
      <point x="549" y="0" type="line"/>
      <point x="476" y="158" type="line"/>
    </contour>
    <contour>
      <point x="409" y="838" type="curve" smooth="yes"/>
      <point x="409" y="881"/>
      <point x="444" y="914"/>
      <point x="488" y="914" type="curve" smooth="yes"/>
      <point x="532" y="914"/>
      <point x="568" y="881"/>
      <point x="568" y="838" type="curve" smooth="yes"/>
      <point x="568" y="795"/>
      <point x="532" y="762"/>
      <point x="488" y="762" type="curve" smooth="yes"/>
      <point x="444" y="762"/>
      <point x="409" y="795"/>
    </contour>
    <contour>
      <point x="146" y="838" type="curve" smooth="yes"/>
      <point x="146" y="881"/>
      <point x="181" y="914"/>
      <point x="225" y="914" type="curve" smooth="yes"/>
      <point x="269" y="914"/>
      <point x="304" y="881"/>
      <point x="304" y="838" type="curve" smooth="yes"/>
      <point x="304" y="795"/>
      <point x="269" y="762"/>
      <point x="225" y="762" type="curve" smooth="yes"/>
      <point x="181" y="762"/>
      <point x="146" y="795"/>
    </contour>
  </outline>
</glyph>
<glyph name="Aring" format="1">
  <advance width="712"/>
  <unicode hex="00C5"/>
  <outline>
    <contour>
      <point x="270" y="272" type="line"/>
      <point x="442" y="272" type="line"/>
      <point x="356" y="472" type="line"/>
    </contour>
    <contour>
      <point x="238" y="800" type="curve" smooth="yes"/>
      <point x="238" y="866"/>
      <point x="292" y="910"/>
      <point x="356" y="910" type="curve" smooth="yes"/>
      <point x="420" y="910"/>
      <point x="474" y="866"/>
      <point x="474" y="800" type="curve" smooth="yes"/>
      <point x="474" y="743"/>
      <point x="433" y="701"/>
      <point x="380" y="691" type="curve"/>
      <point x="712" y="0" type="line"/>
      <point x="549" y="0" type="line"/>
      <point x="476" y="158" type="line"/>
      <point x="236" y="158" type="line"/>
      <point x="163" y="0" type="line"/>
      <point x="0" y="0" type="line"/>
      <point x="332" y="691" type="line"/>
      <point x="279" y="701"/>
      <point x="238" y="743"/>
    </contour>
    <contour>
      <point x="308" y="800" type="curve" smooth="yes"/>
      <point x="308" y="769"/>
      <point x="331" y="750"/>
      <point x="356" y="750" type="curve" smooth="yes"/>
      <point x="381" y="750"/>
      <point x="404" y="769"/>
      <point x="404" y="800" type="curve" smooth="yes"/>
      <point x="404" y="831"/>
      <point x="381" y="849"/>
      <point x="356" y="849" type="curve" smooth="yes"/>
      <point x="331" y="849"/>
      <point x="308" y="831"/>
    </contour>
  </outline>
</glyph>
<glyph name="AE" format="1">
  <advance width="1047"/>
  <unicode hex="00C6"/>
  <outline>
    <contour>
      <point x="532" y="591" type="line"/>
      <point x="364" y="301" type="line"/>
      <point x="532" y="301" type="line"/>
    </contour>
    <contour>
      <point x="685" y="312" type="line"/>
      <point x="685" y="122" type="line"/>
      <point x="978" y="122" type="line"/>
      <point x="978" y="0" type="line"/>
      <point x="685" y="0" type="line"/>
      <point x="602" y="0" type="line"/>
      <point x="532" y="0" type="line"/>
      <point x="532" y="168" type="line"/>
      <point x="287" y="168" type="line"/>
      <point x="190" y="0" type="line"/>
      <point x="12" y="0" type="line"/>
      <point x="437" y="700" type="line"/>
      <point x="532" y="700" type="line"/>
      <point x="685" y="700" type="line"/>
      <point x="978" y="700" type="line"/>
      <point x="978" y="578" type="line"/>
      <point x="685" y="578" type="line"/>
      <point x="685" y="431" type="line"/>
      <point x="958" y="431" type="line"/>
      <point x="958" y="312" type="line"/>
    </contour>
  </outline>
</glyph>
<glyph name="Ccedilla" format="1">
  <advance width="695"/>
  <unicode hex="00C7"/>
  <outline>
    <contour>
      <point x="192" y="350" type="curve" smooth="yes"/>
      <point x="192" y="212"/>
      <point x="296" y="124"/>
      <point x="416" y="124" type="curve" smooth="yes"/>
      <point x="515" y="124"/>
      <point x="583" y="166"/>
      <point x="630" y="220" type="curve"/>
      <point x="630" y="58" type="line"/>
      <point x="576" y="14"/>
      <point x="518" y="-12"/>
      <point x="424" y="-14" type="curve"/>
      <point x="390" y="-62" type="line"/>
      <point x="400" y="-60"/>
      <point x="410" y="-60"/>
      <point x="420" y="-60" type="curve" smooth="yes"/>
      <point x="458" y="-60"/>
      <point x="506" y="-89"/>
      <point x="506" y="-150" type="curve" smooth="yes"/>
      <point x="506" y="-219"/>
      <point x="442" y="-254"/>
      <point x="382" y="-254" type="curve" smooth="yes"/>
      <point x="332" y="-254"/>
      <point x="296" y="-246"/>
      <point x="254" y="-216" type="curve"/>
      <point x="296" y="-156" type="line"/>
      <point x="320" y="-174"/>
      <point x="346" y="-181"/>
      <point x="368" y="-181" type="curve" smooth="yes"/>
      <point x="402" y="-181"/>
      <point x="422" y="-168"/>
      <point x="422" y="-144" type="curve" smooth="yes"/>
      <point x="422" y="-118"/>
      <point x="396" y="-110"/>
      <point x="364" y="-110" type="curve" smooth="yes"/>
      <point x="354" y="-110"/>
      <point x="321" y="-111"/>
      <point x="289" y="-127" type="curve"/>
      <point x="344" y="-9" type="line"/>
      <point x="163" y="18"/>
      <point x="36" y="157"/>
      <point x="36" y="350" type="curve" smooth="yes"/>
      <point x="36" y="566"/>
      <point x="194" y="714"/>
      <point x="410" y="714" type="curve" smooth="yes"/>
      <point x="512" y="714"/>
      <point x="573" y="688"/>
      <point x="630" y="642" type="curve"/>
      <point x="630" y="480" type="line"/>
      <point x="583" y="534"/>
      <point x="515" y="576"/>
      <point x="416" y="576" type="curve" smooth="yes"/>
      <point x="296" y="576"/>
      <point x="192" y="488"/>
    </contour>
  </outline>
</glyph>
<glyph name="Ecircumflex" format="1">
  <advance width="587"/>
  <unicode hex="00CA"/>
  <outline>
    <contour>
      <point x="216" y="312" type="line"/>
      <point x="216" y="122" type="line"/>
      <point x="522" y="122" type="line"/>
      <point x="522" y="0" type="line"/>
      <point x="216" y="0" type="line"/>
      <point x="168" y="0" type="line"/>
      <point x="76" y="0" type="line"/>
      <point x="76" y="700" type="line"/>
      <point x="168" y="700" type="line"/>
      <point x="216" y="700" type="line"/>
      <point x="522" y="700" type="line"/>
      <point x="522" y="578" type="line"/>
      <point x="216" y="578" type="line"/>
      <point x="216" y="431" type="line"/>
      <point x="502" y="431" type="line"/>
      <point x="502" y="312" type="line"/>
    </contour>
    <contour>
      <point x="304" y="878" type="line"/>
      <point x="194" y="784" type="line"/>
      <point x="144" y="824" type="line"/>
      <point x="304" y="964" type="line"/>
      <point x="464" y="824" type="line"/>
      <point x="414" y="784" type="line"/>
    </contour>
  </outline>
</glyph>
<glyph name="Edieresis" format="1">
  <advance width="587"/>
  <unicode hex="00CB"/>
  <outline>
    <contour>
      <point x="216" y="312" type="line"/>
      <point x="216" y="122" type="line"/>
      <point x="522" y="122" type="line"/>
      <point x="522" y="0" type="line"/>
      <point x="216" y="0" type="line"/>
      <point x="168" y="0" type="line"/>
      <point x="76" y="0" type="line"/>
      <point x="76" y="700" type="line"/>
      <point x="168" y="700" type="line"/>
      <point x="216" y="700" type="line"/>
      <point x="522" y="700" type="line"/>
      <point x="522" y="578" type="line"/>
      <point x="216" y="578" type="line"/>
      <point x="216" y="431" type="line"/>
      <point x="502" y="431" type="line"/>
      <point x="502" y="312" type="line"/>
    </contour>
    <contour>
      <point x="338" y="858" type="curve" smooth="yes"/>
      <point x="338" y="901"/>
      <point x="374" y="934"/>
      <point x="418" y="934" type="curve" smooth="yes"/>
      <point x="462" y="934"/>
      <point x="498" y="901"/>
      <point x="498" y="858" type="curve" smooth="yes"/>
      <point x="498" y="815"/>
      <point x="462" y="782"/>
      <point x="418" y="782" type="curve" smooth="yes"/>
      <point x="374" y="782"/>
      <point x="338" y="815"/>
    </contour>
    <contour>
      <point x="108" y="858" type="curve" smooth="yes"/>
      <point x="108" y="901"/>
      <point x="144" y="934"/>
      <point x="188" y="934" type="curve" smooth="yes"/>
      <point x="232" y="934"/>
      <point x="266" y="901"/>
      <point x="266" y="858" type="curve" smooth="yes"/>
      <point x="266" y="815"/>
      <point x="232" y="782"/>
      <point x="188" y="782" type="curve" smooth="yes"/>
      <point x="144" y="782"/>
      <point x="108" y="815"/>
    </contour>
  </outline>
</glyph>
<glyph name="Idieresis" format="1">
  <advance width="297"/>
  <unicode hex="00CF"/>
  <outline>
    <contour>
      <point x="76" y="700" type="line"/>
      <point x="222" y="700" type="line"/>
      <point x="222" y="0" type="line"/>
      <point x="76" y="0" type="line"/>
    </contour>
    <contour>
      <point x="185" y="850" type="curve" smooth="yes"/>
      <point x="185" y="893"/>
      <point x="220" y="926"/>
      <point x="264" y="926" type="curve" smooth="yes"/>
      <point x="308" y="926"/>
      <point x="344" y="893"/>
      <point x="344" y="850" type="curve" smooth="yes"/>
      <point x="344" y="807"/>
      <point x="308" y="774"/>
      <point x="264" y="774" type="curve" smooth="yes"/>
      <point x="220" y="774"/>
      <point x="185" y="807"/>
    </contour>
    <contour>
      <point x="-46" y="850" type="curve" smooth="yes"/>
      <point x="-46" y="893"/>
      <point x="-11" y="926"/>
      <point x="33" y="926" type="curve" smooth="yes"/>
      <point x="77" y="926"/>
      <point x="113" y="893"/>
      <point x="113" y="850" type="curve" smooth="yes"/>
      <point x="113" y="807"/>
      <point x="77" y="774"/>
      <point x="33" y="774" type="curve" smooth="yes"/>
      <point x="-11" y="774"/>
      <point x="-46" y="807"/>
    </contour>
  </outline>
</glyph>
<glyph name="Eth" format="1">
  <advance width="717"/>
  <unicode hex="00D0"/>
  <outline>
    <contour>
      <point x="223" y="397" type="line"/>
      <point x="340" y="397" type="line"/>
      <point x="340" y="304" type="line"/>
      <point x="223" y="304" type="line"/>
      <point x="223" y="130" type="line"/>
      <point x="310" y="130" type="line" smooth="yes"/>
      <point x="433" y="130"/>
      <point x="533" y="196"/>
      <point x="533" y="350" type="curve" smooth="yes"/>
      <point x="533" y="504"/>
      <point x="433" y="570"/>
      <point x="310" y="570" type="curve" smooth="yes"/>
      <point x="223" y="570" type="line"/>
    </contour>
    <contour>
      <point x="6" y="304" type="line"/>
      <point x="6" y="397" type="line"/>
      <point x="76" y="397" type="line"/>
      <point x="76" y="700" type="line"/>
      <point x="168" y="700" type="line"/>
      <point x="223" y="700" type="line"/>
      <point x="314" y="700" type="line" smooth="yes"/>
      <point x="536" y="700"/>
      <point x="682" y="564"/>
      <point x="682" y="350" type="curve" smooth="yes"/>
      <point x="682" y="136"/>
      <point x="536" y="0"/>
      <point x="314" y="0" type="curve" smooth="yes"/>
      <point x="223" y="0" type="line"/>
      <point x="168" y="0" type="line"/>
      <point x="76" y="0" type="line"/>
      <point x="76" y="304" type="line"/>
    </contour>
  </outline>
</glyph>
<glyph name="Otilde" format="1">
  <advance width="811"/>
  <unicode hex="00D5"/>
  <outline>
    <contour>
      <point x="188" y="350" type="curve" smooth="yes"/>
      <point x="188" y="216"/>
      <point x="278" y="120"/>
      <point x="406" y="120" type="curve" smooth="yes"/>
      <point x="534" y="120"/>
      <point x="624" y="216"/>
      <point x="624" y="350" type="curve" smooth="yes"/>
      <point x="624" y="484"/>
      <point x="537" y="580"/>
      <point x="406" y="580" type="curve" smooth="yes"/>
      <point x="278" y="580"/>
      <point x="188" y="484"/>
    </contour>
    <contour>
      <point x="36" y="350" type="curve" smooth="yes"/>
      <point x="36" y="562"/>
      <point x="195" y="714"/>
      <point x="406" y="714" type="curve" smooth="yes"/>
      <point x="618" y="714"/>
      <point x="776" y="562"/>
      <point x="776" y="350" type="curve" smooth="yes"/>
      <point x="776" y="138"/>
      <point x="621" y="-18"/>
      <point x="406" y="-18" type="curve" smooth="yes"/>
      <point x="191" y="-18"/>
      <point x="36" y="138"/>
    </contour>
    <contour>
      <point x="244" y="832" type="line"/>
      <point x="254" y="881"/>
      <point x="303" y="914"/>
      <point x="348" y="914" type="curve" smooth="yes"/>
      <point x="413" y="914"/>
      <point x="418" y="866"/>
      <point x="472" y="866" type="curve" smooth="yes"/>
      <point x="491" y="866"/>
      <point x="508" y="882"/>
      <point x="528" y="914" type="curve"/>
      <point x="574" y="872" type="line"/>
      <point x="558" y="835"/>
      <point x="518" y="798"/>
      <point x="468" y="798" type="curve" smooth="yes"/>
      <point x="413" y="798"/>
      <point x="391" y="846"/>
      <point x="346" y="846" type="curve" smooth="yes"/>
      <point x="305" y="846"/>
      <point x="296" y="809"/>
      <point x="296" y="794" type="curve"/>
    </contour>
  </outline>
</glyph>
<glyph name="Odieresis" format="1">
  <advance width="811"/>
  <unicode hex="00D6"/>
  <outline>
    <contour>
      <point x="188" y="350" type="curve" smooth="yes"/>
      <point x="188" y="216"/>
      <point x="278" y="120"/>
      <point x="406" y="120" type="curve" smooth="yes"/>
      <point x="534" y="120"/>
      <point x="624" y="216"/>
      <point x="624" y="350" type="curve" smooth="yes"/>
      <point x="624" y="484"/>
      <point x="537" y="580"/>
      <point x="406" y="580" type="curve" smooth="yes"/>
      <point x="278" y="580"/>
      <point x="188" y="484"/>
    </contour>
    <contour>
      <point x="36" y="350" type="curve" smooth="yes"/>
      <point x="36" y="562"/>
      <point x="195" y="714"/>
      <point x="406" y="714" type="curve" smooth="yes"/>
      <point x="618" y="714"/>
      <point x="776" y="562"/>
      <point x="776" y="350" type="curve" smooth="yes"/>
      <point x="776" y="138"/>
      <point x="621" y="-18"/>
      <point x="406" y="-18" type="curve" smooth="yes"/>
      <point x="191" y="-18"/>
      <point x="36" y="138"/>
    </contour>
    <contour>
      <point x="444" y="840" type="curve" smooth="yes"/>
      <point x="444" y="883"/>
      <point x="479" y="916"/>
      <point x="523" y="916" type="curve" smooth="yes"/>
      <point x="567" y="916"/>
      <point x="602" y="883"/>
      <point x="602" y="840" type="curve" smooth="yes"/>
      <point x="602" y="797"/>
      <point x="567" y="764"/>
      <point x="523" y="764" type="curve" smooth="yes"/>
      <point x="479" y="764"/>
      <point x="444" y="797"/>
    </contour>
    <contour>
      <point x="213" y="840" type="curve" smooth="yes"/>
      <point x="213" y="883"/>
      <point x="248" y="916"/>
      <point x="292" y="916" type="curve" smooth="yes"/>
      <point x="336" y="916"/>
      <point x="372" y="883"/>
      <point x="372" y="840" type="curve" smooth="yes"/>
      <point x="372" y="797"/>
      <point x="336" y="764"/>
      <point x="292" y="764" type="curve" smooth="yes"/>
      <point x="248" y="764"/>
      <point x="213" y="797"/>
    </contour>
  </outline>
</glyph>
<glyph name="multiply" format="1">
  <advance width="596"/>
  <unicode hex="00D7"/>
  <outline>
    <contour>
      <point x="134" y="8" type="line"/>
      <point x="52" y="92" type="line"/>
      <point x="220" y="255" type="line"/>
      <point x="52" y="418" type="line"/>
      <point x="134" y="502" type="line"/>
      <point x="298" y="332" type="line"/>
      <point x="462" y="502" type="line"/>
      <point x="544" y="418" type="line"/>
      <point x="376" y="255" type="line"/>
      <point x="544" y="92" type="line"/>
      <point x="462" y="8" type="line"/>
      <point x="298" y="178" type="line"/>
    </contour>
  </outline>
</glyph>
<glyph name="Oslash" format="1">
  <advance width="790"/>
  <unicode hex="00D8"/>
  <outline>
    <contour>
      <point x="521" y="550" type="line"/>
      <point x="488" y="570"/>
      <point x="449" y="580"/>
      <point x="406" y="580" type="curve" smooth="yes"/>
      <point x="278" y="580"/>
      <point x="188" y="486"/>
      <point x="188" y="350" type="curve" smooth="yes"/>
      <point x="188" y="294"/>
      <point x="203" y="246"/>
      <point x="229" y="208" type="curve"/>
    </contour>
    <contour>
      <point x="581" y="494" type="curve"/>
      <point x="289" y="151" type="line"/>
      <point x="322" y="131"/>
      <point x="362" y="120"/>
      <point x="406" y="120" type="curve" smooth="yes"/>
      <point x="534" y="120"/>
      <point x="624" y="214"/>
      <point x="624" y="350" type="curve" smooth="yes"/>
      <point x="624" y="406"/>
      <point x="608" y="456"/>
    </contour>
    <contour>
      <point x="695" y="754" type="line"/>
      <point x="762" y="706" type="line"/>
      <point x="676" y="606" type="line"/>
      <point x="738" y="542"/>
      <point x="776" y="453"/>
      <point x="776" y="350" type="curve" smooth="yes"/>
      <point x="776" y="138"/>
      <point x="618" y="-18"/>
      <point x="406" y="-18" type="curve" smooth="yes"/>
      <point x="327" y="-18"/>
      <point x="255" y="4"/>
      <point x="196" y="42" type="curve"/>
      <point x="114" y="-54" type="line"/>
      <point x="47" y="-6" type="line"/>
      <point x="133" y="95" type="line"/>
      <point x="72" y="160"/>
      <point x="36" y="249"/>
      <point x="36" y="350" type="curve" smooth="yes"/>
      <point x="36" y="562"/>
      <point x="194" y="714"/>
      <point x="406" y="714" type="curve" smooth="yes"/>
      <point x="484" y="714"/>
      <point x="554" y="693"/>
      <point x="612" y="657" type="curve"/>
    </contour>
  </outline>
</glyph>
<glyph name="Udieresis" format="1">
  <advance width="678"/>
  <unicode hex="00DC"/>
  <outline>
    <contour>
      <point x="70" y="700" type="line"/>
      <point x="214" y="700" type="line"/>
      <point x="214" y="238" type="line" smooth="yes"/>
      <point x="214" y="160"/>
      <point x="257" y="107"/>
      <point x="339" y="107" type="curve" smooth="yes"/>
      <point x="421" y="107"/>
      <point x="464" y="160"/>
      <point x="464" y="238" type="curve" smooth="yes"/>
      <point x="464" y="700" type="line"/>
      <point x="608" y="700" type="line"/>
      <point x="608" y="230" type="line" smooth="yes"/>
      <point x="608" y="65"/>
      <point x="493" y="-24"/>
      <point x="339" y="-24" type="curve" smooth="yes"/>
      <point x="185" y="-24"/>
      <point x="70" y="65"/>
      <point x="70" y="230" type="curve" smooth="yes"/>
    </contour>
    <contour>
      <point x="388" y="850" type="curve" smooth="yes"/>
      <point x="388" y="893"/>
      <point x="423" y="926"/>
      <point x="467" y="926" type="curve" smooth="yes"/>
      <point x="511" y="926"/>
      <point x="546" y="893"/>
      <point x="546" y="850" type="curve" smooth="yes"/>
      <point x="546" y="807"/>
      <point x="511" y="774"/>
      <point x="467" y="774" type="curve" smooth="yes"/>
      <point x="423" y="774"/>
      <point x="388" y="807"/>
    </contour>
    <contour>
      <point x="132" y="850" type="curve" smooth="yes"/>
      <point x="132" y="893"/>
      <point x="167" y="926"/>
      <point x="211" y="926" type="curve" smooth="yes"/>
      <point x="255" y="926"/>
      <point x="290" y="893"/>
      <point x="290" y="850" type="curve" smooth="yes"/>
      <point x="290" y="807"/>
      <point x="255" y="774"/>
      <point x="211" y="774" type="curve" smooth="yes"/>
      <point x="167" y="774"/>
      <point x="132" y="807"/>
    </contour>
  </outline>
</glyph>
<glyph name="Yacute" format="1">
  <advance width="630"/>
  <unicode hex="00DD"/>
  <outline>
    <contour>
      <point x="464" y="700" type="line"/>
      <point x="630" y="700" type="line"/>
      <point x="388" y="290" type="line"/>
      <point x="388" y="0" type="line"/>
      <point x="242" y="0" type="line"/>
      <point x="242" y="290" type="line"/>
      <point x="0" y="700" type="line"/>
      <point x="166" y="700" type="line"/>
      <point x="315" y="418" type="line"/>
    </contour>
    <contour>
      <point x="466" y="924" type="line"/>
      <point x="286" y="774" type="line"/>
      <point x="214" y="814" type="line"/>
      <point x="364" y="974" type="line"/>
    </contour>
  </outline>
</glyph>
<glyph name="germandbls" format="1">
  <advance width="584"/>
  <unicode hex="00DF"/>
  <outline>
    <contour>
      <point x="279" y="109" type="line"/>
      <point x="359" y="109"/>
      <point x="424" y="164"/>
      <point x="424" y="248" type="curve" smooth="yes"/>
      <point x="424" y="316"/>
      <point x="373" y="379"/>
      <point x="263" y="379" type="curve"/>
      <point x="263" y="416" type="line"/>
      <point x="263" y="468" type="line"/>
      <point x="263" y="498" type="line"/>
      <point x="355" y="498"/>
      <point x="384" y="540"/>
      <point x="384" y="588" type="curve" smooth="yes"/>
      <point x="384" y="640"/>
      <point x="352" y="675"/>
      <point x="284" y="675" type="curve" smooth="yes"/>
      <point x="228" y="675"/>
      <point x="188" y="646"/>
      <point x="188" y="592" type="curve" smooth="yes"/>
      <point x="188" y="0" type="line"/>
      <point x="62" y="0" type="line"/>
      <point x="62" y="606" type="line" smooth="yes"/>
      <point x="62" y="724"/>
      <point x="166" y="794"/>
      <point x="284" y="794" type="curve" smooth="yes"/>
      <point x="432" y="794"/>
      <point x="511" y="715"/>
      <point x="511" y="606" type="curve" smooth="yes"/>
      <point x="511" y="528"/>
      <point x="475" y="471"/>
      <point x="405" y="441" type="curve"/>
      <point x="495" y="403"/>
      <point x="555" y="326"/>
      <point x="555" y="225" type="curve" smooth="yes"/>
      <point x="555" y="77"/>
      <point x="440" y="-10"/>
      <point x="279" y="-10" type="curve"/>
    </contour>
  </outline>
</glyph>
<glyph name="atilde" format="1">
  <advance width="526"/>
  <unicode hex="00E3"/>
  <outline>
    <contour>
      <point x="156" y="137" type="curve" smooth="yes"/>
      <point x="156" y="99"/>
      <point x="185" y="80"/>
      <point x="232" y="80" type="curve" smooth="yes"/>
      <point x="294" y="80"/>
      <point x="345" y="106"/>
      <point x="345" y="184" type="curve" smooth="yes"/>
      <point x="345" y="185" type="line"/>
      <point x="318" y="199"/>
      <point x="288" y="206"/>
      <point x="250" y="206" type="curve" smooth="yes"/>
      <point x="190" y="206"/>
      <point x="156" y="179"/>
    </contour>
    <contour>
      <point x="116" y="328" type="curve"/>
      <point x="68" y="418" type="line"/>
      <point x="116" y="443"/>
      <point x="185" y="472"/>
      <point x="268" y="472" type="curve" smooth="yes"/>
      <point x="386" y="472"/>
      <point x="470" y="420"/>
      <point x="470" y="326" type="curve" smooth="yes"/>
      <point x="470" y="0" type="line"/>
      <point x="345" y="0" type="line"/>
      <point x="345" y="66" type="line"/>
      <point x="318" y="17"/>
      <point x="259" y="-10"/>
      <point x="190" y="-10" type="curve" smooth="yes"/>
      <point x="90" y="-10"/>
      <point x="26" y="41"/>
      <point x="26" y="127" type="curve" smooth="yes"/>
      <point x="26" y="225"/>
      <point x="108" y="281"/>
      <point x="224" y="281" type="curve" smooth="yes"/>
      <point x="272" y="281"/>
      <point x="316" y="266"/>
      <point x="345" y="251" type="curve"/>
      <point x="345" y="305" type="line" smooth="yes"/>
      <point x="345" y="346"/>
      <point x="309" y="370"/>
      <point x="259" y="370" type="curve" smooth="yes"/>
      <point x="193" y="370"/>
      <point x="138" y="342"/>
    </contour>
    <contour>
      <point x="81" y="590" type="line"/>
      <point x="91" y="639"/>
      <point x="138" y="680"/>
      <point x="196" y="680" type="curve" smooth="yes"/>
      <point x="262" y="680"/>
      <point x="272" y="630"/>
      <point x="328" y="630" type="curve" smooth="yes"/>
      <point x="352" y="630"/>
      <point x="372" y="649"/>
      <point x="392" y="681" type="curve"/>
      <point x="454" y="616" type="line"/>
      <point x="438" y="579"/>
      <point x="387" y="534"/>
      <point x="329" y="534" type="curve" smooth="yes"/>
      <point x="274" y="534"/>
      <point x="242" y="586"/>
      <point x="194" y="586" type="curve" smooth="yes"/>
      <point x="155" y="586"/>
      <point x="147" y="550"/>
      <point x="147" y="535" type="curve"/>
    </contour>
  </outline>
</glyph>
<glyph name="adieresis" format="1">
  <advance width="526"/>
  <unicode hex="00E4"/>
  <outline>
    <contour>
      <point x="156" y="137" type="curve" smooth="yes"/>
      <point x="156" y="99"/>
      <point x="185" y="80"/>
      <point x="232" y="80" type="curve" smooth="yes"/>
      <point x="294" y="80"/>
      <point x="345" y="106"/>
      <point x="345" y="184" type="curve" smooth="yes"/>
      <point x="345" y="185" type="line"/>
      <point x="318" y="199"/>
      <point x="288" y="206"/>
      <point x="250" y="206" type="curve" smooth="yes"/>
      <point x="190" y="206"/>
      <point x="156" y="179"/>
    </contour>
    <contour>
      <point x="116" y="328" type="curve"/>
      <point x="68" y="418" type="line"/>
      <point x="116" y="443"/>
      <point x="185" y="472"/>
      <point x="268" y="472" type="curve" smooth="yes"/>
      <point x="386" y="472"/>
      <point x="470" y="420"/>
      <point x="470" y="326" type="curve" smooth="yes"/>
      <point x="470" y="0" type="line"/>
      <point x="345" y="0" type="line"/>
      <point x="345" y="66" type="line"/>
      <point x="318" y="17"/>
      <point x="259" y="-10"/>
      <point x="190" y="-10" type="curve" smooth="yes"/>
      <point x="90" y="-10"/>
      <point x="26" y="41"/>
      <point x="26" y="127" type="curve" smooth="yes"/>
      <point x="26" y="225"/>
      <point x="108" y="281"/>
      <point x="224" y="281" type="curve" smooth="yes"/>
      <point x="272" y="281"/>
      <point x="316" y="266"/>
      <point x="345" y="251" type="curve"/>
      <point x="345" y="305" type="line" smooth="yes"/>
      <point x="345" y="346"/>
      <point x="309" y="370"/>
      <point x="259" y="370" type="curve" smooth="yes"/>
      <point x="193" y="370"/>
      <point x="138" y="342"/>
    </contour>
    <contour>
      <point x="305" y="606" type="curve" smooth="yes"/>
      <point x="305" y="648"/>
      <point x="339" y="680"/>
      <point x="383" y="680" type="curve" smooth="yes"/>
      <point x="427" y="680"/>
      <point x="461" y="648"/>
      <point x="461" y="606" type="curve" smooth="yes"/>
      <point x="461" y="564"/>
      <point x="427" y="532"/>
      <point x="383" y="532" type="curve" smooth="yes"/>
      <point x="339" y="532"/>
      <point x="305" y="564"/>
    </contour>
    <contour>
      <point x="74" y="606" type="curve" smooth="yes"/>
      <point x="74" y="648"/>
      <point x="108" y="680"/>
      <point x="152" y="680" type="curve" smooth="yes"/>
      <point x="196" y="680"/>
      <point x="230" y="648"/>
      <point x="230" y="606" type="curve" smooth="yes"/>
      <point x="230" y="564"/>
      <point x="196" y="532"/>
      <point x="152" y="532" type="curve" smooth="yes"/>
      <point x="108" y="532"/>
      <point x="74" y="564"/>
    </contour>
  </outline>
</glyph>
<glyph name="ae" format="1">
  <advance width="874"/>
  <unicode hex="00E6"/>
  <outline>
    <contour>
      <point x="701" y="281" type="line"/>
      <point x="693" y="342"/>
      <point x="660" y="378"/>
      <point x="599" y="378" type="curve" smooth="yes"/>
      <point x="540" y="378"/>
      <point x="495" y="343"/>
      <point x="486" y="281" type="curve"/>
    </contour>
    <contour>
      <point x="156" y="137" type="curve" smooth="yes"/>
      <point x="156" y="99"/>
      <point x="185" y="80"/>
      <point x="232" y="80" type="curve" smooth="yes"/>
      <point x="294" y="80"/>
      <point x="345" y="106"/>
      <point x="345" y="184" type="curve" smooth="yes"/>
      <point x="345" y="185" type="line"/>
      <point x="318" y="199"/>
      <point x="288" y="206"/>
      <point x="250" y="206" type="curve" smooth="yes"/>
      <point x="190" y="206"/>
      <point x="156" y="179"/>
    </contour>
    <contour>
      <point x="116" y="328" type="curve"/>
      <point x="68" y="418" type="line"/>
      <point x="116" y="443"/>
      <point x="185" y="472"/>
      <point x="268" y="472" type="curve" smooth="yes"/>
      <point x="363" y="472"/>
      <point x="410" y="438"/>
      <point x="425" y="375" type="curve"/>
      <point x="464" y="434"/>
      <point x="530" y="470"/>
      <point x="620" y="470" type="curve" smooth="yes"/>
      <point x="748" y="470"/>
      <point x="840" y="381"/>
      <point x="840" y="236" type="curve" smooth="yes"/>
      <point x="840" y="228"/>
      <point x="841" y="216"/>
      <point x="839" y="202" type="curve"/>
      <point x="484" y="202" type="line"/>
      <point x="493" y="124"/>
      <point x="541" y="90"/>
      <point x="602" y="90" type="curve" smooth="yes"/>
      <point x="660" y="90"/>
      <point x="700" y="113"/>
      <point x="724" y="155" type="curve"/>
      <point x="838" y="120" type="line"/>
      <point x="792" y="42"/>
      <point x="728" y="-10"/>
      <point x="600" y="-10" type="curve" smooth="yes"/>
      <point x="499" y="-10"/>
      <point x="437" y="33"/>
      <point x="405" y="101" type="curve"/>
      <point x="390" y="30"/>
      <point x="318" y="-10"/>
      <point x="215" y="-10" type="curve" smooth="yes"/>
      <point x="95" y="-10"/>
      <point x="26" y="41"/>
      <point x="26" y="127" type="curve" smooth="yes"/>
      <point x="26" y="225"/>
      <point x="108" y="281"/>
      <point x="224" y="281" type="curve" smooth="yes"/>
      <point x="272" y="281"/>
      <point x="316" y="266"/>
      <point x="345" y="251" type="curve"/>
      <point x="345" y="299" type="line" smooth="yes"/>
      <point x="345" y="340"/>
      <point x="309" y="370"/>
      <point x="259" y="370" type="curve" smooth="yes"/>
      <point x="193" y="370"/>
      <point x="138" y="342"/>
    </contour>
  </outline>
</glyph>
<glyph name="edieresis" format="1">
  <advance width="548"/>
  <unicode hex="00EB"/>
  <outline>
    <contour>
      <point x="389" y="284" type="line"/>
      <point x="379" y="339"/>
      <point x="343" y="372"/>
      <point x="280" y="372" type="curve" smooth="yes"/>
      <point x="219" y="372"/>
      <point x="174" y="341"/>
      <point x="163" y="284" type="curve"/>
    </contour>
    <contour>
      <point x="160" y="202" type="line"/>
      <point x="171" y="130"/>
      <point x="222" y="93"/>
      <point x="290" y="93" type="curve" smooth="yes"/>
      <point x="341" y="93"/>
      <point x="374" y="114"/>
      <point x="395" y="155" type="curve"/>
      <point x="503" y="114" type="line"/>
      <point x="464" y="42"/>
      <point x="403" y="-10"/>
      <point x="282" y="-10" type="curve" smooth="yes"/>
      <point x="141" y="-10"/>
      <point x="36" y="91"/>
      <point x="36" y="230" type="curve" smooth="yes"/>
      <point x="36" y="247"/>
      <point x="38" y="264"/>
      <point x="41" y="280" type="curve" smooth="yes"/>
      <point x="60" y="393"/>
      <point x="156" y="470"/>
      <point x="282" y="470" type="curve" smooth="yes"/>
      <point x="412" y="470"/>
      <point x="512" y="381"/>
      <point x="512" y="236" type="curve" smooth="yes"/>
      <point x="512" y="228"/>
      <point x="512" y="216"/>
      <point x="510" y="202" type="curve"/>
    </contour>
    <contour>
      <point x="320" y="604" type="curve" smooth="yes"/>
      <point x="320" y="646"/>
      <point x="354" y="678"/>
      <point x="398" y="678" type="curve" smooth="yes"/>
      <point x="442" y="678"/>
      <point x="476" y="646"/>
      <point x="476" y="604" type="curve" smooth="yes"/>
      <point x="476" y="562"/>
      <point x="442" y="530"/>
      <point x="398" y="530" type="curve" smooth="yes"/>
      <point x="354" y="530"/>
      <point x="320" y="562"/>
    </contour>
    <contour>
      <point x="89" y="604" type="curve" smooth="yes"/>
      <point x="89" y="646"/>
      <point x="123" y="678"/>
      <point x="167" y="678" type="curve" smooth="yes"/>
      <point x="211" y="678"/>
      <point x="246" y="646"/>
      <point x="246" y="604" type="curve" smooth="yes"/>
      <point x="246" y="562"/>
      <point x="211" y="530"/>
      <point x="167" y="530" type="curve" smooth="yes"/>
      <point x="123" y="530"/>
      <point x="89" y="562"/>
    </contour>
  </outline>
</glyph>
<glyph name="icircumflex" format="1">
  <advance width="271"/>
  <unicode hex="00EE"/>
  <outline>
    <contour>
      <point x="72" y="460" type="line"/>
      <point x="198" y="460" type="line"/>
      <point x="198" y="0" type="line"/>
      <point x="72" y="0" type="line"/>
    </contour>
    <contour>
      <point x="136" y="624" type="line"/>
      <point x="38" y="536" type="line"/>
      <point x="-51" y="598" type="line"/>
      <point x="136" y="738" type="line"/>
      <point x="322" y="598" type="line"/>
      <point x="232" y="536" type="line"/>
    </contour>
  </outline>
</glyph>
<glyph name="idieresis" format="1">
  <advance width="271"/>
  <unicode hex="00EF"/>
  <outline>
    <contour>
      <point x="72" y="460" type="line"/>
      <point x="198" y="460" type="line"/>
      <point x="198" y="0" type="line"/>
      <point x="72" y="0" type="line"/>
    </contour>
    <contour>
      <point x="172" y="613" type="curve" smooth="yes"/>
      <point x="172" y="655"/>
      <point x="206" y="687"/>
      <point x="250" y="687" type="curve" smooth="yes"/>
      <point x="294" y="687"/>
      <point x="328" y="655"/>
      <point x="328" y="613" type="curve" smooth="yes"/>
      <point x="328" y="571"/>
      <point x="294" y="539"/>
      <point x="250" y="539" type="curve" smooth="yes"/>
      <point x="206" y="539"/>
      <point x="172" y="571"/>
    </contour>
    <contour>
      <point x="-58" y="613" type="curve" smooth="yes"/>
      <point x="-58" y="655"/>
      <point x="-24" y="687"/>
      <point x="20" y="687" type="curve" smooth="yes"/>
      <point x="64" y="687"/>
      <point x="98" y="655"/>
      <point x="98" y="613" type="curve" smooth="yes"/>
      <point x="98" y="571"/>
      <point x="64" y="539"/>
      <point x="20" y="539" type="curve" smooth="yes"/>
      <point x="-24" y="539"/>
      <point x="-58" y="571"/>
    </contour>
  </outline>
</glyph>
<glyph name="ntilde" format="1">
  <advance width="560"/>
  <unicode hex="00F1"/>
  <outline>
    <contour>
      <point x="362" y="280" type="line" smooth="yes"/>
      <point x="362" y="340"/>
      <point x="340" y="374"/>
      <point x="286" y="374" type="curve" smooth="yes"/>
      <point x="232" y="374"/>
      <point x="195" y="338"/>
      <point x="195" y="280" type="curve" smooth="yes"/>
      <point x="195" y="0" type="line"/>
      <point x="64" y="0" type="line"/>
      <point x="64" y="460" type="line"/>
      <point x="195" y="460" type="line"/>
      <point x="195" y="396" type="line"/>
      <point x="224" y="441"/>
      <point x="271" y="470"/>
      <point x="334" y="470" type="curve" smooth="yes"/>
      <point x="442" y="470"/>
      <point x="496" y="408"/>
      <point x="496" y="294" type="curve" smooth="yes"/>
      <point x="496" y="0" type="line"/>
      <point x="362" y="0" type="line"/>
    </contour>
    <contour>
      <point x="94" y="588" type="line"/>
      <point x="104" y="637"/>
      <point x="150" y="678"/>
      <point x="208" y="678" type="curve" smooth="yes"/>
      <point x="274" y="678"/>
      <point x="284" y="628"/>
      <point x="340" y="628" type="curve" smooth="yes"/>
      <point x="364" y="628"/>
      <point x="384" y="648"/>
      <point x="404" y="680" type="curve"/>
      <point x="467" y="614" type="line"/>
      <point x="451" y="577"/>
      <point x="400" y="532"/>
      <point x="342" y="532" type="curve" smooth="yes"/>
      <point x="287" y="532"/>
      <point x="256" y="584"/>
      <point x="208" y="584" type="curve" smooth="yes"/>
      <point x="169" y="584"/>
      <point x="160" y="548"/>
      <point x="160" y="533" type="curve"/>
    </contour>
  </outline>
</glyph>
<glyph name="ocircumflex" format="1">
  <advance width="576"/>
  <unicode hex="00F4"/>
  <outline>
    <contour>
      <point x="33" y="230" type="curve" smooth="yes"/>
      <point x="33" y="374"/>
      <point x="142" y="470"/>
      <point x="288" y="470" type="curve" smooth="yes"/>
      <point x="434" y="470"/>
      <point x="544" y="374"/>
      <point x="544" y="230" type="curve" smooth="yes"/>
      <point x="544" y="86"/>
      <point x="434" y="-10"/>
      <point x="288" y="-10" type="curve" smooth="yes"/>
      <point x="142" y="-10"/>
      <point x="33" y="86"/>
    </contour>
    <contour>
      <point x="166" y="230" type="curve" smooth="yes"/>
      <point x="166" y="152"/>
      <point x="220" y="100"/>
      <point x="288" y="100" type="curve" smooth="yes"/>
      <point x="356" y="100"/>
      <point x="410" y="152"/>
      <point x="410" y="230" type="curve" smooth="yes"/>
      <point x="410" y="308"/>
      <point x="356" y="360"/>
      <point x="288" y="360" type="curve" smooth="yes"/>
      <point x="220" y="360"/>
      <point x="166" y="308"/>
    </contour>
    <contour>
      <point x="288" y="630" type="line"/>
      <point x="192" y="542" type="line"/>
      <point x="102" y="604" type="line"/>
      <point x="288" y="744" type="line"/>
      <point x="474" y="604" type="line"/>
      <point x="385" y="542" type="line"/>
    </contour>
  </outline>
</glyph>
<glyph name="otilde" format="1">
  <advance width="576"/>
  <unicode hex="00F5"/>
  <outline>
    <contour>
      <point x="33" y="230" type="curve" smooth="yes"/>
      <point x="33" y="374"/>
      <point x="142" y="470"/>
      <point x="288" y="470" type="curve" smooth="yes"/>
      <point x="434" y="470"/>
      <point x="544" y="374"/>
      <point x="544" y="230" type="curve" smooth="yes"/>
      <point x="544" y="86"/>
      <point x="434" y="-10"/>
      <point x="288" y="-10" type="curve" smooth="yes"/>
      <point x="142" y="-10"/>
      <point x="33" y="86"/>
    </contour>
    <contour>
      <point x="166" y="230" type="curve" smooth="yes"/>
      <point x="166" y="152"/>
      <point x="220" y="100"/>
      <point x="288" y="100" type="curve" smooth="yes"/>
      <point x="356" y="100"/>
      <point x="410" y="152"/>
      <point x="410" y="230" type="curve" smooth="yes"/>
      <point x="410" y="308"/>
      <point x="356" y="360"/>
      <point x="288" y="360" type="curve" smooth="yes"/>
      <point x="220" y="360"/>
      <point x="166" y="308"/>
    </contour>
    <contour>
      <point x="101" y="588" type="line"/>
      <point x="111" y="637"/>
      <point x="158" y="678"/>
      <point x="216" y="678" type="curve" smooth="yes"/>
      <point x="282" y="678"/>
      <point x="294" y="628"/>
      <point x="350" y="628" type="curve" smooth="yes"/>
      <point x="374" y="628"/>
      <point x="392" y="648"/>
      <point x="412" y="680" type="curve"/>
      <point x="475" y="614" type="line"/>
      <point x="459" y="577"/>
      <point x="408" y="532"/>
      <point x="350" y="532" type="curve" smooth="yes"/>
      <point x="295" y="532"/>
      <point x="264" y="584"/>
      <point x="216" y="584" type="curve" smooth="yes"/>
      <point x="177" y="584"/>
      <point x="168" y="548"/>
      <point x="168" y="533" type="curve"/>
    </contour>
  </outline>
</glyph>
<glyph name="oslash" format="1">
  <advance width="546"/>
  <unicode hex="00F8"/>
  <outline>
    <contour>
      <point x="340" y="354" type="line"/>
      <point x="324" y="361"/>
      <point x="306" y="365"/>
      <point x="288" y="365" type="curve" smooth="yes"/>
      <point x="216" y="365"/>
      <point x="158" y="308"/>
      <point x="158" y="230" type="curve" smooth="yes"/>
      <point x="158" y="196"/>
      <point x="168" y="167"/>
      <point x="184" y="145" type="curve"/>
    </contour>
    <contour>
      <point x="387" y="319" type="curve"/>
      <point x="230" y="108" type="line"/>
      <point x="247" y="100"/>
      <point x="267" y="95"/>
      <point x="288" y="95" type="curve" smooth="yes"/>
      <point x="360" y="95"/>
      <point x="419" y="148"/>
      <point x="419" y="230" type="curve" smooth="yes"/>
      <point x="419" y="265"/>
      <point x="407" y="296"/>
    </contour>
    <contour>
      <point x="451" y="504" type="line"/>
      <point x="504" y="476" type="line"/>
      <point x="459" y="415" type="line"/>
      <point x="512" y="373"/>
      <point x="544" y="310"/>
      <point x="544" y="230" type="curve" smooth="yes"/>
      <point x="544" y="82"/>
      <point x="432" y="-10"/>
      <point x="288" y="-10" type="curve" smooth="yes"/>
      <point x="242" y="-10"/>
      <point x="199" y="-1"/>
      <point x="162" y="17" type="curve"/>
      <point x="114" y="-48" type="line"/>
      <point x="61" y="-20" type="line"/>
      <point x="113" y="49" type="line"/>
      <point x="64" y="91"/>
      <point x="33" y="153"/>
      <point x="33" y="230" type="curve" smooth="yes"/>
      <point x="33" y="378"/>
      <point x="144" y="470"/>
      <point x="288" y="470" type="curve" smooth="yes"/>
      <point x="332" y="470"/>
      <point x="373" y="462"/>
      <point x="408" y="446" type="curve"/>
    </contour>
  </outline>
</glyph>
<glyph name="ucircumflex" format="1">
  <advance width="560"/>
  <unicode hex="00FB"/>
  <outline>
    <contour>
      <point x="199" y="180" type="line" smooth="yes"/>
      <point x="199" y="120"/>
      <point x="221" y="86"/>
      <point x="275" y="86" type="curve" smooth="yes"/>
      <point x="329" y="86"/>
      <point x="366" y="122"/>
      <point x="366" y="180" type="curve" smooth="yes"/>
      <point x="366" y="460" type="line"/>
      <point x="496" y="460" type="line"/>
      <point x="496" y="0" type="line"/>
      <point x="366" y="0" type="line"/>
      <point x="366" y="64" type="line"/>
      <point x="337" y="18"/>
      <point x="289" y="-10"/>
      <point x="226" y="-10" type="curve" smooth="yes"/>
      <point x="118" y="-10"/>
      <point x="64" y="52"/>
      <point x="64" y="166" type="curve" smooth="yes"/>
      <point x="64" y="460" type="line"/>
      <point x="199" y="460" type="line"/>
    </contour>
    <contour>
      <point x="280" y="630" type="line"/>
      <point x="183" y="542" type="line"/>
      <point x="94" y="604" type="line"/>
      <point x="280" y="744" type="line"/>
      <point x="466" y="604" type="line"/>
      <point x="376" y="542" type="line"/>
    </contour>
  </outline>
</glyph>
<glyph name="thorn" format="1">
  <advance width="599"/>
  <unicode hex="00FE"/>
  <outline>
    <contour>
      <point x="566" y="230" type="curve" smooth="yes"/>
      <point x="566" y="77"/>
      <point x="463" y="-10"/>
      <point x="345" y="-10" type="curve" smooth="yes"/>
      <point x="278" y="-10"/>
      <point x="223" y="20"/>
      <point x="188" y="75" type="curve"/>
      <point x="188" y="-220" type="line"/>
      <point x="62" y="-220" type="line"/>
      <point x="62" y="780" type="line"/>
      <point x="188" y="780" type="line"/>
      <point x="188" y="385" type="line"/>
      <point x="223" y="440"/>
      <point x="278" y="470"/>
      <point x="345" y="470" type="curve" smooth="yes"/>
      <point x="463" y="470"/>
      <point x="566" y="383"/>
    </contour>
    <contour>
      <point x="436" y="230" type="curve" smooth="yes"/>
      <point x="436" y="314"/>
      <point x="378" y="365"/>
      <point x="309" y="365" type="curve" smooth="yes"/>
      <point x="251" y="365"/>
      <point x="188" y="316"/>
      <point x="188" y="230" type="curve" smooth="yes"/>
      <point x="188" y="144"/>
      <point x="251" y="95"/>
      <point x="309" y="95" type="curve" smooth="yes"/>
      <point x="378" y="95"/>
      <point x="436" y="146"/>
    </contour>
  </outline>
</glyph>
<glyph name="ydieresis" format="1">
  <advance width="496"/>
  <unicode hex="00FF"/>
  <outline>
    <contour>
      <point x="503" y="460" type="line"/>
      <point x="203" y="-220" type="line"/>
      <point x="70" y="-220" type="line"/>
      <point x="186" y="46" type="line"/>
      <point x="-7" y="460" type="line"/>
      <point x="139" y="460" type="line"/>
      <point x="253" y="174" type="line"/>
      <point x="368" y="460" type="line"/>
    </contour>
    <contour>
      <point x="286" y="604" type="curve" smooth="yes"/>
      <point x="286" y="646"/>
      <point x="320" y="678"/>
      <point x="364" y="678" type="curve" smooth="yes"/>
      <point x="408" y="678"/>
      <point x="442" y="646"/>
      <point x="442" y="604" type="curve" smooth="yes"/>
      <point x="442" y="562"/>
      <point x="408" y="530"/>
      <point x="364" y="530" type="curve" smooth="yes"/>
      <point x="320" y="530"/>
      <point x="286" y="562"/>
    </contour>
    <contour>
      <point x="54" y="604" type="curve" smooth="yes"/>
      <point x="54" y="646"/>
      <point x="88" y="678"/>
      <point x="132" y="678" type="curve" smooth="yes"/>
      <point x="176" y="678"/>
      <point x="210" y="646"/>
      <point x="210" y="604" type="curve" smooth="yes"/>
      <point x="210" y="562"/>
      <point x="176" y="530"/>
      <point x="132" y="530" type="curve" smooth="yes"/>
      <point x="88" y="530"/>
      <point x="54" y="562"/>
    </contour>
  </outline>
</glyph>
<glyph name="Amacron" format="1">
  <advance width="712"/>
  <unicode hex="0100"/>
  <outline>
    <contour>
      <point x="270" y="272" type="line"/>
      <point x="442" y="272" type="line"/>
      <point x="356" y="472" type="line"/>
    </contour>
    <contour>
      <point x="236" y="158" type="line"/>
      <point x="163" y="0" type="line"/>
      <point x="0" y="0" type="line"/>
      <point x="356" y="742" type="line"/>
      <point x="712" y="0" type="line"/>
      <point x="549" y="0" type="line"/>
      <point x="476" y="158" type="line"/>
    </contour>
    <contour>
      <point x="174" y="802" type="line"/>
      <point x="174" y="916" type="line"/>
      <point x="538" y="916" type="line"/>
      <point x="538" y="802" type="line"/>
    </contour>
  </outline>
</glyph>
<glyph name="abreve" format="1">
  <advance width="526"/>
  <unicode hex="0103"/>
  <outline>
    <contour>
      <point x="156" y="137" type="curve" smooth="yes"/>
      <point x="156" y="99"/>
      <point x="185" y="80"/>
      <point x="232" y="80" type="curve" smooth="yes"/>
      <point x="294" y="80"/>
      <point x="345" y="106"/>
      <point x="345" y="184" type="curve" smooth="yes"/>
      <point x="345" y="185" type="line"/>
      <point x="318" y="199"/>
      <point x="288" y="206"/>
      <point x="250" y="206" type="curve" smooth="yes"/>
      <point x="190" y="206"/>
      <point x="156" y="179"/>
    </contour>
    <contour>
      <point x="116" y="328" type="curve"/>
      <point x="68" y="418" type="line"/>
      <point x="116" y="443"/>
      <point x="185" y="472"/>
      <point x="268" y="472" type="curve" smooth="yes"/>
      <point x="386" y="472"/>
      <point x="470" y="420"/>
      <point x="470" y="326" type="curve" smooth="yes"/>
      <point x="470" y="0" type="line"/>
      <point x="345" y="0" type="line"/>
      <point x="345" y="66" type="line"/>
      <point x="318" y="17"/>
      <point x="259" y="-10"/>
      <point x="190" y="-10" type="curve" smooth="yes"/>
      <point x="90" y="-10"/>
      <point x="26" y="41"/>
      <point x="26" y="127" type="curve" smooth="yes"/>
      <point x="26" y="225"/>
      <point x="108" y="281"/>
      <point x="224" y="281" type="curve" smooth="yes"/>
      <point x="272" y="281"/>
      <point x="316" y="266"/>
      <point x="345" y="251" type="curve"/>
      <point x="345" y="305" type="line" smooth="yes"/>
      <point x="345" y="346"/>
      <point x="309" y="370"/>
      <point x="259" y="370" type="curve" smooth="yes"/>
      <point x="193" y="370"/>
      <point x="138" y="342"/>
    </contour>
    <contour>
      <point x="106" y="677" type="curve"/>
      <point x="196" y="677" type="line"/>
      <point x="196" y="644"/>
      <point x="220" y="612"/>
      <point x="268" y="612" type="curve" smooth="yes"/>
      <point x="316" y="612"/>
      <point x="340" y="644"/>
      <point x="340" y="677" type="curve"/>
      <point x="430" y="677" type="line"/>
      <point x="430" y="599"/>
      <point x="373" y="532"/>
      <point x="268" y="532" type="curve" smooth="yes"/>
      <point x="163" y="532"/>
      <point x="106" y="599"/>
    </contour>
  </outline>
</glyph>
<glyph name="Aogonek" format="1">
  <advance width="712"/>
  <unicode hex="0104"/>
  <outline>
    <contour>
      <point x="270" y="272" type="line"/>
      <point x="442" y="272" type="line"/>
      <point x="356" y="472" type="line"/>
    </contour>
    <contour>
      <point x="688" y="-111" type="curve"/>
      <point x="720" y="-174" type="line"/>
      <point x="705" y="-194"/>
      <point x="676" y="-214"/>
      <point x="624" y="-214" type="curve" smooth="yes"/>
      <point x="554" y="-214"/>
      <point x="506" y="-178"/>
      <point x="506" y="-114" type="curve" smooth="yes"/>
      <point x="506" y="-67"/>
      <point x="542" y="-30"/>
      <point x="589" y="0" type="curve"/>
      <point x="549" y="0" type="line"/>
      <point x="476" y="158" type="line"/>
      <point x="236" y="158" type="line"/>
      <point x="163" y="0" type="line"/>
      <point x="0" y="0" type="line"/>
      <point x="356" y="742" type="line"/>
      <point x="712" y="0" type="line"/>
      <point x="671" y="0" type="line"/>
      <point x="626" y="-26"/>
      <point x="598" y="-60"/>
      <point x="598" y="-90" type="curve" smooth="yes"/>
      <point x="598" y="-118"/>
      <point x="612" y="-131"/>
      <point x="638" y="-131" type="curve" smooth="yes"/>
      <point x="660" y="-131"/>
      <point x="674" y="-124"/>
    </contour>
  </outline>
</glyph>
<glyph name="aogonek" format="1">
  <advance width="526"/>
  <unicode hex="0105"/>
  <outline>
    <contour>
      <point x="156" y="137" type="curve" smooth="yes"/>
      <point x="156" y="99"/>
      <point x="185" y="80"/>
      <point x="232" y="80" type="curve" smooth="yes"/>
      <point x="294" y="80"/>
      <point x="345" y="106"/>
      <point x="345" y="184" type="curve" smooth="yes"/>
      <point x="345" y="185" type="line"/>
      <point x="318" y="199"/>
      <point x="288" y="206"/>
      <point x="250" y="206" type="curve" smooth="yes"/>
      <point x="190" y="206"/>
      <point x="156" y="179"/>
    </contour>
    <contour>
      <point x="460" y="-116" type="curve"/>
      <point x="493" y="-178" type="line"/>
      <point x="478" y="-198"/>
      <point x="448" y="-218"/>
      <point x="396" y="-218" type="curve" smooth="yes"/>
      <point x="326" y="-218"/>
      <point x="278" y="-182"/>
      <point x="278" y="-118" type="curve" smooth="yes"/>
      <point x="278" y="-69"/>
      <point x="318" y="-31"/>
      <point x="368" y="0" type="curve"/>
      <point x="345" y="0" type="line"/>
      <point x="345" y="66" type="line"/>
      <point x="318" y="17"/>
      <point x="259" y="-10"/>
      <point x="190" y="-10" type="curve" smooth="yes"/>
      <point x="90" y="-10"/>
      <point x="26" y="41"/>
      <point x="26" y="127" type="curve" smooth="yes"/>
      <point x="26" y="225"/>
      <point x="108" y="281"/>
      <point x="224" y="281" type="curve" smooth="yes"/>
      <point x="272" y="281"/>
      <point x="316" y="266"/>
      <point x="345" y="251" type="curve"/>
      <point x="345" y="305" type="line" smooth="yes"/>
      <point x="345" y="346"/>
      <point x="309" y="370"/>
      <point x="259" y="370" type="curve" smooth="yes"/>
      <point x="193" y="370"/>
      <point x="138" y="342"/>
      <point x="116" y="328" type="curve"/>
      <point x="68" y="418" type="line"/>
      <point x="116" y="443"/>
      <point x="185" y="472"/>
      <point x="268" y="472" type="curve" smooth="yes"/>
      <point x="386" y="472"/>
      <point x="470" y="420"/>
      <point x="470" y="326" type="curve" smooth="yes"/>
      <point x="470" y="0" type="line"/>
      <point x="451" y="0" type="line"/>
      <point x="401" y="-26"/>
      <point x="371" y="-63"/>
      <point x="371" y="-94" type="curve" smooth="yes"/>
      <point x="371" y="-122"/>
      <point x="384" y="-136"/>
      <point x="410" y="-136" type="curve" smooth="yes"/>
      <point x="432" y="-136"/>
      <point x="446" y="-129"/>
    </contour>
  </outline>
</glyph>
<glyph name="Cdotaccent" format="1">
  <advance width="695"/>
  <unicode hex="010A"/>
  <outline>
    <contour>
      <point x="192" y="350" type="curve" smooth="yes"/>
      <point x="192" y="212"/>
      <point x="296" y="124"/>
      <point x="416" y="124" type="curve" smooth="yes"/>
      <point x="515" y="124"/>
      <point x="583" y="166"/>
      <point x="630" y="220" type="curve"/>
      <point x="630" y="58" type="line"/>
      <point x="573" y="12"/>
      <point x="512" y="-14"/>
      <point x="410" y="-14" type="curve" smooth="yes"/>
      <point x="194" y="-14"/>
      <point x="36" y="134"/>
      <point x="36" y="350" type="curve" smooth="yes"/>
      <point x="36" y="566"/>
      <point x="194" y="714"/>
      <point x="410" y="714" type="curve" smooth="yes"/>
      <point x="512" y="714"/>
      <point x="573" y="688"/>
      <point x="630" y="642" type="curve"/>
      <point x="630" y="480" type="line"/>
      <point x="583" y="534"/>
      <point x="515" y="576"/>
      <point x="416" y="576" type="curve" smooth="yes"/>
      <point x="296" y="576"/>
      <point x="192" y="488"/>
    </contour>
    <contour>
      <point x="310" y="848" type="curve" smooth="yes"/>
      <point x="310" y="890"/>
      <point x="344" y="922"/>
      <point x="388" y="922" type="curve" smooth="yes"/>
      <point x="432" y="922"/>
      <point x="466" y="890"/>
      <point x="466" y="848" type="curve" smooth="yes"/>
      <point x="466" y="806"/>
      <point x="432" y="774"/>
      <point x="388" y="774" type="curve" smooth="yes"/>
      <point x="344" y="774"/>
      <point x="310" y="806"/>
    </contour>
  </outline>
</glyph>
<glyph name="cdotaccent" format="1">
  <advance width="488"/>
  <unicode hex="010B"/>
  <outline>
    <contour>
      <point x="164" y="230" type="curve" smooth="yes"/>
      <point x="164" y="150"/>
      <point x="222" y="96"/>
      <point x="296" y="96" type="curve" smooth="yes"/>
      <point x="356" y="96"/>
      <point x="413" y="126"/>
      <point x="439" y="170" type="curve"/>
      <point x="439" y="37" type="line"/>
      <point x="407" y="7"/>
      <point x="356" y="-10"/>
      <point x="288" y="-10" type="curve" smooth="yes"/>
      <point x="140" y="-10"/>
      <point x="30" y="86"/>
      <point x="30" y="230" type="curve" smooth="yes"/>
      <point x="30" y="374"/>
      <point x="140" y="470"/>
      <point x="288" y="470" type="curve" smooth="yes"/>
      <point x="356" y="470"/>
      <point x="407" y="450"/>
      <point x="439" y="424" type="curve"/>
      <point x="439" y="290" type="line"/>
      <point x="413" y="334"/>
      <point x="352" y="364"/>
      <point x="296" y="364" type="curve" smooth="yes"/>
      <point x="222" y="364"/>
      <point x="164" y="306"/>
    </contour>
    <contour>
      <point x="188" y="604" type="curve" smooth="yes"/>
      <point x="188" y="646"/>
      <point x="222" y="678"/>
      <point x="266" y="678" type="curve" smooth="yes"/>
      <point x="310" y="678"/>
      <point x="344" y="646"/>
      <point x="344" y="604" type="curve" smooth="yes"/>
      <point x="344" y="562"/>
      <point x="310" y="530"/>
      <point x="266" y="530" type="curve" smooth="yes"/>
      <point x="222" y="530"/>
      <point x="188" y="562"/>
    </contour>
  </outline>
</glyph>
<glyph name="ccaron" format="1">
  <advance width="488"/>
  <unicode hex="010D"/>
  <outline>
    <contour>
      <point x="164" y="230" type="curve" smooth="yes"/>
      <point x="164" y="150"/>
      <point x="222" y="96"/>
      <point x="296" y="96" type="curve" smooth="yes"/>
      <point x="356" y="96"/>
      <point x="413" y="126"/>
      <point x="439" y="170" type="curve"/>
      <point x="439" y="37" type="line"/>
      <point x="407" y="7"/>
      <point x="356" y="-10"/>
      <point x="288" y="-10" type="curve" smooth="yes"/>
      <point x="140" y="-10"/>
      <point x="30" y="86"/>
      <point x="30" y="230" type="curve" smooth="yes"/>
      <point x="30" y="374"/>
      <point x="140" y="470"/>
      <point x="288" y="470" type="curve" smooth="yes"/>
      <point x="356" y="470"/>
      <point x="407" y="450"/>
      <point x="439" y="424" type="curve"/>
      <point x="439" y="290" type="line"/>
      <point x="413" y="334"/>
      <point x="352" y="364"/>
      <point x="296" y="364" type="curve" smooth="yes"/>
      <point x="222" y="364"/>
      <point x="164" y="306"/>
    </contour>
    <contour>
      <point x="266" y="644" type="line"/>
      <point x="362" y="732" type="line"/>
      <point x="452" y="670" type="line"/>
      <point x="266" y="530" type="line"/>
      <point x="80" y="670" type="line"/>
      <point x="169" y="732" type="line"/>
    </contour>
  </outline>
</glyph>
<glyph name="dcroat" format="1">
  <advance width="602"/>
  <unicode hex="0111"/>
  <outline>
    <contour>
      <point x="33" y="230" type="curve" smooth="yes"/>
      <point x="33" y="384"/>
      <point x="138" y="470"/>
      <point x="254" y="470" type="curve" smooth="yes"/>
      <point x="321" y="470"/>
      <point x="377" y="439"/>
      <point x="412" y="384" type="curve"/>
      <point x="412" y="572" type="line"/>
      <point x="295" y="572" type="line"/>
      <point x="295" y="665" type="line"/>
      <point x="412" y="665" type="line"/>
      <point x="412" y="780" type="line"/>
      <point x="542" y="780" type="line"/>
      <point x="542" y="665" type="line"/>
      <point x="635" y="665" type="line"/>
      <point x="635" y="572" type="line"/>
      <point x="542" y="572" type="line"/>
      <point x="542" y="0" type="line"/>
      <point x="412" y="0" type="line"/>
      <point x="412" y="76" type="line"/>
      <point x="377" y="21"/>
      <point x="321" y="-10"/>
      <point x="254" y="-10" type="curve" smooth="yes"/>
      <point x="138" y="-10"/>
      <point x="33" y="76"/>
    </contour>
    <contour>
      <point x="168" y="230" type="curve" smooth="yes"/>
      <point x="168" y="148"/>
      <point x="224" y="98"/>
      <point x="292" y="98" type="curve" smooth="yes"/>
      <point x="348" y="98"/>
      <point x="412" y="146"/>
      <point x="412" y="230" type="curve" smooth="yes"/>
      <point x="412" y="314"/>
      <point x="348" y="362"/>
      <point x="292" y="362" type="curve" smooth="yes"/>
      <point x="224" y="362"/>
      <point x="168" y="312"/>
    </contour>
  </outline>
</glyph>
<glyph name="Ebreve" format="1">
  <advance width="587"/>
  <unicode hex="0114"/>
  <outline>
    <contour>
      <point x="216" y="312" type="line"/>
      <point x="216" y="122" type="line"/>
      <point x="522" y="122" type="line"/>
      <point x="522" y="0" type="line"/>
      <point x="216" y="0" type="line"/>
      <point x="168" y="0" type="line"/>
      <point x="76" y="0" type="line"/>
      <point x="76" y="700" type="line"/>
      <point x="168" y="700" type="line"/>
      <point x="216" y="700" type="line"/>
      <point x="522" y="700" type="line"/>
      <point x="522" y="578" type="line"/>
      <point x="216" y="578" type="line"/>
      <point x="216" y="431" type="line"/>
      <point x="502" y="431" type="line"/>
      <point x="502" y="312" type="line"/>
    </contour>
    <contour>
      <point x="136" y="918" type="curve"/>
      <point x="226" y="918" type="line"/>
      <point x="226" y="885"/>
      <point x="250" y="854"/>
      <point x="298" y="854" type="curve" smooth="yes"/>
      <point x="346" y="854"/>
      <point x="370" y="885"/>
      <point x="370" y="918" type="curve"/>
      <point x="460" y="918" type="line"/>
      <point x="460" y="840"/>
      <point x="403" y="774"/>
      <point x="298" y="774" type="curve" smooth="yes"/>
      <point x="193" y="774"/>
      <point x="136" y="840"/>
    </contour>
  </outline>
</glyph>
<glyph name="ebreve" format="1">
  <advance width="555"/>
  <unicode hex="0115"/>
  <outline>
    <contour>
      <point x="382" y="281" type="line"/>
      <point x="374" y="342"/>
      <point x="341" y="378"/>
      <point x="280" y="378" type="curve" smooth="yes"/>
      <point x="221" y="378"/>
      <point x="177" y="343"/>
      <point x="168" y="281" type="curve"/>
    </contour>
    <contour>
      <point x="165" y="202" type="line"/>
      <point x="174" y="124"/>
      <point x="221" y="90"/>
      <point x="282" y="90" type="curve" smooth="yes"/>
      <point x="340" y="90"/>
      <point x="382" y="113"/>
      <point x="406" y="155" type="curve"/>
      <point x="520" y="120" type="line"/>
      <point x="474" y="42"/>
      <point x="410" y="-10"/>
      <point x="282" y="-10" type="curve" smooth="yes"/>
      <point x="127" y="-10"/>
      <point x="33" y="91"/>
      <point x="33" y="230" type="curve" smooth="yes"/>
      <point x="33" y="247"/>
      <point x="34" y="263"/>
      <point x="37" y="279" type="curve" smooth="yes"/>
      <point x="56" y="392"/>
      <point x="141" y="470"/>
      <point x="282" y="470" type="curve" smooth="yes"/>
      <point x="434" y="470"/>
      <point x="522" y="381"/>
      <point x="522" y="236" type="curve" smooth="yes"/>
      <point x="522" y="228"/>
      <point x="522" y="216"/>
      <point x="520" y="202" type="curve"/>
    </contour>
    <contour>
      <point x="120" y="675" type="curve"/>
      <point x="211" y="675" type="line"/>
      <point x="211" y="642"/>
      <point x="234" y="611"/>
      <point x="282" y="611" type="curve" smooth="yes"/>
      <point x="330" y="611"/>
      <point x="354" y="642"/>
      <point x="354" y="675" type="curve"/>
      <point x="446" y="675" type="line"/>
      <point x="446" y="597"/>
      <point x="387" y="530"/>
      <point x="282" y="530" type="curve" smooth="yes"/>
      <point x="177" y="530"/>
      <point x="120" y="597"/>
    </contour>
  </outline>
</glyph>
<glyph name="Edotaccent" format="1">
  <advance width="587"/>
  <unicode hex="0116"/>
  <outline>
    <contour>
      <point x="216" y="312" type="line"/>
      <point x="216" y="122" type="line"/>
      <point x="522" y="122" type="line"/>
      <point x="522" y="0" type="line"/>
      <point x="216" y="0" type="line"/>
      <point x="168" y="0" type="line"/>
      <point x="76" y="0" type="line"/>
      <point x="76" y="700" type="line"/>
      <point x="168" y="700" type="line"/>
      <point x="216" y="700" type="line"/>
      <point x="522" y="700" type="line"/>
      <point x="522" y="578" type="line"/>
      <point x="216" y="578" type="line"/>
      <point x="216" y="431" type="line"/>
      <point x="502" y="431" type="line"/>
      <point x="502" y="312" type="line"/>
    </contour>
    <contour>
      <point x="220" y="850" type="curve" smooth="yes"/>
      <point x="220" y="893"/>
      <point x="254" y="926"/>
      <point x="298" y="926" type="curve" smooth="yes"/>
      <point x="342" y="926"/>
      <point x="378" y="893"/>
      <point x="378" y="850" type="curve" smooth="yes"/>
      <point x="378" y="807"/>
      <point x="342" y="774"/>
      <point x="298" y="774" type="curve" smooth="yes"/>
      <point x="254" y="774"/>
      <point x="220" y="807"/>
    </contour>
  </outline>
</glyph>
<glyph name="Eogonek" format="1">
  <advance width="587"/>
  <unicode hex="0118"/>
  <outline>
    <contour>
      <point x="504" y="-116" type="curve"/>
      <point x="538" y="-179" type="line"/>
      <point x="523" y="-199"/>
      <point x="492" y="-219"/>
      <point x="440" y="-219" type="curve" smooth="yes"/>
      <point x="370" y="-219"/>
      <point x="322" y="-183"/>
      <point x="322" y="-119" type="curve" smooth="yes"/>
      <point x="322" y="-70"/>
      <point x="362" y="-31"/>
      <point x="412" y="0" type="curve"/>
      <point x="216" y="0" type="line"/>
      <point x="168" y="0" type="line"/>
      <point x="76" y="0" type="line"/>
      <point x="76" y="700" type="line"/>
      <point x="168" y="700" type="line"/>
      <point x="216" y="700" type="line"/>
      <point x="522" y="700" type="line"/>
      <point x="522" y="578" type="line"/>
      <point x="216" y="578" type="line"/>
      <point x="216" y="431" type="line"/>
      <point x="502" y="431" type="line"/>
      <point x="502" y="312" type="line"/>
      <point x="216" y="312" type="line"/>
      <point x="216" y="122" type="line"/>
      <point x="522" y="122" type="line"/>
      <point x="522" y="0" type="line"/>
      <point x="498" y="0" type="line"/>
      <point x="447" y="-26"/>
      <point x="415" y="-63"/>
      <point x="415" y="-95" type="curve" smooth="yes"/>
      <point x="415" y="-123"/>
      <point x="428" y="-136"/>
      <point x="454" y="-136" type="curve" smooth="yes"/>
      <point x="476" y="-136"/>
      <point x="490" y="-129"/>
    </contour>
  </outline>
</glyph>
<glyph name="eogonek" format="1">
  <advance width="555"/>
  <unicode hex="0119"/>
  <outline>
    <contour>
      <point x="382" y="281" type="line"/>
      <point x="374" y="342"/>
      <point x="341" y="378"/>
      <point x="280" y="378" type="curve" smooth="yes"/>
      <point x="221" y="378"/>
      <point x="177" y="343"/>
      <point x="168" y="281" type="curve"/>
    </contour>
    <contour>
      <point x="324" y="-121" type="curve"/>
      <point x="356" y="-185" type="line"/>
      <point x="341" y="-205"/>
      <point x="312" y="-225"/>
      <point x="260" y="-225" type="curve" smooth="yes"/>
      <point x="190" y="-225"/>
      <point x="140" y="-189"/>
      <point x="140" y="-125" type="curve" smooth="yes"/>
      <point x="140" y="-76"/>
      <point x="180" y="-37"/>
      <point x="231" y="-6" type="curve"/>
      <point x="106" y="14"/>
      <point x="33" y="107"/>
      <point x="33" y="230" type="curve" smooth="yes"/>
      <point x="33" y="247"/>
      <point x="34" y="263"/>
      <point x="37" y="279" type="curve" smooth="yes"/>
      <point x="56" y="392"/>
      <point x="141" y="470"/>
      <point x="282" y="470" type="curve" smooth="yes"/>
      <point x="434" y="470"/>
      <point x="522" y="381"/>
      <point x="522" y="236" type="curve" smooth="yes"/>
      <point x="522" y="228"/>
      <point x="522" y="216"/>
      <point x="520" y="202" type="curve"/>
      <point x="165" y="202" type="line"/>
      <point x="174" y="124"/>
      <point x="221" y="90"/>
      <point x="282" y="90" type="curve" smooth="yes"/>
      <point x="340" y="90"/>
      <point x="382" y="113"/>
      <point x="406" y="155" type="curve"/>
      <point x="520" y="120" type="line"/>
      <point x="478" y="48"/>
      <point x="420" y="-2"/>
      <point x="310" y="-9" type="curve"/>
      <point x="263" y="-35"/>
      <point x="234" y="-71"/>
      <point x="234" y="-101" type="curve" smooth="yes"/>
      <point x="234" y="-129"/>
      <point x="248" y="-141"/>
      <point x="274" y="-141" type="curve" smooth="yes"/>
      <point x="296" y="-141"/>
      <point x="310" y="-134"/>
    </contour>
  </outline>
</glyph>
<glyph name="Ecaron" format="1">
  <advance width="587"/>
  <unicode hex="011A"/>
  <outline>
    <contour>
      <point x="216" y="312" type="line"/>
      <point x="216" y="122" type="line"/>
      <point x="522" y="122" type="line"/>
      <point x="522" y="0" type="line"/>
      <point x="216" y="0" type="line"/>
      <point x="168" y="0" type="line"/>
      <point x="76" y="0" type="line"/>
      <point x="76" y="700" type="line"/>
      <point x="168" y="700" type="line"/>
      <point x="216" y="700" type="line"/>
      <point x="522" y="700" type="line"/>
      <point x="522" y="578" type="line"/>
      <point x="216" y="578" type="line"/>
      <point x="216" y="431" type="line"/>
      <point x="502" y="431" type="line"/>
      <point x="502" y="312" type="line"/>
    </contour>
    <contour>
      <point x="298" y="888" type="line"/>
      <point x="396" y="976" type="line"/>
      <point x="485" y="914" type="line"/>
      <point x="298" y="774" type="line"/>
      <point x="112" y="914" type="line"/>
      <point x="202" y="976" type="line"/>
    </contour>
  </outline>
</glyph>
<glyph name="gcircumflex" format="1">
  <advance width="598"/>
  <unicode hex="011D"/>
  <outline>
    <contour>
      <point x="168" y="234" type="curve" smooth="yes"/>
      <point x="168" y="152"/>
      <point x="224" y="106"/>
      <point x="292" y="106" type="curve" smooth="yes"/>
      <point x="348" y="106"/>
      <point x="412" y="150"/>
      <point x="412" y="234" type="curve" smooth="yes"/>
      <point x="412" y="318"/>
      <point x="348" y="362"/>
      <point x="292" y="362" type="curve" smooth="yes"/>
      <point x="224" y="362"/>
      <point x="168" y="316"/>
    </contour>
    <contour>
      <point x="42" y="-32" type="curve"/>
      <point x="169" y="-32" type="line"/>
      <point x="173" y="-91"/>
      <point x="218" y="-129"/>
      <point x="286" y="-129" type="curve" smooth="yes"/>
      <point x="352" y="-129"/>
      <point x="412" y="-84"/>
      <point x="412" y="10" type="curve" smooth="yes"/>
      <point x="412" y="81" type="line"/>
      <point x="377" y="27"/>
      <point x="321" y="-2"/>
      <point x="254" y="-2" type="curve" smooth="yes"/>
      <point x="138" y="-2"/>
      <point x="33" y="80"/>
      <point x="33" y="234" type="curve" smooth="yes"/>
      <point x="33" y="388"/>
      <point x="138" y="470"/>
      <point x="254" y="470" type="curve" smooth="yes"/>
      <point x="321" y="470"/>
      <point x="377" y="441"/>
      <point x="412" y="387" type="curve"/>
      <point x="412" y="460" type="line"/>
      <point x="537" y="460" type="line"/>
      <point x="537" y="10" type="line" smooth="yes"/>
      <point x="537" y="-162"/>
      <point x="424" y="-237"/>
      <point x="292" y="-237" type="curve" smooth="yes"/>
      <point x="131" y="-237"/>
      <point x="50" y="-153"/>
    </contour>
    <contour>
      <point x="293" y="619" type="line"/>
      <point x="197" y="530" type="line"/>
      <point x="108" y="592" type="line"/>
      <point x="293" y="732" type="line"/>
      <point x="480" y="592" type="line"/>
      <point x="390" y="530" type="line"/>
    </contour>
  </outline>
</glyph>
<glyph name="Gbreve" format="1">
  <advance width="802"/>
  <unicode hex="011E"/>
  <outline>
    <contour>
      <point x="416" y="260" type="line"/>
      <point x="416" y="374" type="line"/>
      <point x="762" y="374" type="line"/>
      <point x="770" y="160"/>
      <point x="642" y="-18"/>
      <point x="410" y="-18" type="curve" smooth="yes"/>
      <point x="192" y="-18"/>
      <point x="36" y="132"/>
      <point x="36" y="350" type="curve" smooth="yes"/>
      <point x="36" y="568"/>
      <point x="196" y="714"/>
      <point x="414" y="714" type="curve" smooth="yes"/>
      <point x="556" y="714"/>
      <point x="659" y="651"/>
      <point x="723" y="554" type="curve"/>
      <point x="600" y="482" type="line"/>
      <point x="564" y="542"/>
      <point x="504" y="585"/>
      <point x="414" y="585" type="curve" smooth="yes"/>
      <point x="288" y="585"/>
      <point x="186" y="496"/>
      <point x="186" y="350" type="curve" smooth="yes"/>
      <point x="186" y="204"/>
      <point x="284" y="110"/>
      <point x="414" y="110" type="curve" smooth="yes"/>
      <point x="529" y="110"/>
      <point x="590" y="174"/>
      <point x="615" y="260" type="curve"/>
    </contour>
    <contour>
      <point x="252" y="918" type="curve"/>
      <point x="343" y="918" type="line"/>
      <point x="343" y="885"/>
      <point x="366" y="854"/>
      <point x="414" y="854" type="curve" smooth="yes"/>
      <point x="462" y="854"/>
      <point x="486" y="885"/>
      <point x="486" y="918" type="curve"/>
      <point x="578" y="918" type="line"/>
      <point x="578" y="840"/>
      <point x="519" y="774"/>
      <point x="414" y="774" type="curve" smooth="yes"/>
      <point x="309" y="774"/>
      <point x="252" y="840"/>
    </contour>
  </outline>
</glyph>
<glyph name="gbreve" format="1">
  <advance width="598"/>
  <unicode hex="011F"/>
  <outline>
    <contour>
      <point x="168" y="234" type="curve" smooth="yes"/>
      <point x="168" y="152"/>
      <point x="224" y="106"/>
      <point x="292" y="106" type="curve" smooth="yes"/>
      <point x="348" y="106"/>
      <point x="412" y="150"/>
      <point x="412" y="234" type="curve" smooth="yes"/>
      <point x="412" y="318"/>
      <point x="348" y="362"/>
      <point x="292" y="362" type="curve" smooth="yes"/>
      <point x="224" y="362"/>
      <point x="168" y="316"/>
    </contour>
    <contour>
      <point x="42" y="-32" type="curve"/>
      <point x="169" y="-32" type="line"/>
      <point x="173" y="-91"/>
      <point x="218" y="-129"/>
      <point x="286" y="-129" type="curve" smooth="yes"/>
      <point x="352" y="-129"/>
      <point x="412" y="-84"/>
      <point x="412" y="10" type="curve" smooth="yes"/>
      <point x="412" y="81" type="line"/>
      <point x="377" y="27"/>
      <point x="321" y="-2"/>
      <point x="254" y="-2" type="curve" smooth="yes"/>
      <point x="138" y="-2"/>
      <point x="33" y="80"/>
      <point x="33" y="234" type="curve" smooth="yes"/>
      <point x="33" y="388"/>
      <point x="138" y="470"/>
      <point x="254" y="470" type="curve" smooth="yes"/>
      <point x="321" y="470"/>
      <point x="377" y="441"/>
      <point x="412" y="387" type="curve"/>
      <point x="412" y="460" type="line"/>
      <point x="537" y="460" type="line"/>
      <point x="537" y="10" type="line" smooth="yes"/>
      <point x="537" y="-162"/>
      <point x="424" y="-237"/>
      <point x="292" y="-237" type="curve" smooth="yes"/>
      <point x="131" y="-237"/>
      <point x="50" y="-153"/>
    </contour>
    <contour>
      <point x="135" y="675" type="curve"/>
      <point x="226" y="675" type="line"/>
      <point x="226" y="642"/>
      <point x="250" y="611"/>
      <point x="298" y="611" type="curve" smooth="yes"/>
      <point x="346" y="611"/>
      <point x="370" y="642"/>
      <point x="370" y="675" type="curve"/>
      <point x="461" y="675" type="line"/>
      <point x="461" y="597"/>
      <point x="403" y="530"/>
      <point x="298" y="530" type="curve" smooth="yes"/>
      <point x="193" y="530"/>
      <point x="135" y="597"/>
    </contour>
  </outline>
</glyph>
<glyph name="gdotaccent" format="1">
  <advance width="598"/>
  <unicode hex="0121"/>
  <outline>
    <contour>
      <point x="33" y="234" type="curve" smooth="yes"/>
      <point x="33" y="388"/>
      <point x="138" y="470"/>
      <point x="254" y="470" type="curve" smooth="yes"/>
      <point x="321" y="470"/>
      <point x="377" y="441"/>
      <point x="412" y="387" type="curve"/>
      <point x="412" y="460" type="line"/>
      <point x="537" y="460" type="line"/>
      <point x="537" y="10" type="line" smooth="yes"/>
      <point x="537" y="-162"/>
      <point x="424" y="-237"/>
      <point x="292" y="-237" type="curve" smooth="yes"/>
      <point x="131" y="-237"/>
      <point x="50" y="-153"/>
      <point x="42" y="-32" type="curve"/>
      <point x="169" y="-32" type="line"/>
      <point x="173" y="-91"/>
      <point x="218" y="-129"/>
      <point x="286" y="-129" type="curve" smooth="yes"/>
      <point x="352" y="-129"/>
      <point x="412" y="-84"/>
      <point x="412" y="10" type="curve" smooth="yes"/>
      <point x="412" y="81" type="line"/>
      <point x="377" y="27"/>
      <point x="321" y="-2"/>
      <point x="254" y="-2" type="curve" smooth="yes"/>
      <point x="138" y="-2"/>
      <point x="33" y="80"/>
    </contour>
    <contour>
      <point x="168" y="234" type="curve" smooth="yes"/>
      <point x="168" y="152"/>
      <point x="224" y="106"/>
      <point x="292" y="106" type="curve" smooth="yes"/>
      <point x="348" y="106"/>
      <point x="412" y="150"/>
      <point x="412" y="234" type="curve" smooth="yes"/>
      <point x="412" y="318"/>
      <point x="348" y="362"/>
      <point x="292" y="362" type="curve" smooth="yes"/>
      <point x="224" y="362"/>
      <point x="168" y="316"/>
    </contour>
    <contour>
      <point x="246" y="624" type="curve" smooth="yes"/>
      <point x="246" y="666"/>
      <point x="280" y="698"/>
      <point x="324" y="698" type="curve" smooth="yes"/>
      <point x="368" y="698"/>
      <point x="402" y="666"/>
      <point x="402" y="624" type="curve" smooth="yes"/>
      <point x="402" y="582"/>
      <point x="368" y="550"/>
      <point x="324" y="550" type="curve" smooth="yes"/>
      <point x="280" y="550"/>
      <point x="246" y="582"/>
    </contour>
  </outline>
</glyph>
<glyph name="hcircumflex" format="1">
  <advance width="555"/>
  <unicode hex="0125"/>
  <outline>
    <contour>
      <point x="362" y="280" type="line" smooth="yes"/>
      <point x="362" y="340"/>
      <point x="340" y="374"/>
      <point x="286" y="374" type="curve" smooth="yes"/>
      <point x="232" y="374"/>
      <point x="195" y="338"/>
      <point x="195" y="280" type="curve" smooth="yes"/>
      <point x="195" y="0" type="line"/>
      <point x="64" y="0" type="line"/>
      <point x="64" y="780" type="line"/>
      <point x="195" y="780" type="line"/>
      <point x="195" y="400" type="line"/>
      <point x="224" y="446"/>
      <point x="271" y="475"/>
      <point x="334" y="475" type="curve" smooth="yes"/>
      <point x="442" y="475"/>
      <point x="492" y="412"/>
      <point x="492" y="298" type="curve" smooth="yes"/>
      <point x="492" y="0" type="line"/>
      <point x="362" y="0" type="line"/>
    </contour>
    <contour>
      <point x="199" y="928" type="line"/>
      <point x="102" y="840" type="line"/>
      <point x="12" y="902" type="line"/>
      <point x="199" y="1042" type="line"/>
      <point x="386" y="902" type="line"/>
      <point x="296" y="840" type="line"/>
    </contour>
  </outline>
</glyph>
<glyph name="Ibreve" format="1">
  <advance width="297"/>
  <unicode hex="012C"/>
  <outline>
    <contour>
      <point x="76" y="700" type="line"/>
      <point x="222" y="700" type="line"/>
      <point x="222" y="0" type="line"/>
      <point x="76" y="0" type="line"/>
    </contour>
    <contour>
      <point x="-14" y="918" type="curve"/>
      <point x="78" y="918" type="line"/>
      <point x="78" y="885"/>
      <point x="101" y="854"/>
      <point x="149" y="854" type="curve" smooth="yes"/>
      <point x="197" y="854"/>
      <point x="220" y="885"/>
      <point x="220" y="918" type="curve"/>
      <point x="311" y="918" type="line"/>
      <point x="311" y="840"/>
      <point x="254" y="774"/>
      <point x="149" y="774" type="curve" smooth="yes"/>
      <point x="44" y="774"/>
      <point x="-14" y="840"/>
    </contour>
  </outline>
</glyph>
<glyph name="Iogonek" format="1">
  <advance width="297"/>
  <unicode hex="012E"/>
  <outline>
    <contour>
      <point x="208" y="-125" type="curve"/>
      <point x="241" y="-188" type="line"/>
      <point x="226" y="-208"/>
      <point x="197" y="-228"/>
      <point x="145" y="-228" type="curve" smooth="yes"/>
      <point x="75" y="-228"/>
      <point x="26" y="-192"/>
      <point x="26" y="-128" type="curve" smooth="yes"/>
      <point x="26" y="-73"/>
      <point x="74" y="-33"/>
      <point x="132" y="0" type="curve"/>
      <point x="76" y="0" type="line"/>
      <point x="76" y="700" type="line"/>
      <point x="222" y="700" type="line"/>
      <point x="222" y="0" type="line"/>
      <point x="189" y="0" type="line"/>
      <point x="203" y="-8" type="line"/>
      <point x="151" y="-34"/>
      <point x="118" y="-72"/>
      <point x="118" y="-104" type="curve" smooth="yes"/>
      <point x="118" y="-132"/>
      <point x="132" y="-145"/>
      <point x="158" y="-145" type="curve" smooth="yes"/>
      <point x="180" y="-145"/>
      <point x="194" y="-138"/>
    </contour>
  </outline>
</glyph>
<glyph name="Jcircumflex" format="1">
  <advance width="303"/>
  <unicode hex="0134"/>
  <outline>
    <contour>
      <point x="-70" y="-76" type="line"/>
      <point x="-52" y="-96"/>
      <point x="-22" y="-109"/>
      <point x="10" y="-109" type="curve" smooth="yes"/>
      <point x="40" y="-109"/>
      <point x="76" y="-88"/>
      <point x="76" y="-26" type="curve" smooth="yes"/>
      <point x="76" y="700" type="line"/>
      <point x="228" y="700" type="line"/>
      <point x="228" y="-56" type="line" smooth="yes"/>
      <point x="228" y="-182"/>
      <point x="136" y="-234"/>
      <point x="20" y="-234" type="curve" smooth="yes"/>
      <point x="-50" y="-234"/>
      <point x="-116" y="-202"/>
      <point x="-148" y="-178" type="curve"/>
    </contour>
    <contour>
      <point x="152" y="863" type="line"/>
      <point x="55" y="774" type="line"/>
      <point x="-34" y="836" type="line"/>
      <point x="152" y="976" type="line"/>
      <point x="338" y="836" type="line"/>
      <point x="248" y="774" type="line"/>
    </contour>
  </outline>
</glyph>
<glyph name="kgreenlandic" format="1">
  <advance width="536"/>
  <unicode hex="0138"/>
  <outline>
    <contour>
      <point x="355" y="460" type="line"/>
      <point x="512" y="460" type="line"/>
      <point x="314" y="270" type="line"/>
      <point x="532" y="0" type="line"/>
      <point x="377" y="0" type="line"/>
      <point x="187" y="234" type="line"/>
      <point x="187" y="0" type="line"/>
      <point x="62" y="0" type="line"/>
      <point x="62" y="460" type="line"/>
      <point x="187" y="460" type="line"/>
      <point x="187" y="298" type="line"/>
    </contour>
  </outline>
</glyph>
<glyph name="Lcaron" format="1">
  <advance width="504"/>
  <unicode hex="013D"/>
  <outline>
    <contour>
      <point x="76" y="700" type="line"/>
      <point x="220" y="700" type="line"/>
      <point x="220" y="126" type="line"/>
      <point x="499" y="126" type="line"/>
      <point x="499" y="0" type="line"/>
      <point x="220" y="0" type="line"/>
      <point x="168" y="0" type="line"/>
      <point x="76" y="0" type="line"/>
    </contour>
    <contour>
      <point x="368" y="714" type="line"/>
      <point x="499" y="683" type="line"/>
      <point x="378" y="433" type="line"/>
      <point x="280" y="456" type="line"/>
    </contour>
  </outline>
</glyph>
<glyph name="Ldot" format="1">
  <advance width="504"/>
  <unicode hex="013F"/>
  <outline>
    <contour>
      <point x="76" y="700" type="line"/>
      <point x="220" y="700" type="line"/>
      <point x="220" y="126" type="line"/>
      <point x="499" y="126" type="line"/>
      <point x="499" y="0" type="line"/>
      <point x="220" y="0" type="line"/>
      <point x="168" y="0" type="line"/>
      <point x="76" y="0" type="line"/>
    </contour>
    <contour>
      <point x="300" y="417" type="curve" smooth="yes"/>
      <point x="300" y="461"/>
      <point x="334" y="498"/>
      <point x="382" y="498" type="curve" smooth="yes"/>
      <point x="430" y="498"/>
      <point x="464" y="461"/>
      <point x="464" y="417" type="curve" smooth="yes"/>
      <point x="464" y="373"/>
      <point x="430" y="336"/>
      <point x="382" y="336" type="curve" smooth="yes"/>
      <point x="334" y="336"/>
      <point x="300" y="373"/>
    </contour>
  </outline>
</glyph>
<glyph name="Lslash" format="1">
  <advance width="503"/>
  <unicode hex="0141"/>
  <outline>
    <contour>
      <point x="76" y="700" type="line"/>
      <point x="214" y="700" type="line"/>
      <point x="214" y="547" type="line"/>
      <point x="302" y="605" type="line"/>
      <point x="334" y="538" type="line"/>
      <point x="214" y="458" type="line"/>
      <point x="214" y="122" type="line"/>
      <point x="494" y="122" type="line"/>
      <point x="494" y="0" type="line"/>
      <point x="214" y="0" type="line"/>
      <point x="176" y="0" type="line"/>
      <point x="76" y="0" type="line"/>
      <point x="76" y="367" type="line"/>
      <point x="5" y="320" type="line"/>
      <point x="-27" y="388" type="line"/>
      <point x="76" y="456" type="line"/>
    </contour>
  </outline>
</glyph>
<glyph name="lslash" format="1">
  <advance width="255"/>
  <unicode hex="0142"/>
  <outline>
    <contour>
      <point x="65" y="780" type="line"/>
      <point x="190" y="780" type="line"/>
      <point x="190" y="531" type="line"/>
      <point x="266" y="580" type="line"/>
      <point x="298" y="514" type="line"/>
      <point x="190" y="444" type="line"/>
      <point x="190" y="0" type="line"/>
      <point x="65" y="0" type="line"/>
      <point x="65" y="363" type="line"/>
      <point x="-2" y="320" type="line"/>
      <point x="-34" y="388" type="line"/>
      <point x="65" y="451" type="line"/>
    </contour>
  </outline>
</glyph>
<glyph name="nacute" format="1">
  <advance width="560"/>
  <unicode hex="0144"/>
  <outline>
    <contour>
      <point x="362" y="280" type="line" smooth="yes"/>
      <point x="362" y="340"/>
      <point x="340" y="374"/>
      <point x="286" y="374" type="curve" smooth="yes"/>
      <point x="232" y="374"/>
      <point x="195" y="338"/>
      <point x="195" y="280" type="curve" smooth="yes"/>
      <point x="195" y="0" type="line"/>
      <point x="64" y="0" type="line"/>
      <point x="64" y="460" type="line"/>
      <point x="195" y="460" type="line"/>
      <point x="195" y="396" type="line"/>
      <point x="224" y="441"/>
      <point x="271" y="470"/>
      <point x="334" y="470" type="curve" smooth="yes"/>
      <point x="442" y="470"/>
      <point x="496" y="408"/>
      <point x="496" y="294" type="curve" smooth="yes"/>
      <point x="496" y="0" type="line"/>
      <point x="362" y="0" type="line"/>
    </contour>
    <contour>
      <point x="431" y="680" type="line"/>
      <point x="251" y="530" type="line"/>
      <point x="178" y="569" type="line"/>
      <point x="328" y="729" type="line"/>
    </contour>
  </outline>
</glyph>
<glyph name="Obreve" format="1">
  <advance width="811"/>
  <unicode hex="014E"/>
  <outline>
    <contour>
      <point x="188" y="350" type="curve" smooth="yes"/>
      <point x="188" y="216"/>
      <point x="278" y="120"/>
      <point x="406" y="120" type="curve" smooth="yes"/>
      <point x="534" y="120"/>
      <point x="624" y="216"/>
      <point x="624" y="350" type="curve" smooth="yes"/>
      <point x="624" y="484"/>
      <point x="537" y="580"/>
      <point x="406" y="580" type="curve" smooth="yes"/>
      <point x="278" y="580"/>
      <point x="188" y="484"/>
    </contour>
    <contour>
      <point x="36" y="350" type="curve" smooth="yes"/>
      <point x="36" y="562"/>
      <point x="195" y="714"/>
      <point x="406" y="714" type="curve" smooth="yes"/>
      <point x="618" y="714"/>
      <point x="776" y="562"/>
      <point x="776" y="350" type="curve" smooth="yes"/>
      <point x="776" y="138"/>
      <point x="621" y="-18"/>
      <point x="406" y="-18" type="curve" smooth="yes"/>
      <point x="191" y="-18"/>
      <point x="36" y="138"/>
    </contour>
    <contour>
      <point x="244" y="918" type="curve"/>
      <point x="334" y="918" type="line"/>
      <point x="334" y="885"/>
      <point x="358" y="854"/>
      <point x="406" y="854" type="curve" smooth="yes"/>
      <point x="454" y="854"/>
      <point x="478" y="885"/>
      <point x="478" y="918" type="curve"/>
      <point x="568" y="918" type="line"/>
      <point x="568" y="840"/>
      <point x="511" y="774"/>
      <point x="406" y="774" type="curve" smooth="yes"/>
      <point x="301" y="774"/>
      <point x="244" y="840"/>
    </contour>
  </outline>
</glyph>
<glyph name="OE" format="1">
  <advance width="985"/>
  <unicode hex="0152"/>
  <outline>
    <contour>
      <point x="493" y="572" type="line"/>
      <point x="412" y="572" type="line" smooth="yes"/>
      <point x="268" y="572"/>
      <point x="184" y="491"/>
      <point x="184" y="350" type="curve" smooth="yes"/>
      <point x="184" y="209"/>
      <point x="268" y="128"/>
      <point x="412" y="128" type="curve" smooth="yes"/>
      <point x="493" y="128" type="line"/>
    </contour>
    <contour>
      <point x="940" y="122" type="line"/>
      <point x="940" y="0" type="line"/>
      <point x="390" y="0" type="line" smooth="yes"/>
      <point x="187" y="0"/>
      <point x="36" y="141"/>
      <point x="36" y="350" type="curve" smooth="yes"/>
      <point x="36" y="559"/>
      <point x="186" y="700"/>
      <point x="390" y="700" type="curve" smooth="yes"/>
      <point x="940" y="700" type="line"/>
      <point x="940" y="578" type="line"/>
      <point x="633" y="578" type="line"/>
      <point x="633" y="431" type="line"/>
      <point x="920" y="431" type="line"/>
      <point x="920" y="312" type="line"/>
      <point x="633" y="312" type="line"/>
      <point x="633" y="122" type="line"/>
    </contour>
  </outline>
</glyph>
<glyph name="oe" format="1">
  <advance width="900"/>
  <unicode hex="0153"/>
  <outline>
    <contour>
      <point x="513" y="280" type="curve"/>
      <point x="726" y="280" type="line"/>
      <point x="718" y="341"/>
      <point x="685" y="378"/>
      <point x="626" y="378" type="curve" smooth="yes"/>
      <point x="570" y="378"/>
      <point x="521" y="345"/>
    </contour>
    <contour>
      <point x="35" y="230" type="curve" smooth="yes"/>
      <point x="35" y="379"/>
      <point x="138" y="470"/>
      <point x="263" y="470" type="curve" smooth="yes"/>
      <point x="355" y="470"/>
      <point x="421" y="420"/>
      <point x="450" y="335" type="curve"/>
      <point x="484" y="417"/>
      <point x="560" y="470"/>
      <point x="658" y="470" type="curve" smooth="yes"/>
      <point x="768" y="470"/>
      <point x="865" y="379"/>
      <point x="865" y="234" type="curve" smooth="yes"/>
      <point x="865" y="226"/>
      <point x="865" y="210"/>
      <point x="864" y="202" type="curve"/>
      <point x="512" y="202" type="line"/>
      <point x="521" y="128"/>
      <point x="564" y="87"/>
      <point x="628" y="87" type="curve" smooth="yes"/>
      <point x="686" y="87"/>
      <point x="722" y="114"/>
      <point x="750" y="156" type="curve"/>
      <point x="864" y="120" type="line"/>
      <point x="822" y="46"/>
      <point x="743" y="-10"/>
      <point x="644" y="-10" type="curve" smooth="yes"/>
      <point x="554" y="-10"/>
      <point x="483" y="42"/>
      <point x="450" y="123" type="curve"/>
      <point x="421" y="38"/>
      <point x="355" y="-10"/>
      <point x="263" y="-10" type="curve" smooth="yes"/>
      <point x="138" y="-10"/>
      <point x="35" y="81"/>
    </contour>
    <contour>
      <point x="164" y="230" type="curve" smooth="yes"/>
      <point x="164" y="146"/>
      <point x="218" y="100"/>
      <point x="286" y="100" type="curve" smooth="yes"/>
      <point x="348" y="100"/>
      <point x="396" y="146"/>
      <point x="396" y="230" type="curve" smooth="yes"/>
      <point x="396" y="314"/>
      <point x="348" y="360"/>
      <point x="286" y="360" type="curve" smooth="yes"/>
      <point x="218" y="360"/>
      <point x="164" y="314"/>
    </contour>
  </outline>
</glyph>
<glyph name="uni0156" format="1">
  <advance width="621"/>
  <unicode hex="0156"/>
  <outline>
    <contour>
      <point x="220" y="368" type="line"/>
      <point x="303" y="368" type="line" smooth="yes"/>
      <point x="377" y="368"/>
      <point x="425" y="406"/>
      <point x="425" y="472" type="curve" smooth="yes"/>
      <point x="425" y="538"/>
      <point x="377" y="577"/>
      <point x="303" y="577" type="curve" smooth="yes"/>
      <point x="220" y="577" type="line"/>
    </contour>
    <contour>
      <point x="220" y="254" type="line"/>
      <point x="220" y="0" type="line"/>
      <point x="76" y="0" type="line"/>
      <point x="76" y="700" type="line"/>
      <point x="164" y="700" type="line"/>
      <point x="220" y="700" type="line"/>
      <point x="312" y="700" type="line" smooth="yes"/>
      <point x="477" y="700"/>
      <point x="574" y="610"/>
      <point x="574" y="476" type="curve" smooth="yes"/>
      <point x="574" y="377"/>
      <point x="520" y="303"/>
      <point x="426" y="271" type="curve"/>
      <point x="616" y="0" type="line"/>
      <point x="445" y="0" type="line"/>
      <point x="281" y="254" type="line"/>
    </contour>
    <contour>
      <point x="324" y="-60" type="line"/>
      <point x="454" y="-92" type="line"/>
      <point x="334" y="-342" type="line"/>
      <point x="236" y="-319" type="line"/>
    </contour>
  </outline>
</glyph>
<glyph name="rcaron" format="1">
  <advance width="390"/>
  <unicode hex="0159"/>
  <outline>
    <contour>
      <point x="327" y="324" type="line"/>
      <point x="309" y="340"/>
      <point x="293" y="350"/>
      <point x="267" y="350" type="curve" smooth="yes"/>
      <point x="218" y="350"/>
      <point x="192" y="309"/>
      <point x="192" y="243" type="curve" smooth="yes"/>
      <point x="192" y="0" type="line"/>
      <point x="64" y="0" type="line"/>
      <point x="64" y="460" type="line"/>
      <point x="192" y="460" type="line"/>
      <point x="192" y="403" type="line"/>
      <point x="220" y="444"/>
      <point x="261" y="470"/>
      <point x="302" y="470" type="curve" smooth="yes"/>
      <point x="335" y="470"/>
      <point x="368" y="458"/>
      <point x="386" y="434" type="curve"/>
    </contour>
    <contour>
      <point x="225" y="644" type="line"/>
      <point x="322" y="732" type="line"/>
      <point x="411" y="670" type="line"/>
      <point x="225" y="530" type="line"/>
      <point x="39" y="670" type="line"/>
      <point x="128" y="732" type="line"/>
    </contour>
  </outline>
</glyph>
<glyph name="Scedilla" format="1">
  <advance width="602"/>
  <unicode hex="015E"/>
  <outline>
    <contour>
      <point x="140" y="244" type="line"/>
      <point x="186" y="156"/>
      <point x="236" y="108"/>
      <point x="314" y="108" type="curve" smooth="yes"/>
      <point x="376" y="108"/>
      <point x="410" y="138"/>
      <point x="410" y="190" type="curve" smooth="yes"/>
      <point x="410" y="258"/>
      <point x="340" y="282"/>
      <point x="260" y="313" type="curve" smooth="yes"/>
      <point x="190" y="339"/>
      <point x="74" y="393"/>
      <point x="74" y="524" type="curve" smooth="yes"/>
      <point x="74" y="638"/>
      <point x="172" y="714"/>
      <point x="308" y="714" type="curve" smooth="yes"/>
      <point x="447" y="714"/>
      <point x="524" y="633"/>
      <point x="552" y="562" type="curve"/>
      <point x="442" y="496" type="line"/>
      <point x="412" y="550"/>
      <point x="375" y="589"/>
      <point x="314" y="589" type="curve" smooth="yes"/>
      <point x="258" y="589"/>
      <point x="223" y="562"/>
      <point x="223" y="518" type="curve" smooth="yes"/>
      <point x="223" y="464"/>
      <point x="300" y="438"/>
      <point x="384" y="408" type="curve" smooth="yes"/>
      <point x="474" y="376"/>
      <point x="561" y="316"/>
      <point x="561" y="194" type="curve" smooth="yes"/>
      <point x="561" y="67"/>
      <point x="477" y="-8"/>
      <point x="338" y="-17" type="curve"/>
      <point x="309" y="-61" type="line"/>
      <point x="318" y="-59"/>
      <point x="328" y="-58"/>
      <point x="338" y="-58" type="curve" smooth="yes"/>
      <point x="376" y="-58"/>
      <point x="424" y="-89"/>
      <point x="424" y="-150" type="curve" smooth="yes"/>
      <point x="424" y="-219"/>
      <point x="360" y="-254"/>
      <point x="300" y="-254" type="curve" smooth="yes"/>
      <point x="250" y="-254"/>
      <point x="214" y="-244"/>
      <point x="172" y="-214" type="curve"/>
      <point x="214" y="-155" type="line"/>
      <point x="238" y="-173"/>
      <point x="264" y="-180"/>
      <point x="286" y="-180" type="curve" smooth="yes"/>
      <point x="320" y="-180"/>
      <point x="339" y="-167"/>
      <point x="339" y="-143" type="curve" smooth="yes"/>
      <point x="339" y="-117"/>
      <point x="314" y="-110"/>
      <point x="282" y="-110" type="curve" smooth="yes"/>
      <point x="272" y="-110"/>
      <point x="239" y="-110"/>
      <point x="207" y="-126" type="curve"/>
      <point x="260" y="-14" type="line"/>
      <point x="158" y="3"/>
      <point x="74" y="73"/>
      <point x="36" y="172" type="curve"/>
    </contour>
  </outline>
</glyph>
<glyph name="scedilla" format="1">
  <advance width="440"/>
  <unicode hex="015F"/>
  <outline>
    <contour>
      <point x="86" y="170" type="line"/>
      <point x="137" y="111"/>
      <point x="188" y="88"/>
      <point x="228" y="88" type="curve" smooth="yes"/>
      <point x="262" y="88"/>
      <point x="283" y="98"/>
      <point x="283" y="126" type="curve" smooth="yes"/>
      <point x="283" y="165"/>
      <point x="220" y="179"/>
      <point x="166" y="202" type="curve" smooth="yes"/>
      <point x="105" y="229"/>
      <point x="46" y="261"/>
      <point x="46" y="340" type="curve" smooth="yes"/>
      <point x="46" y="424"/>
      <point x="126" y="470"/>
      <point x="218" y="470" type="curve" smooth="yes"/>
      <point x="296" y="470"/>
      <point x="366" y="438"/>
      <point x="406" y="396" type="curve"/>
      <point x="349" y="314" type="line"/>
      <point x="317" y="348"/>
      <point x="263" y="370"/>
      <point x="226" y="370" type="curve" smooth="yes"/>
      <point x="192" y="370"/>
      <point x="171" y="361"/>
      <point x="171" y="336" type="curve" smooth="yes"/>
      <point x="171" y="306"/>
      <point x="232" y="290"/>
      <point x="288" y="268" type="curve" smooth="yes"/>
      <point x="353" y="242"/>
      <point x="414" y="206"/>
      <point x="414" y="130" type="curve" smooth="yes"/>
      <point x="414" y="31"/>
      <point x="354" y="-13"/>
      <point x="255" y="-17" type="curve"/>
      <point x="229" y="-54" type="line"/>
      <point x="238" y="-52"/>
      <point x="248" y="-52"/>
      <point x="258" y="-52" type="curve" smooth="yes"/>
      <point x="296" y="-52"/>
      <point x="345" y="-82"/>
      <point x="345" y="-143" type="curve" smooth="yes"/>
      <point x="345" y="-212"/>
      <point x="281" y="-247"/>
      <point x="221" y="-247" type="curve" smooth="yes"/>
      <point x="171" y="-247"/>
      <point x="136" y="-239"/>
      <point x="94" y="-209" type="curve"/>
      <point x="135" y="-148" type="line"/>
      <point x="159" y="-166"/>
      <point x="185" y="-173"/>
      <point x="207" y="-173" type="curve" smooth="yes"/>
      <point x="241" y="-173"/>
      <point x="260" y="-160"/>
      <point x="260" y="-136" type="curve" smooth="yes"/>
      <point x="260" y="-110"/>
      <point x="234" y="-103"/>
      <point x="202" y="-103" type="curve" smooth="yes"/>
      <point x="192" y="-103"/>
      <point x="160" y="-104"/>
      <point x="128" y="-120" type="curve"/>
      <point x="178" y="-10" type="line"/>
      <point x="111" y="5"/>
      <point x="55" y="42"/>
      <point x="20" y="90" type="curve"/>
    </contour>
  </outline>
</glyph>
<glyph name="Ydieresis" format="1">
  <advance width="630"/>
  <unicode hex="0178"/>
  <outline>
    <contour>
      <point x="464" y="700" type="line"/>
      <point x="630" y="700" type="line"/>
      <point x="388" y="290" type="line"/>
      <point x="388" y="0" type="line"/>
      <point x="242" y="0" type="line"/>
      <point x="242" y="290" type="line"/>
      <point x="0" y="700" type="line"/>
      <point x="166" y="700" type="line"/>
      <point x="315" y="418" type="line"/>
    </contour>
    <contour>
      <point x="366" y="848" type="curve" smooth="yes"/>
      <point x="366" y="890"/>
      <point x="400" y="922"/>
      <point x="444" y="922" type="curve" smooth="yes"/>
      <point x="488" y="922"/>
      <point x="523" y="890"/>
      <point x="523" y="848" type="curve" smooth="yes"/>
      <point x="523" y="806"/>
      <point x="488" y="774"/>
      <point x="444" y="774" type="curve" smooth="yes"/>
      <point x="400" y="774"/>
      <point x="366" y="806"/>
    </contour>
    <contour>
      <point x="108" y="848" type="curve" smooth="yes"/>
      <point x="108" y="890"/>
      <point x="142" y="922"/>
      <point x="186" y="922" type="curve" smooth="yes"/>
      <point x="230" y="922"/>
      <point x="264" y="890"/>
      <point x="264" y="848" type="curve" smooth="yes"/>
      <point x="264" y="806"/>
      <point x="230" y="774"/>
      <point x="186" y="774" type="curve" smooth="yes"/>
      <point x="142" y="774"/>
      <point x="108" y="806"/>
    </contour>
  </outline>
</glyph>
<glyph name="zacute" format="1">
  <advance width="503"/>
  <unicode hex="017A"/>
  <outline>
    <contour>
      <point x="269" y="341" type="line"/>
      <point x="54" y="341" type="line"/>
      <point x="54" y="460" type="line"/>
      <point x="489" y="460" type="line"/>
      <point x="242" y="119" type="line"/>
      <point x="460" y="119" type="line"/>
      <point x="460" y="0" type="line"/>
      <point x="15" y="0" type="line"/>
    </contour>
    <contour>
      <point x="442" y="680" type="line"/>
      <point x="262" y="530" type="line"/>
      <point x="188" y="568" type="line"/>
      <point x="338" y="728" type="line"/>
    </contour>
  </outline>
</glyph>
<glyph name="Zdotaccent" format="1">
  <advance width="597"/>
  <unicode hex="017B"/>
  <outline>
    <contour>
      <point x="50" y="570" type="line"/>
      <point x="50" y="700" type="line"/>
      <point x="582" y="700" type="line"/>
      <point x="238" y="126" type="line"/>
      <point x="550" y="126" type="line"/>
      <point x="550" y="0" type="line"/>
      <point x="10" y="0" type="line"/>
      <point x="352" y="570" type="line"/>
    </contour>
    <contour>
      <point x="238" y="848" type="curve" smooth="yes"/>
      <point x="238" y="890"/>
      <point x="272" y="922"/>
      <point x="316" y="922" type="curve" smooth="yes"/>
      <point x="360" y="922"/>
      <point x="394" y="890"/>
      <point x="394" y="848" type="curve" smooth="yes"/>
      <point x="394" y="806"/>
      <point x="360" y="774"/>
      <point x="316" y="774" type="curve" smooth="yes"/>
      <point x="272" y="774"/>
      <point x="238" y="806"/>
    </contour>
  </outline>
</glyph>
<glyph name="zdotaccent" format="1">
  <advance width="503"/>
  <unicode hex="017C"/>
  <outline>
    <contour>
      <point x="269" y="341" type="line"/>
      <point x="54" y="341" type="line"/>
      <point x="54" y="460" type="line"/>
      <point x="489" y="460" type="line"/>
      <point x="242" y="119" type="line"/>
      <point x="460" y="119" type="line"/>
      <point x="460" y="0" type="line"/>
      <point x="15" y="0" type="line"/>
    </contour>
    <contour>
      <point x="194" y="624" type="curve" smooth="yes"/>
      <point x="194" y="666"/>
      <point x="228" y="698"/>
      <point x="272" y="698" type="curve" smooth="yes"/>
      <point x="316" y="698"/>
      <point x="350" y="666"/>
      <point x="350" y="624" type="curve" smooth="yes"/>
      <point x="350" y="582"/>
      <point x="316" y="550"/>
      <point x="272" y="550" type="curve" smooth="yes"/>
      <point x="228" y="550"/>
      <point x="194" y="582"/>
    </contour>
  </outline>
</glyph>
<glyph name="Zcaron" format="1">
  <advance width="597"/>
  <unicode hex="017D"/>
  <outline>
    <contour>
      <point x="50" y="570" type="line"/>
      <point x="50" y="700" type="line"/>
      <point x="582" y="700" type="line"/>
      <point x="240" y="126" type="line"/>
      <point x="550" y="126" type="line"/>
      <point x="550" y="0" type="line"/>
      <point x="10" y="0" type="line"/>
      <point x="350" y="570" type="line"/>
    </contour>
    <contour>
      <point x="316" y="888" type="line"/>
      <point x="412" y="976" type="line"/>
      <point x="502" y="914" type="line"/>
      <point x="316" y="774" type="line"/>
      <point x="130" y="914" type="line"/>
      <point x="219" y="976" type="line"/>
    </contour>
  </outline>
</glyph>
<glyph name="zcaron" format="1">
  <advance width="499"/>
  <unicode hex="017E"/>
  <outline>
    <contour>
      <point x="271" y="341" type="line"/>
      <point x="54" y="341" type="line"/>
      <point x="54" y="460" type="line"/>
      <point x="360" y="460" type="line"/>
      <point x="489" y="460" type="line"/>
      <point x="244" y="119" type="line"/>
      <point x="460" y="119" type="line"/>
      <point x="460" y="0" type="line"/>
      <point x="158" y="0" type="line"/>
      <point x="15" y="0" type="line"/>
    </contour>
    <contour>
      <point x="271" y="644" type="line"/>
      <point x="368" y="732" type="line"/>
      <point x="458" y="670" type="line"/>
      <point x="271" y="530" type="line"/>
      <point x="85" y="670" type="line"/>
      <point x="175" y="732" type="line"/>
    </contour>
  </outline>
</glyph>
<glyph name="uni0213" format="1">
  <advance width="390"/>
  <unicode hex="0213"/>
  <outline>
    <contour>
      <point x="327" y="324" type="line"/>
      <point x="309" y="340"/>
      <point x="293" y="350"/>
      <point x="267" y="350" type="curve" smooth="yes"/>
      <point x="218" y="350"/>
      <point x="192" y="309"/>
      <point x="192" y="243" type="curve" smooth="yes"/>
      <point x="192" y="0" type="line"/>
      <point x="64" y="0" type="line"/>
      <point x="64" y="460" type="line"/>
      <point x="192" y="460" type="line"/>
      <point x="192" y="403" type="line"/>
      <point x="220" y="444"/>
      <point x="261" y="470"/>
      <point x="302" y="470" type="curve" smooth="yes"/>
      <point x="335" y="470"/>
      <point x="368" y="458"/>
      <point x="386" y="434" type="curve"/>
    </contour>
    <contour>
      <point x="63" y="530" type="line"/>
      <point x="63" y="608"/>
      <point x="121" y="676"/>
      <point x="226" y="676" type="curve" smooth="yes"/>
      <point x="331" y="676"/>
      <point x="388" y="608"/>
      <point x="388" y="530" type="curve"/>
      <point x="297" y="530" type="line"/>
      <point x="297" y="563"/>
      <point x="274" y="594"/>
      <point x="226" y="594" type="curve" smooth="yes"/>
      <point x="178" y="594"/>
      <point x="154" y="563"/>
      <point x="154" y="530" type="curve"/>
    </contour>
  </outline>
</glyph>
<glyph name="breve" format="1">
  <advance width="546"/>
  <unicode hex="02D8"/>
  <outline>
    <contour>
      <point x="110" y="850" type="curve"/>
      <point x="202" y="850" type="line"/>
      <point x="202" y="817"/>
      <point x="225" y="786"/>
      <point x="273" y="786" type="curve" smooth="yes"/>
      <point x="321" y="786"/>
      <point x="344" y="817"/>
      <point x="344" y="850" type="curve"/>
      <point x="436" y="850" type="line"/>
      <point x="436" y="772"/>
      <point x="378" y="706"/>
      <point x="273" y="706" type="curve" smooth="yes"/>
      <point x="168" y="706"/>
      <point x="110" y="772"/>
    </contour>
  </outline>
</glyph>
<glyph name="dotaccent" format="1">
  <advance width="300"/>
  <unicode hex="02D9"/>
  <outline>
    <contour>
      <point x="72" y="808" type="curve" smooth="yes"/>
      <point x="72" y="850"/>
      <point x="106" y="882"/>
      <point x="150" y="882" type="curve" smooth="yes"/>
      <point x="194" y="882"/>
      <point x="228" y="850"/>
      <point x="228" y="808" type="curve" smooth="yes"/>
      <point x="228" y="766"/>
      <point x="194" y="734"/>
      <point x="150" y="734" type="curve" smooth="yes"/>
      <point x="106" y="734"/>
      <point x="72" y="766"/>
    </contour>
  </outline>
</glyph>
<glyph name="figuredash" format="1">
  <advance width="616"/>
  <unicode hex="2012"/>
  <outline>
    <contour>
      <point x="70" y="180" type="line"/>
      <point x="70" y="294" type="line"/>
      <point x="540" y="294" type="line"/>
      <point x="540" y="180" type="line"/>
    </contour>
  </outline>
</glyph>
<glyph name="daggerdbl" format="1">
  <advance width="613"/>
  <unicode hex="2021"/>
  <outline>
    <contour>
      <point x="245" y="700" type="line"/>
      <point x="369" y="700" type="line"/>
      <point x="369" y="540" type="line"/>
      <point x="524" y="540" type="line"/>
      <point x="524" y="430" type="line"/>
      <point x="369" y="430" type="line"/>
      <point x="369" y="146" type="line"/>
      <point x="524" y="146" type="line"/>
      <point x="524" y="36" type="line"/>
      <point x="369" y="36" type="line"/>
      <point x="369" y="-150" type="line"/>
      <point x="245" y="-150" type="line"/>
      <point x="245" y="36" type="line"/>
      <point x="90" y="36" type="line"/>
      <point x="90" y="146" type="line"/>
      <point x="245" y="146" type="line"/>
      <point x="245" y="430" type="line"/>
      <point x="90" y="430" type="line"/>
      <point x="90" y="540" type="line"/>
      <point x="245" y="540" type="line"/>
    </contour>
  </outline>
</glyph>
<glyph name="guilsinglleft" format="1">
  <advance width="350"/>
  <unicode hex="2039"/>
  <outline>
    <contour>
      <point x="144" y="259" type="line"/>
      <point x="294" y="65" type="line"/>
      <point x="212" y="6" type="line"/>
      <point x="32" y="255" type="line"/>
      <point x="212" y="504" type="line"/>
      <point x="294" y="445" type="line"/>
    </contour>
  </outline>
</glyph>
<glyph name="fraction" format="1">
  <advance width="722"/>
  <unicode hex="2044"/>
  <outline>
    <contour>
      <point x="580" y="700" type="line"/>
      <point x="685" y="700" type="line"/>
      <point x="165" y="0" type="line"/>
      <point x="60" y="0" type="line"/>
    </contour>
  </outline>
</glyph>
<glyph name="uni2074" format="1">
  <advance width="414"/>
  <unicode hex="2074"/>
  <outline>
    <contour>
      <point x="238" y="422" type="line"/>
      <point x="238" y="564" type="line"/>
      <point x="139" y="422" type="line"/>
    </contour>
    <contour>
      <point x="320" y="357" type="line"/>
      <point x="320" y="280" type="line"/>
      <point x="231" y="280" type="line"/>
      <point x="231" y="357" type="line"/>
      <point x="20" y="357" type="line"/>
      <point x="261" y="700" type="line"/>
      <point x="320" y="700" type="line"/>
      <point x="320" y="432" type="line"/>
      <point x="386" y="432" type="line"/>
      <point x="386" y="357" type="line"/>
    </contour>
  </outline>
</glyph>
<glyph name="uni2075" format="1">
  <advance width="377"/>
  <unicode hex="2075"/>
  <outline>
    <contour>
      <point x="350" y="413" type="curve" smooth="yes"/>
      <point x="350" y="316"/>
      <point x="269" y="270"/>
      <point x="188" y="270" type="curve" smooth="yes"/>
      <point x="111" y="270"/>
      <point x="62" y="301"/>
      <point x="26" y="335" type="curve"/>
      <point x="66" y="404" type="line"/>
      <point x="96" y="374"/>
      <point x="136" y="350"/>
      <point x="172" y="350" type="curve" smooth="yes"/>
      <point x="225" y="350"/>
      <point x="257" y="376"/>
      <point x="257" y="422" type="curve" smooth="yes"/>
      <point x="257" y="468"/>
      <point x="217" y="491"/>
      <point x="172" y="491" type="curve" smooth="yes"/>
      <point x="138" y="491"/>
      <point x="101" y="484"/>
      <point x="58" y="460" type="curve"/>
      <point x="115" y="698" type="line"/>
      <point x="344" y="698" type="line"/>
      <point x="344" y="623" type="line"/>
      <point x="178" y="623" type="line"/>
      <point x="153" y="536" type="line"/>
      <point x="175" y="547"/>
      <point x="199" y="552"/>
      <point x="224" y="552" type="curve" smooth="yes"/>
      <point x="292" y="552"/>
      <point x="350" y="498"/>
    </contour>
  </outline>
</glyph>
<glyph name="uni2078" format="1">
  <advance width="350"/>
  <unicode hex="2078"/>
  <outline>
    <contour>
      <point x="40" y="599" type="curve" smooth="yes"/>
      <point x="40" y="666"/>
      <point x="100" y="709"/>
      <point x="174" y="709" type="curve" smooth="yes"/>
      <point x="248" y="709"/>
      <point x="308" y="666"/>
      <point x="308" y="599" type="curve" smooth="yes"/>
      <point x="308" y="553"/>
      <point x="282" y="520"/>
      <point x="245" y="503" type="curve"/>
      <point x="289" y="485"/>
      <point x="324" y="450"/>
      <point x="324" y="394" type="curve" smooth="yes"/>
      <point x="324" y="321"/>
      <point x="254" y="271"/>
      <point x="174" y="271" type="curve" smooth="yes"/>
      <point x="94" y="271"/>
      <point x="24" y="321"/>
      <point x="24" y="394" type="curve" smooth="yes"/>
      <point x="24" y="450"/>
      <point x="59" y="485"/>
      <point x="103" y="503" type="curve"/>
      <point x="66" y="520"/>
      <point x="40" y="553"/>
    </contour>
    <contour>
      <point x="122" y="591" type="curve" smooth="yes"/>
      <point x="122" y="559"/>
      <point x="145" y="536"/>
      <point x="174" y="536" type="curve" smooth="yes"/>
      <point x="203" y="536"/>
      <point x="226" y="559"/>
      <point x="226" y="591" type="curve" smooth="yes"/>
      <point x="226" y="623"/>
      <point x="205" y="644"/>
      <point x="174" y="644" type="curve" smooth="yes"/>
      <point x="143" y="644"/>
      <point x="122" y="623"/>
    </contour>
    <contour>
      <point x="110" y="407" type="curve" smooth="yes"/>
      <point x="110" y="365"/>
      <point x="140" y="342"/>
      <point x="174" y="342" type="curve" smooth="yes"/>
      <point x="208" y="342"/>
      <point x="238" y="365"/>
      <point x="238" y="407" type="curve" smooth="yes"/>
      <point x="238" y="443"/>
      <point x="208" y="469"/>
      <point x="174" y="469" type="curve" smooth="yes"/>
      <point x="140" y="469"/>
      <point x="110" y="443"/>
    </contour>
  </outline>
</glyph>
<glyph name="uni2079" format="1">
  <advance width="369"/>
  <unicode hex="2079"/>
  <outline>
    <contour>
      <point x="268" y="557" type="curve" smooth="yes"/>
      <point x="268" y="605"/>
      <point x="236" y="636"/>
      <point x="192" y="636" type="curve" smooth="yes"/>
      <point x="148" y="636"/>
      <point x="114" y="605"/>
      <point x="114" y="557" type="curve" smooth="yes"/>
      <point x="114" y="509"/>
      <point x="148" y="478"/>
      <point x="192" y="478" type="curve" smooth="yes"/>
      <point x="236" y="478"/>
      <point x="268" y="509"/>
    </contour>
    <contour>
      <point x="185" y="284" type="line"/>
      <point x="75" y="284" type="line"/>
      <point x="196" y="426" type="line"/>
      <point x="185" y="422"/>
      <point x="172" y="421"/>
      <point x="157" y="421" type="curve" smooth="yes"/>
      <point x="93" y="421"/>
      <point x="28" y="475"/>
      <point x="28" y="557" type="curve" smooth="yes"/>
      <point x="28" y="655"/>
      <point x="102" y="711"/>
      <point x="192" y="711" type="curve" smooth="yes"/>
      <point x="282" y="711"/>
      <point x="354" y="655"/>
      <point x="354" y="557" type="curve" smooth="yes"/>
      <point x="354" y="515"/>
      <point x="336" y="480"/>
      <point x="312" y="450" type="curve" smooth="yes"/>
    </contour>
  </outline>
</glyph>
<glyph name="uni2080" format="1">
  <advance width="384"/>
  <unicode hex="2080"/>
  <outline>
    <contour>
      <point x="107" y="210" type="curve" smooth="yes"/>
      <point x="107" y="126"/>
      <point x="141" y="68"/>
      <point x="193" y="68" type="curve" smooth="yes"/>
      <point x="245" y="68"/>
      <point x="278" y="126"/>
      <point x="278" y="210" type="curve" smooth="yes"/>
      <point x="278" y="294"/>
      <point x="245" y="352"/>
      <point x="193" y="352" type="curve" smooth="yes"/>
      <point x="141" y="352"/>
      <point x="107" y="294"/>
    </contour>
    <contour>
      <point x="23" y="210" type="curve" smooth="yes"/>
      <point x="23" y="343"/>
      <point x="93" y="428"/>
      <point x="193" y="428" type="curve" smooth="yes"/>
      <point x="295" y="428"/>
      <point x="362" y="343"/>
      <point x="362" y="210" type="curve" smooth="yes"/>
      <point x="362" y="77"/>
      <point x="295" y="-8"/>
      <point x="193" y="-8" type="curve" smooth="yes"/>
      <point x="93" y="-8"/>
      <point x="23" y="77"/>
    </contour>
  </outline>
</glyph>
<glyph name="uni2083" format="1">
  <advance width="354"/>
  <unicode hex="2083"/>
  <outline>
    <contour>
      <point x="176" y="-9" type="curve" smooth="yes"/>
      <point x="80" y="-9"/>
      <point x="23" y="55"/>
      <point x="23" y="127" type="curve"/>
      <point x="108" y="127" type="line"/>
      <point x="108" y="85"/>
      <point x="140" y="63"/>
      <point x="179" y="63" type="curve" smooth="yes"/>
      <point x="218" y="63"/>
      <point x="245" y="83"/>
      <point x="245" y="122" type="curve" smooth="yes"/>
      <point x="245" y="162"/>
      <point x="213" y="187"/>
      <point x="153" y="187" type="curve"/>
      <point x="153" y="205" type="line"/>
      <point x="153" y="233" type="line"/>
      <point x="153" y="246" type="line"/>
      <point x="201" y="246"/>
      <point x="233" y="275"/>
      <point x="233" y="308" type="curve" smooth="yes"/>
      <point x="233" y="338"/>
      <point x="215" y="357"/>
      <point x="180" y="357" type="curve" smooth="yes"/>
      <point x="146" y="357"/>
      <point x="122" y="334"/>
      <point x="122" y="302" type="curve"/>
      <point x="41" y="302" type="line"/>
      <point x="41" y="374"/>
      <point x="97" y="428"/>
      <point x="181" y="428" type="curve" smooth="yes"/>
      <point x="269" y="428"/>
      <point x="320" y="374"/>
      <point x="320" y="312" type="curve" smooth="yes"/>
      <point x="320" y="269"/>
      <point x="291" y="237"/>
      <point x="246" y="220" type="curve"/>
      <point x="299" y="203"/>
      <point x="332" y="169"/>
      <point x="332" y="113" type="curve" smooth="yes"/>
      <point x="332" y="41"/>
      <point x="270" y="-9"/>
    </contour>
  </outline>
</glyph>
<glyph name="uni2084" format="1">
  <advance width="417"/>
  <unicode hex="2084"/>
  <outline>
    <contour>
      <point x="238" y="142" type="line"/>
      <point x="238" y="284" type="line"/>
      <point x="138" y="142" type="line"/>
    </contour>
    <contour>
      <point x="319" y="77" type="line"/>
      <point x="319" y="0" type="line"/>
      <point x="230" y="0" type="line"/>
      <point x="230" y="77" type="line"/>
      <point x="19" y="77" type="line"/>
      <point x="260" y="420" type="line"/>
      <point x="319" y="420" type="line"/>
      <point x="319" y="152" type="line"/>
      <point x="385" y="152" type="line"/>
      <point x="385" y="77" type="line"/>
    </contour>
  </outline>
</glyph>
<glyph name="uni2086" format="1">
  <advance width="379"/>
  <unicode hex="2086"/>
  <outline>
    <contour>
      <point x="114" y="143" type="curve" smooth="yes"/>
      <point x="114" y="95"/>
      <point x="148" y="64"/>
      <point x="192" y="64" type="curve" smooth="yes"/>
      <point x="236" y="64"/>
      <point x="268" y="95"/>
      <point x="268" y="143" type="curve" smooth="yes"/>
      <point x="268" y="191"/>
      <point x="236" y="222"/>
      <point x="192" y="222" type="curve" smooth="yes"/>
      <point x="148" y="222"/>
      <point x="114" y="191"/>
    </contour>
    <contour>
      <point x="198" y="416" type="line"/>
      <point x="307" y="416" type="line"/>
      <point x="185" y="274" type="line"/>
      <point x="197" y="279"/>
      <point x="210" y="279"/>
      <point x="226" y="279" type="curve" smooth="yes"/>
      <point x="290" y="279"/>
      <point x="354" y="225"/>
      <point x="354" y="143" type="curve" smooth="yes"/>
      <point x="354" y="45"/>
      <point x="282" y="-11"/>
      <point x="192" y="-11" type="curve" smooth="yes"/>
      <point x="102" y="-11"/>
      <point x="28" y="45"/>
      <point x="28" y="143" type="curve" smooth="yes"/>
      <point x="28" y="185"/>
      <point x="46" y="220"/>
      <point x="70" y="250" type="curve" smooth="yes"/>
    </contour>
  </outline>
</glyph>
<glyph name="uni2088" format="1">
  <advance width="354"/>
  <unicode hex="2088"/>
  <outline>
    <contour>
      <point x="43" y="319" type="curve" smooth="yes"/>
      <point x="43" y="386"/>
      <point x="103" y="429"/>
      <point x="177" y="429" type="curve" smooth="yes"/>
      <point x="251" y="429"/>
      <point x="312" y="386"/>
      <point x="312" y="319" type="curve" smooth="yes"/>
      <point x="312" y="273"/>
      <point x="286" y="240"/>
      <point x="249" y="223" type="curve"/>
      <point x="293" y="205"/>
      <point x="327" y="170"/>
      <point x="327" y="114" type="curve" smooth="yes"/>
      <point x="327" y="41"/>
      <point x="257" y="-9"/>
      <point x="177" y="-9" type="curve" smooth="yes"/>
      <point x="97" y="-9"/>
      <point x="28" y="41"/>
      <point x="28" y="114" type="curve" smooth="yes"/>
      <point x="28" y="170"/>
      <point x="63" y="205"/>
      <point x="106" y="223" type="curve"/>
      <point x="69" y="240"/>
      <point x="43" y="273"/>
    </contour>
    <contour>
      <point x="125" y="311" type="curve" smooth="yes"/>
      <point x="125" y="279"/>
      <point x="148" y="256"/>
      <point x="177" y="256" type="curve" smooth="yes"/>
      <point x="206" y="256"/>
      <point x="230" y="279"/>
      <point x="230" y="311" type="curve" smooth="yes"/>
      <point x="230" y="343"/>
      <point x="208" y="364"/>
      <point x="177" y="364" type="curve" smooth="yes"/>
      <point x="146" y="364"/>
      <point x="125" y="343"/>
    </contour>
    <contour>
      <point x="114" y="127" type="curve" smooth="yes"/>
      <point x="114" y="85"/>
      <point x="143" y="62"/>
      <point x="177" y="62" type="curve" smooth="yes"/>
      <point x="211" y="62"/>
      <point x="241" y="85"/>
      <point x="241" y="127" type="curve" smooth="yes"/>
      <point x="241" y="163"/>
      <point x="211" y="189"/>
      <point x="177" y="189" type="curve" smooth="yes"/>
      <point x="143" y="189"/>
      <point x="114" y="163"/>
    </contour>
  </outline>
</glyph>
<glyph name="uni2089" format="1">
  <advance width="382"/>
  <unicode hex="2089"/>
  <outline>
    <contour>
      <point x="265" y="277" type="curve" smooth="yes"/>
      <point x="265" y="325"/>
      <point x="232" y="356"/>
      <point x="188" y="356" type="curve" smooth="yes"/>
      <point x="144" y="356"/>
      <point x="110" y="325"/>
      <point x="110" y="277" type="curve" smooth="yes"/>
      <point x="110" y="229"/>
      <point x="144" y="198"/>
      <point x="188" y="198" type="curve" smooth="yes"/>
      <point x="232" y="198"/>
      <point x="265" y="229"/>
    </contour>
    <contour>
      <point x="182" y="4" type="line"/>
      <point x="71" y="4" type="line"/>
      <point x="192" y="146" type="line"/>
      <point x="180" y="142"/>
      <point x="167" y="141"/>
      <point x="152" y="141" type="curve" smooth="yes"/>
      <point x="88" y="141"/>
      <point x="25" y="195"/>
      <point x="25" y="277" type="curve" smooth="yes"/>
      <point x="25" y="375"/>
      <point x="98" y="431"/>
      <point x="188" y="431" type="curve" smooth="yes"/>
      <point x="278" y="431"/>
      <point x="351" y="375"/>
      <point x="351" y="277" type="curve" smooth="yes"/>
      <point x="351" y="235"/>
      <point x="332" y="200"/>
      <point x="308" y="170" type="curve" smooth="yes"/>
    </contour>
  </outline>
</glyph>
<glyph name="Euro" format="1">
  <advance width="632"/>
  <unicode hex="20AC"/>
  <outline>
    <contour>
      <point x="32" y="261" type="line"/>
      <point x="32" y="334" type="line"/>
      <point x="92" y="334" type="line"/>
      <point x="92" y="339"/>
      <point x="92" y="345"/>
      <point x="92" y="350" type="curve" smooth="yes"/>
      <point x="92" y="364"/>
      <point x="93" y="377"/>
      <point x="94" y="390" type="curve"/>
      <point x="42" y="390" type="line"/>
      <point x="42" y="462" type="line"/>
      <point x="105" y="462" type="line"/>
      <point x="140" y="613"/>
      <point x="248" y="717"/>
      <point x="401" y="717" type="curve" smooth="yes"/>
      <point x="455" y="717"/>
      <point x="506" y="702"/>
      <point x="551" y="676" type="curve"/>
      <point x="551" y="533" type="line"/>
      <point x="510" y="573"/>
      <point x="458" y="595"/>
      <point x="401" y="595" type="curve" smooth="yes"/>
      <point x="324" y="595"/>
      <point x="263" y="547"/>
      <point x="236" y="462" type="curve"/>
      <point x="537" y="462" type="line"/>
      <point x="537" y="390" type="line"/>
      <point x="222" y="390" type="line"/>
      <point x="221" y="377"/>
      <point x="220" y="364"/>
      <point x="220" y="350" type="curve" smooth="yes"/>
      <point x="220" y="345"/>
      <point x="220" y="339"/>
      <point x="220" y="334" type="curve"/>
      <point x="515" y="334" type="line"/>
      <point x="515" y="261" type="line"/>
      <point x="230" y="261" type="line"/>
      <point x="253" y="162"/>
      <point x="317" y="105"/>
      <point x="401" y="105" type="curve" smooth="yes"/>
      <point x="458" y="105"/>
      <point x="510" y="127"/>
      <point x="551" y="167" type="curve"/>
      <point x="551" y="24" type="line"/>
      <point x="506" y="-2"/>
      <point x="455" y="-17"/>
      <point x="401" y="-17" type="curve" smooth="yes"/>
      <point x="241" y="-17"/>
      <point x="129" y="98"/>
      <point x="100" y="261" type="curve"/>
    </contour>
  </outline>
</glyph>
<glyph name="trademark" format="1">
  <advance width="721"/>
  <unicode hex="2122"/>
  <outline>
    <contour>
      <point x="394" y="540" type="line"/>
      <point x="372" y="350" type="line"/>
      <point x="296" y="350" type="line"/>
      <point x="348" y="717" type="line"/>
      <point x="495" y="492" type="line"/>
      <point x="642" y="717" type="line"/>
      <point x="694" y="350" type="line"/>
      <point x="618" y="350" type="line"/>
      <point x="596" y="540" type="line"/>
      <point x="495" y="382" type="line"/>
    </contour>
    <contour>
      <point x="30" y="635" type="line"/>
      <point x="30" y="700" type="line"/>
      <point x="292" y="700" type="line"/>
      <point x="292" y="635" type="line"/>
      <point x="196" y="635" type="line"/>
      <point x="196" y="350" type="line"/>
      <point x="125" y="350" type="line"/>
      <point x="125" y="635" type="line"/>
    </contour>
  </outline>
</glyph>
<glyph name="onethird" format="1">
  <advance width="837"/>
  <unicode hex="2153"/>
  <outline>
    <contour>
      <point x="589" y="700" type="line"/>
      <point x="694" y="700" type="line"/>
      <point x="174" y="0" type="line"/>
      <point x="69" y="0" type="line"/>
    </contour>
    <contour>
      <point x="26" y="584" type="line"/>
      <point x="26" y="662" type="line"/>
      <point x="210" y="702" type="line"/>
      <point x="210" y="274" type="line"/>
      <point x="126" y="274" type="line"/>
      <point x="126" y="610" type="line"/>
    </contour>
    <contour>
      <point x="658" y="-9" type="curve" smooth="yes"/>
      <point x="562" y="-9"/>
      <point x="504" y="55"/>
      <point x="504" y="127" type="curve"/>
      <point x="590" y="127" type="line"/>
      <point x="590" y="85"/>
      <point x="622" y="63"/>
      <point x="661" y="63" type="curve" smooth="yes"/>
      <point x="700" y="63"/>
      <point x="726" y="83"/>
      <point x="726" y="122" type="curve" smooth="yes"/>
      <point x="726" y="162"/>
      <point x="695" y="187"/>
      <point x="635" y="187" type="curve"/>
      <point x="635" y="205" type="line"/>
      <point x="635" y="233" type="line"/>
      <point x="635" y="246" type="line"/>
      <point x="683" y="246"/>
      <point x="714" y="275"/>
      <point x="714" y="308" type="curve" smooth="yes"/>
      <point x="714" y="338"/>
      <point x="697" y="357"/>
      <point x="662" y="357" type="curve" smooth="yes"/>
      <point x="628" y="357"/>
      <point x="603" y="334"/>
      <point x="603" y="302" type="curve"/>
      <point x="522" y="302" type="line"/>
      <point x="522" y="374"/>
      <point x="579" y="428"/>
      <point x="663" y="428" type="curve" smooth="yes"/>
      <point x="751" y="428"/>
      <point x="800" y="374"/>
      <point x="800" y="312" type="curve" smooth="yes"/>
      <point x="800" y="269"/>
      <point x="772" y="237"/>
      <point x="727" y="220" type="curve"/>
      <point x="779" y="203"/>
      <point x="812" y="169"/>
      <point x="812" y="113" type="curve" smooth="yes"/>
      <point x="812" y="41"/>
      <point x="752" y="-9"/>
    </contour>
  </outline>
</glyph>
<glyph name="uni2155" format="1">
  <advance width="826"/>
  <unicode hex="2155"/>
  <outline>
    <contour>
      <point x="590" y="700" type="line"/>
      <point x="694" y="700" type="line"/>
      <point x="174" y="0" type="line"/>
      <point x="70" y="0" type="line"/>
    </contour>
    <contour>
      <point x="26" y="584" type="line"/>
      <point x="26" y="662" type="line"/>
      <point x="210" y="702" type="line"/>
      <point x="210" y="274" type="line"/>
      <point x="126" y="274" type="line"/>
      <point x="126" y="610" type="line"/>
    </contour>
    <contour>
      <point x="802" y="133" type="curve" smooth="yes"/>
      <point x="802" y="36"/>
      <point x="720" y="-10"/>
      <point x="639" y="-10" type="curve" smooth="yes"/>
      <point x="562" y="-10"/>
      <point x="513" y="21"/>
      <point x="477" y="55" type="curve"/>
      <point x="518" y="124" type="line"/>
      <point x="548" y="94"/>
      <point x="588" y="70"/>
      <point x="624" y="70" type="curve" smooth="yes"/>
      <point x="677" y="70"/>
      <point x="708" y="96"/>
      <point x="708" y="142" type="curve" smooth="yes"/>
      <point x="708" y="188"/>
      <point x="669" y="211"/>
      <point x="624" y="211" type="curve" smooth="yes"/>
      <point x="590" y="211"/>
      <point x="552" y="204"/>
      <point x="509" y="180" type="curve"/>
      <point x="566" y="418" type="line"/>
      <point x="796" y="418" type="line"/>
      <point x="796" y="343" type="line"/>
      <point x="630" y="343" type="line"/>
      <point x="603" y="256" type="line"/>
      <point x="625" y="268"/>
      <point x="650" y="272"/>
      <point x="675" y="272" type="curve" smooth="yes"/>
      <point x="743" y="272"/>
      <point x="802" y="218"/>
    </contour>
  </outline>
</glyph>
